<mxfile host="app.diagrams.net" modified="2020-11-06T16:58:48.126Z" agent="5.0 (Macintosh; Intel Mac OS X 10_15_7) AppleWebKit/605.1.15 (KHTML, like Gecko) Version/14.0 Safari/605.1.15" etag="nsfwrmCCi4YbPgep3nLL" version="13.9.2" type="github">
  <diagram name="Page-1" id="aaaa8250-4180-3840-79b5-4cada1eebb92">
    <mxGraphModel dx="2371" dy="1597" grid="1" gridSize="10" guides="1" tooltips="1" connect="1" arrows="1" fold="1" page="1" pageScale="1" pageWidth="850" pageHeight="1100" background="#ffffff" math="0" shadow="0">
      <root>
        <mxCell id="0" />
        <mxCell id="1" parent="0" />
        <mxCell id="1a8abee3a6cfdf20-28" value="" style="verticalLabelPosition=bottom;html=1;verticalAlign=top;strokeWidth=1;dashed=0;shape=mxgraph.aws3d.flatDoubleEdge;fillColor=#000000;aspect=fixed;rounded=1;shadow=0;comic=0;fontFamily=Verdana;fontSize=12;flipV=1;" parent="1" vertex="1">
          <mxGeometry x="1054.04" y="1112.25" width="263.01" height="150" as="geometry" />
        </mxCell>
        <mxCell id="1a8abee3a6cfdf20-36" value="" style="verticalLabelPosition=bottom;html=1;verticalAlign=top;strokeWidth=1;dashed=0;shape=mxgraph.aws3d.arrowSW;fillColor=#000000;aspect=fixed;rounded=1;shadow=0;comic=0;fontFamily=Verdana;fontSize=12" parent="1" vertex="1">
          <mxGeometry x="1716.67" y="945" width="195" height="110" as="geometry" />
        </mxCell>
        <mxCell id="d5ac148becb70bc-5" value="" style="verticalLabelPosition=bottom;html=1;verticalAlign=top;strokeWidth=1;dashed=0;shape=mxgraph.aws3d.arrowSE;fillColor=#000000;aspect=fixed;rounded=1;shadow=0;comic=0;fontFamily=Verdana;fontSize=12" parent="1" vertex="1">
          <mxGeometry x="1738" y="1224" width="134" height="76" as="geometry" />
        </mxCell>
        <mxCell id="d5ac148becb70bc-8" value="" style="verticalLabelPosition=bottom;html=1;verticalAlign=top;strokeWidth=1;dashed=0;shape=mxgraph.aws3d.dashedArrowlessEdge;aspect=fixed;rounded=1;shadow=0;comic=0;fontFamily=Verdana;fontSize=12;rotation=0;direction=east;" parent="1" vertex="1">
          <mxGeometry x="840" y="564" width="1432" height="816" as="geometry" />
        </mxCell>
        <mxCell id="d5ac148becb70bc-9" value="" style="verticalLabelPosition=bottom;html=1;verticalAlign=top;strokeWidth=1;dashed=0;shape=mxgraph.aws3d.dashedArrowlessEdge;aspect=fixed;rounded=1;shadow=0;comic=0;fontFamily=Verdana;fontSize=12" parent="1" vertex="1">
          <mxGeometry x="592" y="705" width="1432" height="816" as="geometry" />
        </mxCell>
        <mxCell id="d5ac148becb70bc-10" value="" style="verticalLabelPosition=bottom;html=1;verticalAlign=top;strokeWidth=1;dashed=0;shape=mxgraph.aws3d.dashedArrowlessEdge;fillColor=#000000;aspect=fixed;rounded=1;shadow=0;comic=0;fontFamily=Verdana;fontSize=12;fontColor=#000000;flipV=1;" parent="1" vertex="1">
          <mxGeometry x="592" y="564" width="248" height="141" as="geometry" />
        </mxCell>
        <mxCell id="d5ac148becb70bc-12" value="" style="verticalLabelPosition=bottom;html=1;verticalAlign=top;strokeWidth=1;dashed=0;shape=mxgraph.aws3d.dashedArrowlessEdge;aspect=fixed;rounded=1;shadow=0;comic=0;fontFamily=Verdana;fontSize=12;flipV=1;connectable=1;allowArrows=1;" parent="1" vertex="1">
          <mxGeometry x="2023" y="1378" width="249" height="142" as="geometry" />
        </mxCell>
        <mxCell id="dQPvW1LIH_hYdUgcrzJX-1" value="" style="shape=image;verticalLabelPosition=bottom;labelBackgroundColor=#ffffff;verticalAlign=top;aspect=fixed;imageAspect=0;image=data:image/svg+xml,PHN2ZyB4bWxuczpjYz0iaHR0cDovL2NyZWF0aXZlY29tbW9ucy5vcmcvbnMjIiB4bWxuczpkYz0iaHR0cDovL3B1cmwub3JnL2RjL2VsZW1lbnRzLzEuMS8iIHhtbG5zOmlua3NjYXBlPSJodHRwOi8vd3d3Lmlua3NjYXBlLm9yZy9uYW1lc3BhY2VzL2lua3NjYXBlIiB4bWxuczpyZGY9Imh0dHA6Ly93d3cudzMub3JnLzE5OTkvMDIvMjItcmRmLXN5bnRheC1ucyMiIHhtbG5zOnNvZGlwb2RpPSJodHRwOi8vc29kaXBvZGkuc291cmNlZm9yZ2UubmV0L0RURC9zb2RpcG9kaS0wLmR0ZCIgeG1sbnM6c3ZnPSJodHRwOi8vd3d3LnczLm9yZy8yMDAwL3N2ZyIgeG1sbnM9Imh0dHA6Ly93d3cudzMub3JnLzIwMDAvc3ZnIiB4bWxuczp4bGluaz0iaHR0cDovL3d3dy53My5vcmcvMTk5OS94bGluayIgdmVyc2lvbj0iMS4xIiBpZD0ic3ZnMTEyNzc0IiBpbmtzY2FwZTp2ZXJzaW9uPSIwLjkyLjMgKDI0MDU1NDYsIDIwMTgtMDMtMTEpIiBzb2RpcG9kaTpkb2NuYW1lPSJ1c2VyX2FjY2Vzc19wZXJtaXNzaW9ucy5zdmciIHg9IjBweCIgeT0iMHB4IiB2aWV3Qm94PSIwIDAgMTI4LjY1IDg5LjMiIHN0eWxlPSJlbmFibGUtYmFja2dyb3VuZDpuZXcgMCAwIDEyOC42NSA4OS4zOyIgeG1sOnNwYWNlPSJwcmVzZXJ2ZSI+JiN4YTs8c29kaXBvZGk6bmFtZWR2aWV3IGJvcmRlcmNvbG9yPSIjNjY2NjY2IiBib3JkZXJvcGFjaXR5PSIxIiBmaXQtbWFyZ2luLWJvdHRvbT0iMCIgZml0LW1hcmdpbi1sZWZ0PSIwIiBmaXQtbWFyZ2luLXJpZ2h0PSIwIiBmaXQtbWFyZ2luLXRvcD0iMCIgZ3JpZHRvbGVyYW5jZT0iMTAiIGd1aWRldG9sZXJhbmNlPSIxMCIgaWQ9Im5hbWVkdmlldzExMjc3NiIgaW5rc2NhcGU6Y3VycmVudC1sYXllcj0ic3ZnMTEyNzc0IiBpbmtzY2FwZTpjeD0iODUuNjczNzYxIiBpbmtzY2FwZTpjeT0iNTkuNDU4NzE2IiBpbmtzY2FwZTpwYWdlb3BhY2l0eT0iMCIgaW5rc2NhcGU6cGFnZXNoYWRvdz0iMiIgaW5rc2NhcGU6d2luZG93LWhlaWdodD0iMTAxNyIgaW5rc2NhcGU6d2luZG93LW1heGltaXplZD0iMSIgaW5rc2NhcGU6d2luZG93LXdpZHRoPSIxOTIwIiBpbmtzY2FwZTp3aW5kb3cteD0iLTgiIGlua3NjYXBlOndpbmRvdy15PSItOCIgaW5rc2NhcGU6em9vbT0iNy4yOTUzODYyIiBvYmplY3R0b2xlcmFuY2U9IjEwIiBwYWdlY29sb3I9IiNmZmZmZmYiIHNob3dncmlkPSJmYWxzZSI+JiN4YTsJPC9zb2RpcG9kaTpuYW1lZHZpZXc+JiN4YTs8ZyBpZD0iZzExMjc3MiIgdHJhbnNmb3JtPSJ0cmFuc2xhdGUoMCwwLjEzNzQxNzQpIj4mI3hhOwk8dGl0bGUgaWQ9InRpdGxlMTEyNzI3Ij5QYWdlLTE8L3RpdGxlPiYjeGE7CTxnIGlkPSJncm91cDQ5MzgtMSI+JiN4YTsJCTx0aXRsZSBpZD0idGl0bGUxMTI3MjkiPlVzZXIgQWNjZXNzIFBlcm1pc3Npb25zPC90aXRsZT4mI3hhOwkJPGcgaWQ9InNoYXBlNDkzOS0yIiB0cmFuc2Zvcm09InRyYW5zbGF0ZSgwLC03LjYzNzc5KSI+JiN4YTsJCQk8dGl0bGUgaWQ9InRpdGxlMTEyNzMxIj5TaGVldC40OTM5PC90aXRsZT4mI3hhOwkJCTxwYXRoIGlkPSJwYXRoMTEyNzMzIiBpbmtzY2FwZTpjb25uZWN0b3ItY3VydmF0dXJlPSIwIiBzdHlsZT0iZmlsbDojREREREREOyIgZD0iTTEuNDMsMjAuMjdoMTAyLjM0YzAuNzgsMCwxLjQzLDAuNjQsMS40MywxLjQ1ICAgICB2NjUuOTZjMCwwLjgxLTAuNjUsMS40NS0xLjQzLDEuNDVIMS40M0MwLjY1LDg5LjEzLDAsODguNDksMCw4Ny42OFYyMS43MkMwLDIwLjkxLDAuNjUsMjAuMjcsMS40MywyMC4yN3oiLz4mI3hhOwkJPC9nPiYjeGE7CQk8ZyBpZD0ic2hhcGU0OTQwLTQiIHRyYW5zZm9ybT0idHJhbnNsYXRlKDMxLjcyMjMsLTYyLjczODcpIj4mI3hhOwkJCTx0aXRsZSBpZD0idGl0bGUxMTI3MzYiPlNoZWV0LjQ5NDA8L3RpdGxlPiYjeGE7CQkJPHBhdGggaWQ9InBhdGgxMTI3MzgiIGlua3NjYXBlOmNvbm5lY3Rvci1jdXJ2YXR1cmU9IjAiIHN0eWxlPSJmaWxsOiNGRkZGRkY7IiBkPSJNMC44NSw4Mi43OWgzNy45M2MwLjQ4LDAsMC44NSwwLjM3LDAuODUsMC44NSAgICAgdjQuNjRjMCwwLjQ4LTAuMzcsMC44NS0wLjg1LDAuODVIMC44NUMwLjM3LDg5LjEzLDAsODguNzYsMCw4OC4yOHYtNC42NEMwLDgzLjE2LDAuMzcsODIuNzksMC44NSw4Mi43OXoiLz4mI3hhOwkJPC9nPiYjeGE7CQk8ZyBpZD0ic2hhcGU0OTQxLTYiIHRyYW5zZm9ybT0idHJhbnNsYXRlKDM3LjE0NzMsLTY1LjM2NykiPiYjeGE7CQkJPHRpdGxlIGlkPSJ0aXRsZTExMjc0MSI+U2hlZXQuNDk0MTwvdGl0bGU+JiN4YTsJCQk8cGF0aCBpZD0icGF0aDExMjc0MyIgaW5rc2NhcGU6Y29ubmVjdG9yLWN1cnZhdHVyZT0iMCIgc3R5bGU9ImZpbGw6I0JCQkJCQjsiIGQ9Ik0zLjM4LDcxLjk2YzAuMDktMC40NywwLjU1LTAuODYsMS4wNC0wLjg2ICAgICBoMjIuMDZjMC40OSwwLDAuOTUsMC4zOSwxLjA0LDAuODZsMy4zNCwxNi4zMmMwLjA5LDAuNDYtMC4yMSwwLjg1LTAuNjksMC44NUgwLjczYy0wLjQ4LDAtMC44MS0wLjM5LTAuNzEtMC44NUwzLjM4LDcxLjk2eiIvPiYjeGE7CQk8L2c+JiN4YTsJCTxnIGlkPSJzaGFwZTQ5NDItOCIgdHJhbnNmb3JtPSJ0cmFuc2xhdGUoOC43MTQ0LC0xNy43MTI3KSI+JiN4YTsJCQk8dGl0bGUgaWQ9InRpdGxlMTEyNzQ2Ij5TaGVldC40OTQyPC90aXRsZT4mI3hhOwkJCTxwYXRoIGlkPSJwYXRoMTEyNzQ4IiBpbmtzY2FwZTpjb25uZWN0b3ItY3VydmF0dXJlPSIwIiBzdHlsZT0iZmlsbDojMTA3RkM5OyIgZD0iTTAsODkuMTN2LTMuNDhjMCwwLDAuMjMtMi4xNCwyLjgxLTIuODEgICAgIGMwLDAsNC4xMy0xLjUyLDcuMzgtMi45M2MxLjY4LTAuNzQsMi4wNS0xLjE4LDMuNzMtMS45MWMwLDAsMC4xOS0wLjg4LDAuMTItMS40MWgxLjMxYzAsMCwwLjMzLDAuMTgsMC0xLjg3ICAgICBjMCwwLTEuNjEtMC40MS0xLjY4LTMuNjljMCwwLTEuMiwwLjQyLTEuMjktMS41NmMtMC4wNS0xLjM0LTEuMDgtMi40OSwwLjQxLTMuNDZsLTAuNzYtMi4wNWMwLDAtMS41Mi04LjI2LDIuODQtNy4wNCAgICAgYy0xLjgyLTIuMjEsMTAuNC00LjQsMTEuMiwyLjU2YzAsMCwwLjU4LDMuNzgsMCw2LjM3YzAsMCwxLjc4LTAuMjEsMC42LDMuMjJjMCwwLTAuNjcsMi40Ny0xLjY4LDEuOTJjMCwwLDAuMTgsMy4xMy0xLjQxLDMuNjYgICAgIGMwLDAsMC4xMiwxLjY2LDAuMTIsMS43OGwxLjUsMC4yM2MwLDAtMC4yMywxLjM2LDAuMDQsMS41MmMwLDAsMS44LDEuMjIsMy45MiwxLjc4YzQuMTMsMS4wNiw5LjAyLDIuODgsOS4wMiw0LjQ3ICAgICBjMCwwLDAuNDEsMi4xMiwwLjQxLDQuN0wwLDg5LjEzeiIvPiYjeGE7CQk8L2c+JiN4YTsJCTxnIGlkPSJzaGFwZTQ5NDMtMTAiIHRyYW5zZm9ybT0idHJhbnNsYXRlKDUzLjM5MywtMzAuNDE1OSkiPiYjeGE7CQkJPHRpdGxlIGlkPSJ0aXRsZTExMjc1MSI+U2hlZXQuNDk0MzwvdGl0bGU+JiN4YTsJCQk8cGF0aCBpZD0icGF0aDExMjc1MyIgaW5rc2NhcGU6Y29ubmVjdG9yLWN1cnZhdHVyZT0iMCIgc3R5bGU9ImZpbGw6I0JCQkJCQjsiIGQ9Ik0wLjg1LDgyLjI0aDQwLjc2YzAuNDksMCwwLjg2LDAuMzksMC44NiwwLjg3ICAgICB2NS4xNWMwLDAuNDgtMC4zNywwLjg3LTAuODYsMC44N0gwLjg1QzAuMzksODkuMTMsMCw4OC43NCwwLDg4LjI2di01LjE1QzAsODIuNjMsMC4zOSw4Mi4yNCwwLjg1LDgyLjI0eiIvPiYjeGE7CQk8L2c+JiN4YTsJCTxnIGlkPSJzaGFwZTQ5NDQtMTIiIHRyYW5zZm9ybT0idHJhbnNsYXRlKDUzLjM5MywtNDMuMTQyMSkiPiYjeGE7CQkJPHRpdGxlIGlkPSJ0aXRsZTExMjc1NiI+U2hlZXQuNDk0NDwvdGl0bGU+JiN4YTsJCQk8cGF0aCBpZD0icGF0aDExMjc1OCIgaW5rc2NhcGU6Y29ubmVjdG9yLWN1cnZhdHVyZT0iMCIgc3R5bGU9ImZpbGw6I0JCQkJCQjsiIGQ9Ik0wLjg1LDgyLjI2aDQwLjc2YzAuNDksMCwwLjg2LDAuMzcsMC44NiwwLjg1ICAgICB2NS4xN2MwLDAuNDgtMC4zNywwLjg1LTAuODYsMC44NUgwLjg1QzAuMzksODkuMTMsMCw4OC43NiwwLDg4LjI4di01LjE3QzAsODIuNjMsMC4zOSw4Mi4yNiwwLjg1LDgyLjI2eiIvPiYjeGE7CQk8L2c+JiN4YTsJCTxnIGlkPSJzaGFwZTQ5NDUtMTQiIHRyYW5zZm9ybT0idHJhbnNsYXRlKDUzLjM5MywtMTguMjQzKSI+JiN4YTsJCQk8dGl0bGUgaWQ9InRpdGxlMTEyNzYxIj5TaGVldC40OTQ1PC90aXRsZT4mI3hhOwkJCTxwYXRoIGlkPSJwYXRoMTEyNzYzIiBpbmtzY2FwZTpjb25uZWN0b3ItY3VydmF0dXJlPSIwIiBzdHlsZT0iZmlsbDojQkJCQkJCOyIgZD0iTTAuODUsODIuMjRoNDAuNzZjMC40OSwwLDAuODYsMC4zOSwwLjg2LDAuODcgICAgIHY1LjE3YzAsMC40Ni0wLjM3LDAuODUtMC44NiwwLjg1SDAuODVDMC4zOSw4OS4xMywwLDg4Ljc0LDAsODguMjh2LTUuMTdDMCw4Mi42MywwLjM5LDgyLjI0LDAuODUsODIuMjR6Ii8+JiN4YTsJCTwvZz4mI3hhOwkJPGcgaWQ9InNoYXBlNDk0Ni0xNiIgdHJhbnNmb3JtPSJ0cmFuc2xhdGUoODEuMDg2NikiPiYjeGE7CQkJPHRpdGxlIGlkPSJ0aXRsZTExMjc2NiI+U2hlZXQuNDk0NjwvdGl0bGU+JiN4YTsJCQk8cGF0aCBpZD0icGF0aDExMjc2OCIgaW5rc2NhcGU6Y29ubmVjdG9yLWN1cnZhdHVyZT0iMCIgc3R5bGU9ImZpbGw6IzEwN0ZDOTsiIGQ9Ik0xMS4yMiw0My44OUwxMS4yLDc4LjRsOS40NSw5LjQ4bDAsMCAgICAgYzEuNzMsMS43MSw0LjYxLDEuNzEsNi4zMi0wLjAybDUuMjUtNS4yNmwtNC4xOS00LjJsNC4yMi00LjIxbC00LjIyLTQuMmw0LjIyLTQuMjJsLTQuMjItNC4ybDQuMjItNC4xOVY0NS44N2wwLDAgICAgIGMzLjA0LTEuMTUsNS45LTIuOTUsOC4zNy01LjM5YzkuMjYtOS4yNyw5LjI2LTI0LjM5LDAtMzMuNjZDMzEuMy0yLjQ5LDE2LjI1LTIuNDMsNi45OCw2Ljg0Uy0yLjM2LDMxLjE3LDYuOTYsNDAuNSAgICAgQzguMjcsNDEuODIsOS43LDQyLjk1LDExLjIyLDQzLjg5eiBNMzAuMjQsMjQuMThjLTMuNTUsMy41NS05LjIyLDMuNTUtMTIuNzUsMGMtMy40My0zLjQxLTMuNDEtOS4wNiwwLjE0LTEyLjYxICAgICBjMy40MS0zLjQxLDkuMDYtMy40MSwxMi40NywwQzMzLjY1LDE1LjEyLDMzLjY1LDIwLjc3LDMwLjI0LDI0LjE4eiIvPiYjeGE7CQk8L2c+JiN4YTsJPC9nPiYjeGE7PC9nPiYjeGE7PC9zdmc+;" parent="1" vertex="1">
          <mxGeometry x="1964.6" y="960" width="67.4" height="46.5" as="geometry" />
        </mxCell>
        <mxCell id="dQPvW1LIH_hYdUgcrzJX-15" value="" style="verticalLabelPosition=bottom;html=1;verticalAlign=top;strokeWidth=1;dashed=0;shape=mxgraph.aws3d.arrowSE;fillColor=#000000;aspect=fixed;rounded=1;shadow=0;comic=0;fontFamily=Verdana;fontSize=12;direction=west;" parent="1" vertex="1">
          <mxGeometry x="1129.14" y="848" width="134" height="76" as="geometry" />
        </mxCell>
        <mxCell id="dQPvW1LIH_hYdUgcrzJX-20" value="" style="verticalLabelPosition=bottom;html=1;verticalAlign=top;strokeWidth=1;dashed=0;shape=mxgraph.aws3d.arrowSE;fillColor=#000000;aspect=fixed;rounded=1;shadow=0;comic=0;fontFamily=Verdana;fontSize=12;direction=west;" parent="1" vertex="1">
          <mxGeometry x="806.74" y="750" width="437.26" height="248" as="geometry" />
        </mxCell>
        <mxCell id="dQPvW1LIH_hYdUgcrzJX-21" value="" style="verticalLabelPosition=bottom;html=1;verticalAlign=top;strokeWidth=1;dashed=0;shape=mxgraph.aws3d.arrowSE;fillColor=#000000;aspect=fixed;rounded=1;shadow=0;comic=0;fontFamily=Verdana;fontSize=12;direction=west;" parent="1" vertex="1">
          <mxGeometry x="1440.5" y="1055" width="134" height="76" as="geometry" />
        </mxCell>
        <mxCell id="dQPvW1LIH_hYdUgcrzJX-25" value="" style="dashed=0;outlineConnect=0;html=1;align=center;labelPosition=center;verticalLabelPosition=bottom;verticalAlign=top;shape=mxgraph.weblogos.github" parent="1" vertex="1">
          <mxGeometry x="370" y="1055" width="152" height="152" as="geometry" />
        </mxCell>
        <mxCell id="dQPvW1LIH_hYdUgcrzJX-26" value="" style="group" parent="1" vertex="1" connectable="0">
          <mxGeometry x="1170" y="1580" width="276" height="236" as="geometry" />
        </mxCell>
        <mxCell id="1a8abee3a6cfdf20-15" value="" style="verticalLabelPosition=bottom;html=1;verticalAlign=top;strokeWidth=1;dashed=0;shape=mxgraph.aws3d.application_server;fillColor=#ECECEC;strokeColor=#5E5E5E;aspect=fixed;rounded=1;shadow=0;comic=0;fontSize=12" parent="dQPvW1LIH_hYdUgcrzJX-26" vertex="1">
          <mxGeometry x="77" width="123" height="124" as="geometry" />
        </mxCell>
        <mxCell id="1a8abee3a6cfdf20-16" value="" style="verticalLabelPosition=bottom;html=1;verticalAlign=top;strokeWidth=1;dashed=0;shape=mxgraph.aws3d.application_server;fillColor=#ECECEC;strokeColor=#5E5E5E;aspect=fixed;rounded=1;shadow=0;comic=0;fontSize=12" parent="dQPvW1LIH_hYdUgcrzJX-26" vertex="1">
          <mxGeometry x="153" y="56" width="123" height="124" as="geometry" />
        </mxCell>
        <mxCell id="1a8abee3a6cfdf20-17" value="" style="verticalLabelPosition=bottom;html=1;verticalAlign=top;strokeWidth=1;dashed=0;shape=mxgraph.aws3d.application_server;fillColor=#ECECEC;strokeColor=#5E5E5E;aspect=fixed;rounded=1;shadow=0;comic=0;fontSize=12" parent="dQPvW1LIH_hYdUgcrzJX-26" vertex="1">
          <mxGeometry y="56" width="123" height="124" as="geometry" />
        </mxCell>
        <mxCell id="1a8abee3a6cfdf20-18" value="" style="verticalLabelPosition=bottom;html=1;verticalAlign=top;strokeWidth=1;dashed=0;shape=mxgraph.aws3d.application_server;fillColor=#ECECEC;strokeColor=#5E5E5E;aspect=fixed;rounded=1;shadow=0;comic=0;fontSize=12" parent="dQPvW1LIH_hYdUgcrzJX-26" vertex="1">
          <mxGeometry x="77" y="112" width="123" height="124" as="geometry" />
        </mxCell>
        <mxCell id="dQPvW1LIH_hYdUgcrzJX-33" value="" style="group" parent="1" vertex="1" connectable="0">
          <mxGeometry x="1579.7" y="975" width="160.79999999999995" height="251.16999999999985" as="geometry" />
        </mxCell>
        <mxCell id="1a8abee3a6cfdf20-12" value="" style="verticalLabelPosition=bottom;html=1;verticalAlign=top;strokeWidth=1;dashed=0;shape=mxgraph.aws3d.redshift;fillColor=#CC0000;strokeColor=#E6E6E6;aspect=fixed;rounded=1;shadow=0;comic=0;fontSize=12" parent="dQPvW1LIH_hYdUgcrzJX-33" vertex="1">
          <mxGeometry y="61.169999999999845" width="150" height="190" as="geometry" />
        </mxCell>
        <mxCell id="dQPvW1LIH_hYdUgcrzJX-9" value="&lt;font style=&quot;font-size: 34px&quot;&gt;&lt;b&gt;SubDAO&lt;br&gt;Guard&lt;/b&gt;&lt;/font&gt;" style="text;html=1;align=center;verticalAlign=middle;resizable=0;points=[];autosize=1;" parent="dQPvW1LIH_hYdUgcrzJX-33" vertex="1">
          <mxGeometry x="0.7999999999999545" width="160" height="50" as="geometry" />
        </mxCell>
        <mxCell id="dQPvW1LIH_hYdUgcrzJX-34" value="" style="group" parent="1" vertex="1" connectable="0">
          <mxGeometry x="1890" y="1174" width="181.5" height="268.5999999999999" as="geometry" />
        </mxCell>
        <mxCell id="1a8abee3a6cfdf20-20" value="" style="verticalLabelPosition=bottom;html=1;verticalAlign=top;strokeWidth=1;dashed=0;shape=mxgraph.aws3d.simpleDb2;fillColor=#004C99;strokeColor=#99CCFF;aspect=fixed;rounded=1;shadow=0;comic=0;fontSize=12" parent="dQPvW1LIH_hYdUgcrzJX-34" vertex="1">
          <mxGeometry y="76" width="181.5" height="192.6" as="geometry" />
        </mxCell>
        <mxCell id="dQPvW1LIH_hYdUgcrzJX-12" value="&lt;span style=&quot;font-size: 34px&quot;&gt;&lt;b&gt;Asset&lt;br&gt;Vault&lt;/b&gt;&lt;/span&gt;" style="text;html=1;align=center;verticalAlign=middle;resizable=0;points=[];autosize=1;" parent="dQPvW1LIH_hYdUgcrzJX-34" vertex="1">
          <mxGeometry x="32" width="110" height="50" as="geometry" />
        </mxCell>
        <mxCell id="dQPvW1LIH_hYdUgcrzJX-35" value="" style="group" parent="1" vertex="1" connectable="0">
          <mxGeometry x="1251" y="810" width="181.5" height="264.29999999999995" as="geometry" />
        </mxCell>
        <mxCell id="dQPvW1LIH_hYdUgcrzJX-14" value="" style="verticalLabelPosition=bottom;html=1;verticalAlign=top;strokeWidth=1;dashed=0;shape=mxgraph.aws3d.simpleDb2;fillColor=#ECECEC;strokeColor=#5E5E5E;aspect=fixed;rounded=1;shadow=0;comic=0;fontSize=12" parent="dQPvW1LIH_hYdUgcrzJX-35" vertex="1">
          <mxGeometry y="71.70000000000005" width="181.5" height="192.6" as="geometry" />
        </mxCell>
        <mxCell id="dQPvW1LIH_hYdUgcrzJX-22" value="&lt;font style=&quot;font-size: 34px&quot;&gt;&lt;b&gt;Template&lt;br&gt;Library&lt;/b&gt;&lt;/font&gt;" style="text;html=1;align=center;verticalAlign=middle;resizable=0;points=[];autosize=1;" parent="dQPvW1LIH_hYdUgcrzJX-35" vertex="1">
          <mxGeometry x="10.75" width="160" height="50" as="geometry" />
        </mxCell>
        <mxCell id="dQPvW1LIH_hYdUgcrzJX-37" value="" style="group" parent="1" vertex="1" connectable="0">
          <mxGeometry x="707" y="550" width="143" height="207" as="geometry" />
        </mxCell>
        <mxCell id="dQPvW1LIH_hYdUgcrzJX-18" value="" style="verticalLabelPosition=bottom;html=1;verticalAlign=top;strokeWidth=1;dashed=0;shape=mxgraph.aws3d.dataCenter;fillColor=#ffffff;strokeColor=#5E5E5E;aspect=fixed;rounded=1;shadow=0;comic=0;fontSize=12" parent="dQPvW1LIH_hYdUgcrzJX-37" vertex="1">
          <mxGeometry y="65" width="123" height="142" as="geometry" />
        </mxCell>
        <mxCell id="dQPvW1LIH_hYdUgcrzJX-19" value="" style="verticalLabelPosition=bottom;html=1;verticalAlign=top;strokeWidth=1;dashed=0;shape=mxgraph.aws3d.application2;fillColor=#86E83A;strokeColor=#B0F373;aspect=fixed;rounded=1;shadow=0;comic=0;fontSize=12" parent="dQPvW1LIH_hYdUgcrzJX-37" vertex="1">
          <mxGeometry x="30.5" y="70" width="62" height="53" as="geometry" />
        </mxCell>
        <mxCell id="dQPvW1LIH_hYdUgcrzJX-23" value="&lt;span style=&quot;font-size: 34px&quot;&gt;&lt;b&gt;DAO 2&lt;br&gt;Contract&lt;/b&gt;&lt;/span&gt;" style="text;html=1;align=center;verticalAlign=middle;resizable=0;points=[];autosize=1;" parent="dQPvW1LIH_hYdUgcrzJX-37" vertex="1">
          <mxGeometry x="-17" y="-10" width="160" height="50" as="geometry" />
        </mxCell>
        <mxCell id="dQPvW1LIH_hYdUgcrzJX-38" value="" style="verticalLabelPosition=bottom;html=1;verticalAlign=top;strokeWidth=1;dashed=0;shape=mxgraph.aws3d.arrowSE;fillColor=#000000;aspect=fixed;rounded=1;shadow=0;comic=0;fontFamily=Verdana;fontSize=12;direction=west;" parent="1" vertex="1">
          <mxGeometry x="522" y="1184" width="134" height="76" as="geometry" />
        </mxCell>
        <mxCell id="dQPvW1LIH_hYdUgcrzJX-40" value="" style="group" parent="1" vertex="1" connectable="0">
          <mxGeometry x="1898" y="750" width="183.67000000000007" height="200" as="geometry" />
        </mxCell>
        <mxCell id="dQPvW1LIH_hYdUgcrzJX-10" value="" style="shape=image;verticalLabelPosition=bottom;labelBackgroundColor=#ffffff;verticalAlign=top;aspect=fixed;imageAspect=0;image=data:image/svg+xml,PHN2ZyB4bWxuczpjYz0iaHR0cDovL2NyZWF0aXZlY29tbW9ucy5vcmcvbnMjIiB4bWxuczpkYz0iaHR0cDovL3B1cmwub3JnL2RjL2VsZW1lbnRzLzEuMS8iIHhtbG5zOmlua3NjYXBlPSJodHRwOi8vd3d3Lmlua3NjYXBlLm9yZy9uYW1lc3BhY2VzL2lua3NjYXBlIiB4bWxuczpyZGY9Imh0dHA6Ly93d3cudzMub3JnLzE5OTkvMDIvMjItcmRmLXN5bnRheC1ucyMiIHhtbG5zOnNvZGlwb2RpPSJodHRwOi8vc29kaXBvZGkuc291cmNlZm9yZ2UubmV0L0RURC9zb2RpcG9kaS0wLmR0ZCIgeG1sbnM6c3ZnPSJodHRwOi8vd3d3LnczLm9yZy8yMDAwL3N2ZyIgeG1sbnM9Imh0dHA6Ly93d3cudzMub3JnLzIwMDAvc3ZnIiB4bWxuczp4bGluaz0iaHR0cDovL3d3dy53My5vcmcvMTk5OS94bGluayIgdmVyc2lvbj0iMS4xIiBpZD0ic3ZnMTUwMTk3IiBpbmtzY2FwZTp2ZXJzaW9uPSIwLjkyLjMgKDI0MDU1NDYsIDIwMTgtMDMtMTEpIiBzb2RpcG9kaTpkb2NuYW1lPSJkZXZlbG9wZXJfMS5zdmciIHg9IjBweCIgeT0iMHB4IiB2aWV3Qm94PSIwIDAgMTM0LjQgODkuNzkiIHN0eWxlPSJlbmFibGUtYmFja2dyb3VuZDpuZXcgMCAwIDEzNC40IDg5Ljc5OyIgeG1sOnNwYWNlPSJwcmVzZXJ2ZSI+JiN4YTs8c29kaXBvZGk6bmFtZWR2aWV3IGJvcmRlcmNvbG9yPSIjNjY2NjY2IiBib3JkZXJvcGFjaXR5PSIxIiBmaXQtbWFyZ2luLWJvdHRvbT0iMCIgZml0LW1hcmdpbi1sZWZ0PSIwIiBmaXQtbWFyZ2luLXJpZ2h0PSIwIiBmaXQtbWFyZ2luLXRvcD0iMCIgZ3JpZHRvbGVyYW5jZT0iMTAiIGd1aWRldG9sZXJhbmNlPSIxMCIgaWQ9Im5hbWVkdmlldzE1MDE5OSIgaW5rc2NhcGU6Y3VycmVudC1sYXllcj0ic3ZnMTUwMTk3IiBpbmtzY2FwZTpjeD0iODkuNTk4MzE2IiBpbmtzY2FwZTpjeT0iNTkuMzI5NTMzIiBpbmtzY2FwZTpwYWdlb3BhY2l0eT0iMCIgaW5rc2NhcGU6cGFnZXNoYWRvdz0iMiIgaW5rc2NhcGU6d2luZG93LWhlaWdodD0iMTAxNyIgaW5rc2NhcGU6d2luZG93LW1heGltaXplZD0iMSIgaW5rc2NhcGU6d2luZG93LXdpZHRoPSIxOTIwIiBpbmtzY2FwZTp3aW5kb3cteD0iLTgiIGlua3NjYXBlOndpbmRvdy15PSItOCIgaW5rc2NhcGU6em9vbT0iNy4wODk5NTA1IiBvYmplY3R0b2xlcmFuY2U9IjEwIiBwYWdlY29sb3I9IiNmZmZmZmYiIHNob3dncmlkPSJmYWxzZSI+JiN4YTsJPC9zb2RpcG9kaTpuYW1lZHZpZXc+JiN4YTs8ZyBpZD0iZzE1MDE5NSIgdHJhbnNmb3JtPSJ0cmFuc2xhdGUoLTEuMzYxNDY5MiwtMC41NjgzKSI+JiN4YTsJPHRpdGxlIGlkPSJ0aXRsZTE1MDAyMCI+UGFnZS0xPC90aXRsZT4mI3hhOwk8ZyBpZD0iZ3JvdXAzODctMSIgdHJhbnNmb3JtPSJ0cmFuc2xhdGUoMS4yNTg1NiwtMS4zNikiPiYjeGE7CQk8dGl0bGUgaWQ9InRpdGxlMTUwMDIyIj5EZXZlbG9wZXIgIzE8L3RpdGxlPiYjeGE7CQk8ZyBpZD0ic2hhcGUzODgtMiIgdHJhbnNmb3JtPSJtYXRyaXgoMSwwLDAsLTEsNjEuOTc3NywxMzEuNjkyKSI+JiN4YTsJCQk8dGl0bGUgaWQ9InRpdGxlMTUwMDI0Ij5wYXRoMjA2LTA8L3RpdGxlPiYjeGE7CQkJPHBhdGggaWQ9InBhdGgxNTAwMjYiIGlua3NjYXBlOmNvbm5lY3Rvci1jdXJ2YXR1cmU9IjAiIHN0eWxlPSJmaWxsOiMwMDcxQkM7IiBkPSJNNTIuMiw1MS4zOWMwLTIuNi0zLjIyLTQuNy03LjE5LTQuN0g3LjE5ICAgICBjLTMuOTcsMC03LjE5LDIuMS03LjE5LDQuN3YzNS42MmMwLDIuNiwzLjIyLDQuNyw3LjE5LDQuN2gzNy44MmMzLjk3LDAsNy4xOS0yLjEsNy4xOS00LjdMNTIuMiw1MS4zOXoiLz4mI3hhOwkJPC9nPiYjeGE7CQk8ZyBpZD0ic2hhcGUzODktNCIgdHJhbnNmb3JtPSJ0cmFuc2xhdGUoODMuMjY2MywtMzguMTQxMykiPiYjeGE7CQkJPHRpdGxlIGlkPSJ0aXRsZTE1MDAyOSI+cGF0aDIxMC00PC90aXRsZT4mI3hhOwkJCTxwYXRoIGlkPSJwYXRoMTUwMDMxIiBpbmtzY2FwZTpjb25uZWN0b3ItY3VydmF0dXJlPSIwIiBzdHlsZT0iZmlsbDojRTVFNUU1OyIgZD0iTTkuNjIsOTEuNzFIMHYtNS45Nmg5LjYyVjkxLjcxeiIvPiYjeGE7CQk8L2c+JiN4YTsJCTxnIGlkPSJzaGFwZTM5MC02IiB0cmFuc2Zvcm09Im1hdHJpeCgxLDAsMCwtMSw4Ny44Njg0LDE0MS42KSI+JiN4YTsJCQk8dGl0bGUgaWQ9InRpdGxlMTUwMDM0Ij5wYXRoMjE0LTk8L3RpdGxlPiYjeGE7CQkJPHBhdGggaWQ9InBhdGgxNTAwMzYiIGlua3NjYXBlOmNvbm5lY3Rvci1jdXJ2YXR1cmU9IjAiIHN0eWxlPSJmaWxsOm5vbmU7IiBkPSJNMCw5MS43MXYtMi42OFY5MS43MXoiLz4mI3hhOwkJCSYjeGE7CQkJCTxwYXRoIGlkPSJwYXRoMTUwMDM4IiBpbmtzY2FwZTpjb25uZWN0b3ItY3VydmF0dXJlPSIwIiBzdHlsZT0iZmlsbDpub25lO3N0cm9rZTojQjJCMkIyO3N0cm9rZS13aWR0aDoyLjA2MDY7c3Ryb2tlLW1pdGVybGltaXQ6MzsiIGQ9IiAgICAgTTAsOTEuNzF2LTIuNjgiLz4mI3hhOwkJPC9nPiYjeGE7CQk8ZyBpZD0ic2hhcGUzOTEtOSIgdHJhbnNmb3JtPSJtYXRyaXgoMSwwLDAsLTEsNDkuMTA0NywxMzcuMzIxKSI+JiN4YTsJCQk8dGl0bGUgaWQ9InRpdGxlMTUwMDQxIj5wYXRoMjE4LTI8L3RpdGxlPiYjeGE7CQkJPHBhdGggaWQ9InBhdGgxNTAwNDMiIGlua3NjYXBlOmNvbm5lY3Rvci1jdXJ2YXR1cmU9IjAiIHN0eWxlPSJmaWxsOiMzOUI1NEE7IiBkPSJNNzMuNCw2MS4wNGMtNC4xMiw4LjI1LTEyLjksMjYuNDgtMTQuNTcsMjcuODggICAgIGMtMS42NiwxLjQtMTAuNDQsMi43OS0xNS40NiwyLjc5YzAsMCwwLjk0LTYuMTgtNC42MS02LjE4Yy01LjU0LDAtNC42LDYuMTgtNC42LDYuMThjLTUuMDIsMC0xMy44LTEuMzktMTUuNDYtMi43OSAgICAgYy0xLjY3LTEuNC0xMC40NS0xOS42My0xNC41OC0yNy44OEMwLDUyLjc5LDUuMjYsNTIuMTksNS4yNiw1Mi4xOWgxNC40M3Y2LjkyYy0yLjEzLDAuNzMtNi43MiwxLjYtNi43MiwxLjYgICAgIGMxLjQsMy4zOSw5LjUyLDE4Ljg5LDkuNTIsMTguODlsMC44Ni0yNi42OGgxNS40MWgxNS40MWwwLjg3LDI2LjY4YzAsMCw4LjEyLTE1LjUsOS41MS0xOC44OWMwLDAtNC41OS0wLjg3LTYuNzItMS42di02LjkyICAgICBoMTQuNDRDNzIuMjcsNTIuMTksNzcuNTMsNTIuNzksNzMuNCw2MS4wNHoiLz4mI3hhOwkJPC9nPiYjeGE7CQk8ZyBpZD0ic2hhcGUzOTItMTEiIHRyYW5zZm9ybT0ibWF0cml4KDEsMCwwLC0xLDgzLjI2NjMsMTI4LjA5MykiPiYjeGE7CQkJPHRpdGxlIGlkPSJ0aXRsZTE1MDA0NiI+cGF0aDIyMi03PC90aXRsZT4mI3hhOwkJCTxwYXRoIGlkPSJwYXRoMTUwMDQ4IiBpbmtzY2FwZTpjb25uZWN0b3ItY3VydmF0dXJlPSIwIiBzdHlsZT0iZmlsbDojRkZEQUEyOyIgZD0iTTkuMiw4MC41NmMwLDAtMC42NS0yLjM1LTQuNi0yLjM1ICAgICBTMCw4MC41NiwwLDgwLjU2djExLjE1aDkuMlY4MC41NnoiLz4mI3hhOwkJPC9nPiYjeGE7CQk8ZyBpZD0ic2hhcGUzOTMtMTMiIHRyYW5zZm9ybT0ibWF0cml4KDEsMCwwLC0xLDc1LjExOTgsMTA1LjIwOCkiPiYjeGE7CQkJPHRpdGxlIGlkPSJ0aXRsZTE1MDA1MSI+cGF0aDIyNi05PC90aXRsZT4mI3hhOwkJCTxwYXRoIGlkPSJwYXRoMTUwMDUzIiBpbmtzY2FwZTpjb25uZWN0b3ItY3VydmF0dXJlPSIwIiBzdHlsZT0iZmlsbDojRkZEQUEyOyIgZD0iTTEyLjc1LDg4LjI4Yy04LjgxLDMuNDMtMTIuNzUsMC0xMi43NSwwICAgICBzMC42OC0xMi4xMSwxLTE0LjU2YzAuNzUtNS44Miw4LjMxLTkuNjksMTEuNzUtOS42OXMxMSwzLjg3LDExLjc1LDkuNjljMC4zMSwyLjQ1LDEsMTQuNTYsMSwxNC41NlMyMS41Niw5MS43MSwxMi43NSw4OC4yOHoiLz4mI3hhOwkJPC9nPiYjeGE7CQk8ZyBpZD0ic2hhcGUzOTQtMTUiIHRyYW5zZm9ybT0ibWF0cml4KDEsMCwwLC0xLDcwLjc0NTEsMTEzLjE5MSkiPiYjeGE7CQkJPHRpdGxlIGlkPSJ0aXRsZTE1MDA1NiI+cGF0aDIzMC01PC90aXRsZT4mI3hhOwkJCTxwYXRoIGlkPSJwYXRoMTUwMDU4IiBpbmtzY2FwZTpjb25uZWN0b3ItY3VydmF0dXJlPSIwIiBzdHlsZT0iZmlsbDojRjdEMTk3OyIgZD0iTTQuNzgsODkuNWMwLDAtMi4yNCwyLjIxLTMuMDMsMC44OSAgICAgQzAsODcuNDUsMy4wNiw4Ni4zNSwzLjI3LDgzLjU3YzAuMTQtMS45OCwxLjQ4LTEuOTcsMi4wMS0wLjk4QzUuODEsODMuNTcsNS41OSw4OC44Myw0Ljc4LDg5LjV6Ii8+JiN4YTsJCTwvZz4mI3hhOwkJPGcgaWQ9InNoYXBlMzk1LTE3IiB0cmFuc2Zvcm09Im1hdHJpeCgxLDAsMCwtMSw5OS4xNzk1LDExMy4xOTEpIj4mI3hhOwkJCTx0aXRsZSBpZD0idGl0bGUxNTAwNjEiPnBhdGgyMzQtMDwvdGl0bGU+JiN4YTsJCQk8cGF0aCBpZD0icGF0aDE1MDA2MyIgaW5rc2NhcGU6Y29ubmVjdG9yLWN1cnZhdHVyZT0iMCIgc3R5bGU9ImZpbGw6I0Y3RDE5NzsiIGQ9Ik0xLjAzLDg5LjVjMCwwLDIuMjQsMi4yMSwzLjAzLDAuODkgICAgIGMxLjc1LTIuOTQtMS4zMS00LjA0LTEuNTEtNi44MmMtMC4xNS0xLjk4LTEuNDktMS45Ny0yLjAyLTAuOThDMCw4My41NywwLjIyLDg4LjgzLDEuMDMsODkuNXoiLz4mI3hhOwkJPC9nPiYjeGE7CQk8ZyBpZD0ic2hhcGUzOTYtMTkiIHRyYW5zZm9ybT0ibWF0cml4KDEsMCwwLC0xLDc0Ljg3NzcsMTE5LjE4OCkiPiYjeGE7CQkJPHRpdGxlIGlkPSJ0aXRsZTE1MDA2NiI+cGF0aDIzOC04PC90aXRsZT4mI3hhOwkJCTxwYXRoIGlkPSJwYXRoMTUwMDY4IiBpbmtzY2FwZTpjb25uZWN0b3ItY3VydmF0dXJlPSIwIiBkPSJNMTIuOTksODIuMzhjLTIuNjQsMC00LDAuNzQtNCwxLjg0czEuNjEsMC40NSw0LDAuNDVzNCwwLjY1LDQtMC40NSAgICAgUzE1LjYzLDgyLjM4LDEyLjk5LDgyLjM4eiBNMjUuMjcsOTEuNzFoLTAuNDljMCwwLDAuNjMtNS4xNC0xMS43OS01LjE0UzEuMjEsOTEuNzEsMS4yMSw5MS43MWgtMC41YzAsMC0wLjcxLTUuODEsMS42NC05LjEzICAgICBjMy4yNS00LjU3LDEwLjY0LTQuNTcsMTAuNjQtNC41N3M3LjM5LDAsMTAuNjQsNC41N0MyNS45OCw4NS45LDI1LjI3LDkxLjcxLDI1LjI3LDkxLjcxeiIvPiYjeGE7CQk8L2c+JiN4YTsJCTxnIGlkPSJzaGFwZTM5Ny0yMSIgdHJhbnNmb3JtPSJtYXRyaXgoMSwwLDAsLTEsNjcuMzUxMSw5My42MzgzKSI+JiN4YTsJCQk8dGl0bGUgaWQ9InRpdGxlMTUwMDcxIj5wYXRoMjQyLTE8L3RpdGxlPiYjeGE7CQkJPHBhdGggaWQ9InBhdGgxNTAwNzMiIGlua3NjYXBlOmNvbm5lY3Rvci1jdXJ2YXR1cmU9IjAiIGQ9Ik0zMi44LDY2LjE3YzAsMC0wLjUyLDMuNjcsMS4yNSw0LjdjMCwwLDMuMTMsMTAuNDIsMC40MywxMy4xNiAgICAgYy0yLjY5LDIuNzQtNi41NCw0LjQ5LTkuNzgsNC44NHMtNi44NCwxLTguNTMsMi44NGMwLDAsMC44NS0yLjM0LDEuOTktMi40OWMwLDAtNy41My0xLjM1LTEyLjM3LDAuM2MwLDAsMS4zNS0zLjY0LDQuMzktNC4yOSAgICAgYzAsMC02LjM5LTEuNS0xMC4xOC0wLjI1YzAsMCwzLjAxLTYuMTYsNy43Ny04LjI3YzAsMCwzLjYxLDEuNjMsNS4zNSwwLjkzYzAsMCwwLjM1LTEtMS4xOS0xLjY0YzAsMCw0LjI0LDAuMTUsNi4wOCwxLjA0ICAgICBjMCwwLDAuMTUtMC42OSwwLjA1LTEuMzRjMCwwLDQuODQsMS4wNyw3LjM0LDIuMzVjMCwwLDIuMDktMS41NiwxLjQtMi4yYzAsMCw1LjA0LTAuMiw2LjEsMC42OSAgICAgQzMyLjksNzYuNTQsMzIuMzIsNjcuNTEsMzIuOCw2Ni4xN3oiLz4mI3hhOwkJPC9nPiYjeGE7CQk8ZyBpZD0ic2hhcGUzOTgtMjMiIHRyYW5zZm9ybT0ibWF0cml4KDEsMCwwLC0xLDcyLjM5MDksMTA2LjQxMykiPiYjeGE7CQkJPHRpdGxlIGlkPSJ0aXRsZTE1MDA3NiI+cGF0aDI0NjwvdGl0bGU+JiN4YTsJCQk8cGF0aCBpZD0icGF0aDE1MDA3OCIgaW5rc2NhcGU6Y29ubmVjdG9yLWN1cnZhdHVyZT0iMCIgZD0iTTMuMTksNzguOTRjMCwwLDAuMTksNC4xMS0yLjAzLDUuMDVjMCwwLTEuMTYsNi4zMy0wLjU2LDcuNzIgICAgIGwyLjQ5LTIuMDdjMCwwLDAuNjktOC45NSwwLjM1LTEwLjdMMy4xOSw3OC45NHoiLz4mI3hhOwkJPC9nPiYjeGE7CQk8ZyBpZD0ic2hhcGUzOTktMjUiIHRyYW5zZm9ybT0ibWF0cml4KDEsMCwwLC0xLDgxLjU0MjEsMTM3LjMyMSkiPiYjeGE7CQkJPHRpdGxlIGlkPSJ0aXRsZTE1MDA4MSI+cGF0aDI1MDwvdGl0bGU+JiN4YTsJCQk8cGF0aCBpZD0icGF0aDE1MDA4MyIgaW5rc2NhcGU6Y29ubmVjdG9yLWN1cnZhdHVyZT0iMCIgc3R5bGU9ImZpbGw6I0YxRjFGMTsiIGQ9Ik02LjMzLDg3LjQzYzAsMC0zLjg1LTAuMDEtNS4wNS0yLjY4ICAgICBjMCwwLTEuMjgsNC44OSwwLjQ0LDYuOTZDMS43Miw5MS43MSwyLjE5LDg3Ljc3LDYuMzMsODcuNDN6Ii8+JiN4YTsJCTwvZz4mI3hhOwkJPGcgaWQ9InNoYXBlNDAwLTI3IiB0cmFuc2Zvcm09Im1hdHJpeCgxLDAsMCwtMSw4Ny44Njg0LDEzNy4zMjEpIj4mI3hhOwkJCTx0aXRsZSBpZD0idGl0bGUxNTAwODYiPnBhdGgyNTQ8L3RpdGxlPiYjeGE7CQkJPHBhdGggaWQ9InBhdGgxNTAwODgiIGlua3NjYXBlOmNvbm5lY3Rvci1jdXJ2YXR1cmU9IjAiIHN0eWxlPSJmaWxsOiNGMUYxRjE7IiBkPSJNMCw4Ny40M2MwLDAsMy44NS0wLjAxLDUuMDUtMi42OCAgICAgYzAsMCwxLjI4LDQuODktMC40NSw2Ljk2QzQuNiw5MS43MSw0LjEzLDg3Ljc3LDAsODcuNDN6Ii8+JiN4YTsJCTwvZz4mI3hhOwkJPGcgaWQ9InNoYXBlNDAxLTI5IiB0cmFuc2Zvcm09Im1hdHJpeCgxLDAsMCwtMSw2Ni4wMDM5LDE1NC43OTEpIj4mI3hhOwkJCTx0aXRsZSBpZD0idGl0bGUxNTAwOTEiPnBhdGgyOTg8L3RpdGxlPiYjeGE7CQkJPHBhdGggaWQ9InBhdGgxNTAwOTMiIGlua3NjYXBlOmNvbm5lY3Rvci1jdXJ2YXR1cmU9IjAiIHN0eWxlPSJmaWxsOiNDQkNCQ0I7IiBkPSJNNDMuMzMsOTAuOTJjLTAuNCwwLjY2LTEuNzMsMC43OS0xLjczLDAuNzkgICAgIEgyMS44NkgyLjEzYzAsMC0xLjMzLTAuMTMtMS43My0wLjc5QzAsOTAuMjUsMC44LDY5LjA5LDAuOCw2OS4wOWgyMS4wNmgyMS4wN0M0Mi45Myw2OS4wOSw0My43Myw5MC4yNSw0My4zMyw5MC45MnoiLz4mI3hhOwkJPC9nPiYjeGE7CQk8ZyBpZD0ic2hhcGU0MDItMzEiIHRyYW5zZm9ybT0ibWF0cml4KDEsMCwwLC0xLDY2LjAwMzksMTU1LjE4MikiPiYjeGE7CQkJPHRpdGxlIGlkPSJ0aXRsZTE1MDA5NiI+cGF0aDMwMjwvdGl0bGU+JiN4YTsJCQk8cGF0aCBpZD0icGF0aDE1MDA5OCIgaW5rc2NhcGU6Y29ubmVjdG9yLWN1cnZhdHVyZT0iMCIgc3R5bGU9ImZpbGw6I0U1RTVFNTsiIGQ9Ik00My4zMyw5MC45MmMtMC40LDAuNjYtMS43MywwLjc5LTEuNzMsMC43OSAgICAgSDIxLjg2SDIuMTNjMCwwLTEuMzMtMC4xMy0xLjczLTAuNzlDMCw5MC4yNSwwLjgsNjkuMDksMC44LDY5LjA5aDIxLjA2aDIxLjA3QzQyLjkzLDY5LjA5LDQzLjczLDkwLjI1LDQzLjMzLDkwLjkyeiIvPiYjeGE7CQk8L2c+JiN4YTsJCTxnIGlkPSJncm91cDQwMy0zMyIgdHJhbnNmb3JtPSJ0cmFuc2xhdGUoODMuODE5MSwtMTIuODg5KSI+JiN4YTsJCQk8dGl0bGUgaWQ9InRpdGxlMTUwMTAxIj5NaWNyb3NvZnQ8L3RpdGxlPiYjeGE7CQkJPGcgaWQ9InNoYXBlNDA0LTM0IiB0cmFuc2Zvcm09InRyYW5zbGF0ZSgwLC00LjI2NTMpIj4mI3hhOwkJCQk8dGl0bGUgaWQ9InRpdGxlMTUwMTAzIj5IVFRQIEFQSSBBcHA8L3RpdGxlPiYjeGE7CQkJCTxwYXRoIGlkPSJwYXRoMTUwMTA1IiBpbmtzY2FwZTpjb25uZWN0b3ItY3VydmF0dXJlPSIwIiBzdHlsZT0iZmlsbDojRjI1MDIyOyIgZD0iTTAsODcuODl2My44MmgzLjg0di0zLjgySDB6Ii8+JiN4YTsJCQk8L2c+JiN4YTsJCQk8ZyBpZD0ic2hhcGU0MDUtMzYiIHRyYW5zZm9ybT0idHJhbnNsYXRlKDQuMjYyOCwtNC4yNjUzKSI+JiN4YTsJCQkJPHRpdGxlIGlkPSJ0aXRsZTE1MDEwOCI+SFRUUCBBUEkgQXBwLjE0NjE8L3RpdGxlPiYjeGE7CQkJCTxwYXRoIGlkPSJwYXRoMTUwMTEwIiBpbmtzY2FwZTpjb25uZWN0b3ItY3VydmF0dXJlPSIwIiBzdHlsZT0iZmlsbDojN0ZCQTAwOyIgZD0iTTAsODcuODl2My44MmgzLjg0di0zLjgySDB6Ii8+JiN4YTsJCQk8L2c+JiN4YTsJCQk8ZyBpZD0ic2hhcGU0MDYtMzgiIHRyYW5zZm9ybT0idHJhbnNsYXRlKDQuMjYyOCkiPiYjeGE7CQkJCTx0aXRsZSBpZD0idGl0bGUxNTAxMTMiPkhUVFAgQVBJIEFwcC4xNDYyPC90aXRsZT4mI3hhOwkJCQk8cGF0aCBpZD0icGF0aDE1MDExNSIgaW5rc2NhcGU6Y29ubmVjdG9yLWN1cnZhdHVyZT0iMCIgc3R5bGU9ImZpbGw6I0ZGQjkwMDsiIGQ9Ik0wLDg3Ljg5djMuODJoMy44NHYtMy44MkgweiIvPiYjeGE7CQkJPC9nPiYjeGE7CQkJPGcgaWQ9InNoYXBlNDA3LTQwIj4mI3hhOwkJCQk8dGl0bGUgaWQ9InRpdGxlMTUwMTE4Ij5IVFRQIEFQSSBBcHAuMTQ2MzwvdGl0bGU+JiN4YTsJCQkJPHBhdGggaWQ9InBhdGgxNTAxMjAiIGlua3NjYXBlOmNvbm5lY3Rvci1jdXJ2YXR1cmU9IjAiIHN0eWxlPSJmaWxsOiMwMEE0RUY7IiBkPSJNMCw4Ny44OXYzLjgyaDMuODR2LTMuODJIMHoiLz4mI3hhOwkJCTwvZz4mI3hhOwkJPC9nPiYjeGE7CQk8ZyBpZD0ic2hhcGU0MDgtNDIiIHRyYW5zZm9ybT0idHJhbnNsYXRlKDc1LjExOTgsLTUxLjU2NzIpIj4mI3hhOwkJCTx0aXRsZSBpZD0idGl0bGUxNTAxMjQiPnBhdGg3OTU8L3RpdGxlPiYjeGE7CQkJPHBhdGggaWQ9InBhdGgxNTAxMjYiIGlua3NjYXBlOmNvbm5lY3Rvci1jdXJ2YXR1cmU9IjAiIGQ9Ik0xMy43Niw5MC40OWgtMi4wM2wwLjUxLDAuOTRsMC41LDAuMjd2MC4wMWgwLjAxbDAsMFY5MS43bDAuNS0wLjI3ICAgICBMMTMuNzYsOTAuNDl6IE0yNS41LDczLjY1bC0xLjc5LDAuMjNsLTAuMi0wLjA3bC0yLjQ0LTAuNDhoLTQuMDNsLTMuNzIsMC42aC0xLjE4bC0zLjcyLTAuNkg0LjRsLTIuNDMsMC40OGwtMC4xOSwwLjA3TDAsNzMuNjUgICAgIHYwLjcybDAuOTYsMC4xM2wwLjczLDMuMzhsMC42MywwLjYzbDEuOTIsMC40N2gzLjI1bDIuODQtMC42NGwxLjQ3LTIuMzVsMC41OS0wLjY3aDAuNjdsMC41OSwwLjY3bDEuNDcsMi4zNWwyLjg0LDAuNjRoMy4yNSAgICAgbDEuOTItMC40N2wwLjYzLTAuNjNsMC43My0zLjM4bDAuOTYtMC4xM0wyNS41LDczLjY1eiBNMTAuNzgsNzUuNDdsLTAuOCwyLjI2bC0yLjY3LDAuNThINC4xOGwtMS40Mi0wLjM3bC0wLjUyLTAuNDVsLTAuMzktMi41ICAgICBsMC40My0wLjUybDIuMDktMC40aDMuOTlsMi40NCwwLjM3TDEwLjc4LDc1LjQ3eiBNMjMuMjUsNzcuNDlsLTAuNTIsMC40NWwtMS40MiwwLjM2aC0zLjE0bC0yLjY2LTAuNTdsLTAuODEtMi4yNXYtMS4wNSAgICAgbDIuNDQtMC4zN2gzLjk4bDIuMDksMC40bDAuNDMsMC41MkwyMy4yNSw3Ny40OXoiLz4mI3hhOwkJPC9nPiYjeGE7CQk8ZyBpZD0ic2hhcGU0MDktNDQiIHRyYW5zZm9ybT0idHJhbnNsYXRlKDAuMDY3NjI4NywtNy4wMjU3MSkiPiYjeGE7CQkJPHRpdGxlIGlkPSJ0aXRsZTE1MDEyOSI+U2hlZXQuNDA5PC90aXRsZT4mI3hhOwkJCTxwYXRoIGlkPSJwYXRoMTUwMTMxIiBpbmtzY2FwZTpjb25uZWN0b3ItY3VydmF0dXJlPSIwIiBzdHlsZT0iZmlsbDojMDA5MjQ1OyIgZD0iTTI4LjY3LDkxLjcxYy0wLjI3LDAtMC41NC0wLjEzLTAuNzQtMC4zMyAgICAgTDAuNDEsNjMuODVjLTAuNDEtMC40LTAuNDEtMS4wOCwwLTEuNDljMC40LTAuNCwxLjA4LTAuNCwxLjQ4LDBsMjcuNTMsMjcuNTNjMC40LDAuNCwwLjQsMS4wOCwwLDEuNDkgICAgIEMyOS4xNSw5MS41MSwyOC44OCw5MS43MSwyOC42Nyw5MS43MXoiLz4mI3hhOwkJPC9nPiYjeGE7CQk8ZyBpZD0ic2hhcGU0MTAtNDYiIHRyYW5zZm9ybT0idHJhbnNsYXRlKDMuOTIyNDYsLTExLjAxNTgpIj4mI3hhOwkJCTx0aXRsZSBpZD0idGl0bGUxNTAxMzQiPlNoZWV0LjQxMDwvdGl0bGU+JiN4YTsJCQk8cGF0aCBpZD0icGF0aDE1MDEzNiIgaW5rc2NhcGU6Y29ubmVjdG9yLWN1cnZhdHVyZT0iMCIgc3R5bGU9ImZpbGw6IzAwOTI0NTsiIGQ9Ik0yOC43NCw5MS43MWMtMC4yNywwLTAuNTQtMC4xMy0wLjc0LTAuMzMgICAgIEwwLjQxLDYzLjkyQzAsNjMuNTEsMCw2Mi44NCwwLjQxLDYyLjQzYzAuNC0wLjQsMS4wOC0wLjQsMS40OCwwbDI3LjYsMjcuNTNjMC40LDAuNCwwLjQsMS4wOCwwLDEuNDggICAgIEMyOS4yOCw5MS42NSwyOS4wMSw5MS43MSwyOC43NCw5MS43MXoiLz4mI3hhOwkJPC9nPiYjeGE7CQk8ZyBpZD0ic2hhcGU0MTEtNDgiIHRyYW5zZm9ybT0idHJhbnNsYXRlKDAsLTM0LjY4NTgpIj4mI3hhOwkJCTx0aXRsZSBpZD0idGl0bGUxNTAxMzkiPlNoZWV0LjQxMTwvdGl0bGU+JiN4YTsJCQk8cGF0aCBpZD0icGF0aDE1MDE0MSIgaW5rc2NhcGU6Y29ubmVjdG9yLWN1cnZhdHVyZT0iMCIgc3R5bGU9ImZpbGw6IzAwOTI0NTsiIGQ9Ik0xLjE1LDkxLjcxYy0wLjI3LDAtMC41NC0wLjEzLTAuNzQtMC4zMyAgICAgQzAsOTAuOTcsMCw5MC4yOSwwLjQxLDg5Ljg5TDI4LDYyLjQzYzAuNC0wLjQsMS4wOC0wLjQsMS40OSwwYzAuNCwwLjQxLDAuNCwxLjA4LDAsMS40OUwxLjk2LDkxLjQ0ICAgICBDMS42OSw5MS43MSwxLjQyLDkxLjcxLDEuMTUsOTEuNzF6Ii8+JiN4YTsJCTwvZz4mI3hhOwkJPGcgaWQ9InNoYXBlNDEyLTUwIiB0cmFuc2Zvcm09InRyYW5zbGF0ZSgzLjkyMjQ2LC0zMC42MjgxKSI+JiN4YTsJCQk8dGl0bGUgaWQ9InRpdGxlMTUwMTQ0Ij5TaGVldC40MTI8L3RpdGxlPiYjeGE7CQkJPHBhdGggaWQ9InBhdGgxNTAxNDYiIGlua3NjYXBlOmNvbm5lY3Rvci1jdXJ2YXR1cmU9IjAiIHN0eWxlPSJmaWxsOiMwMDkyNDU7IiBkPSJNMS4xNSw5MS43MWMtMC4yNywwLTAuNTQtMC4xMy0wLjc0LTAuMzMgICAgIEMwLDkwLjk3LDAsOTAuMjksMC40MSw4OS44OWwyNy41Mi0yNy41M2MwLjQxLTAuNCwxLjA4LTAuNCwxLjQ5LDBjMC40LDAuNDEsMC40LDEuMDksMCwxLjQ5TDEuODksOTEuMzggICAgIEMxLjY5LDkxLjUxLDEuNDIsOTEuNzEsMS4xNSw5MS43MXoiLz4mI3hhOwkJPC9nPiYjeGE7CQk8ZyBpZD0ic2hhcGU0MTMtNTIiIHRyYW5zZm9ybT0idHJhbnNsYXRlKDI3LjcyNzgsLTYyLjE0MzEpIj4mI3hhOwkJCTx0aXRsZSBpZD0idGl0bGUxNTAxNDkiPlNoZWV0LjQxMzwvdGl0bGU+JiN4YTsJCQk8cGF0aCBpZD0icGF0aDE1MDE1MSIgaW5rc2NhcGU6Y29ubmVjdG9yLWN1cnZhdHVyZT0iMCIgc3R5bGU9ImZpbGw6IzAwOTI0NTsiIGQ9Ik00Ljk0LDkxLjcxSDEuMDFDMC40MSw5MS43MSwwLDkxLjI0LDAsOTAuNyAgICAgYzAtMC42MSwwLjQ3LTEuMDEsMS4wMS0xLjAxaDMuOTNjMC42MSwwLDEuMDEsMC40NywxLjAxLDEuMDFDNS45NSw5MS4xNyw1LjQ4LDkxLjcxLDQuOTQsOTEuNzF6Ii8+JiN4YTsJCTwvZz4mI3hhOwkJPGcgaWQ9InNoYXBlNDE0LTU0IiB0cmFuc2Zvcm09InRyYW5zbGF0ZSgzMS42NTAyLC01OC4yODgyKSI+JiN4YTsJCQk8dGl0bGUgaWQ9InRpdGxlMTUwMTU0Ij5TaGVldC40MTQ8L3RpdGxlPiYjeGE7CQkJPHBhdGggaWQ9InBhdGgxNTAxNTYiIGlua3NjYXBlOmNvbm5lY3Rvci1jdXJ2YXR1cmU9IjAiIHN0eWxlPSJmaWxsOiMwMDkyNDU7IiBkPSJNMS4wMSw5MS43MUMwLjQxLDkxLjcxLDAsOTEuMjQsMCw5MC43di0zLjkyICAgICBjMC0wLjYxLDAuNDctMS4wMiwxLjAxLTEuMDJjMC42MSwwLDEuMDIsMC40OCwxLjAyLDEuMDJ2My45MkMyLjAzLDkxLjI0LDEuNTYsOTEuNzEsMS4wMSw5MS43MXoiLz4mI3hhOwkJPC9nPiYjeGE7CQk8ZyBpZD0ic2hhcGU0MTUtNTYiIHRyYW5zZm9ybT0idHJhbnNsYXRlKDMxLjUxNSwtNjIuMTQzMSkiPiYjeGE7CQkJPHRpdGxlIGlkPSJ0aXRsZTE1MDE1OSI+U2hlZXQuNDE1PC90aXRsZT4mI3hhOwkJCTxwYXRoIGlkPSJwYXRoMTUwMTYxIiBpbmtzY2FwZTpjb25uZWN0b3ItY3VydmF0dXJlPSIwIiBzdHlsZT0iZmlsbDojMDA5MjQ1OyIgZD0iTTEuMTUsOTEuNzFjLTAuMjcsMC0wLjU0LTAuMTMtMC43NC0wLjMzICAgICBDMCw5MC45NywwLDkwLjI5LDAuNDEsODkuODlMNi4yOSw4NGMwLjQxLTAuNCwxLjA4LTAuNCwxLjQ5LDBjMC40LDAuNDEsMC40LDEuMDksMCwxLjQ5bC01Ljg5LDUuODkgICAgIEMxLjY5LDkxLjUxLDEuNDIsOTEuNzEsMS4xNSw5MS43MXoiLz4mI3hhOwkJPC9nPiYjeGE7CQk8ZyBpZD0ic2hhcGU0MTYtNTgiIHRyYW5zZm9ybT0icm90YXRlKC00NSwtMzguNDU3ODUsMS4zNjk0NjMpIj4mI3hhOwkJCTx0aXRsZSBpZD0idGl0bGUxNTAxNjQiPlNoZWV0LjQxNjwvdGl0bGU+JiN4YTsJCQk8Y2lyY2xlIGlkPSJlbGxpcHNlMTUwMTY2IiBzdHlsZT0iZmlsbDojQzlEQTJBOyIgY3g9IjUuNjgiIGN5PSI4Ni4wMyIgcj0iNS42OCIvPiYjeGE7CQk8L2c+JiN4YTsJCTxnIGlkPSJzaGFwZTQxNy02MCIgdHJhbnNmb3JtPSJyb3RhdGUoLTQ0Ljk5NTksLTQwLjIwNDM3MywxNC4yOTA0NDMpIj4mI3hhOwkJCTx0aXRsZSBpZD0idGl0bGUxNTAxNjkiPlNoZWV0LjQxNzwvdGl0bGU+JiN4YTsJCQkmI3hhOwkJCQk8cmVjdCBpZD0icmVjdDE1MDE3MSIgeD0iMCIgeT0iOTAuNSIgdHJhbnNmb3JtPSJtYXRyaXgoLTEgMi4zODc2NDVlLTA2IC0yLjM4NzY0NWUtMDYgLTEgMjguNjA5NSAxODIuMjEyNCkiIHN0eWxlPSJmaWxsOiMwMDkyNDU7IiB3aWR0aD0iMjguNjEiIGhlaWdodD0iMS4yMiIvPiYjeGE7CQk8L2c+JiN4YTsJCTxnIGlkPSJzaGFwZTQxOC02MiIgdHJhbnNmb3JtPSJ0cmFuc2xhdGUoMjkuNzU2NiwtNjIuNDgxMikiPiYjeGE7CQkJPHRpdGxlIGlkPSJ0aXRsZTE1MDE3NCI+U2hlZXQuNDE4PC90aXRsZT4mI3hhOwkJCTxwYXRoIGlkPSJwYXRoMTUwMTc2IiBpbmtzY2FwZTpjb25uZWN0b3ItY3VydmF0dXJlPSIwIiBzdHlsZT0iZmlsbDojMjJCNTczOyIgZD0iTTAsNzcuMzFsNy43MS03LjcxbDE0LjM0LDEyLjExbC05Ljk0LDEwICAgICBMMCw3Ny4zMXoiLz4mI3hhOwkJPC9nPiYjeGE7CQk8ZyBpZD0ic2hhcGU0MTktNjQiIHRyYW5zZm9ybT0idHJhbnNsYXRlKDM3LjYwMTUsLTUxLjk5ODgpIj4mI3hhOwkJCTx0aXRsZSBpZD0idGl0bGUxNTAxNzkiPlNoZWV0LjQxOTwvdGl0bGU+JiN4YTsJCQk8cGF0aCBpZD0icGF0aDE1MDE4MSIgaW5rc2NhcGU6Y29ubmVjdG9yLWN1cnZhdHVyZT0iMCIgc3R5bGU9ImZpbGw6IzIyQjU3MzsiIGQ9Ik0yNC42OCw3MS41Nkw0LjQ2LDkxLjcxTDAsNzQuOTRsNy44NC03LjkxICAgICBMMjQuNjgsNzEuNTZ6Ii8+JiN4YTsJCTwvZz4mI3hhOwkJPGcgaWQ9InNoYXBlNDIwLTY2IiB0cmFuc2Zvcm09InRyYW5zbGF0ZSgxNC44NzgzLC02LjY4NzU3KSI+JiN4YTsJCQk8dGl0bGUgaWQ9InRpdGxlMTUwMTg0Ij5TaGVldC40MjA8L3RpdGxlPiYjeGE7CQkJPHBhdGggaWQ9InBhdGgxNTAxODYiIGlua3NjYXBlOmNvbm5lY3Rvci1jdXJ2YXR1cmU9IjAiIHN0eWxlPSJmaWxsOiMyMkI1NzM7IiBkPSJNMjIuMjUsODYuMTdINS41NUMyLjUsODYuMTcsMCw4OC42NywwLDkxLjcxICAgICBoMjcuODZDMjcuODYsODguNzQsMjUuMzYsODYuMTcsMjIuMjUsODYuMTd6Ii8+JiN4YTsJCTwvZz4mI3hhOwkJPGcgaWQ9InNoYXBlNDIxLTY4IiB0cmFuc2Zvcm09InRyYW5zbGF0ZSgxMy44NjUyKSI+JiN4YTsJCQk8dGl0bGUgaWQ9InRpdGxlMTUwMTg5Ij5TaGVldC40MjE8L3RpdGxlPiYjeGE7CQkJPHJlY3QgaWQ9InJlY3QxNTAxOTEiIHg9IjAiIHk9Ijg0LjIxIiBzdHlsZT0iZmlsbDojMDBBRUVGOyIgd2lkdGg9IjEyMC42NCIgaGVpZ2h0PSI3LjUxIi8+JiN4YTsJCTwvZz4mI3hhOwk8L2c+JiN4YTs8L2c+JiN4YTs8L3N2Zz4=;" parent="dQPvW1LIH_hYdUgcrzJX-40" vertex="1">
          <mxGeometry y="80" width="178.67" height="120" as="geometry" />
        </mxCell>
        <mxCell id="dQPvW1LIH_hYdUgcrzJX-11" value="&lt;span style=&quot;font-size: 34px&quot;&gt;&lt;b&gt;DAO&lt;br&gt;Governor&lt;/b&gt;&lt;/span&gt;" style="text;html=1;align=center;verticalAlign=middle;resizable=0;points=[];autosize=1;" parent="dQPvW1LIH_hYdUgcrzJX-40" vertex="1">
          <mxGeometry x="13.670000000000073" width="170" height="50" as="geometry" />
        </mxCell>
        <mxCell id="dQPvW1LIH_hYdUgcrzJX-41" value="&lt;span style=&quot;font-size: 34px&quot;&gt;&lt;b&gt;Sub DAO&lt;br&gt;Network&lt;/b&gt;&lt;/span&gt;" style="text;html=1;align=center;verticalAlign=middle;resizable=0;points=[];autosize=1;" parent="1" vertex="1">
          <mxGeometry x="775" y="1074.3" width="160" height="50" as="geometry" />
        </mxCell>
        <mxCell id="dQPvW1LIH_hYdUgcrzJX-51" value="" style="verticalLabelPosition=bottom;html=1;verticalAlign=top;strokeWidth=1;dashed=0;shape=mxgraph.aws3d.dashedArrowlessEdge;fillColor=#000000;aspect=fixed;rounded=1;shadow=0;comic=0;fontFamily=Verdana;fontSize=12;fontColor=#000000;flipV=1;" parent="1" vertex="1">
          <mxGeometry x="430" y="1147.75" width="433" height="246.17" as="geometry" />
        </mxCell>
        <mxCell id="dQPvW1LIH_hYdUgcrzJX-31" value="" style="verticalLabelPosition=bottom;html=1;verticalAlign=top;strokeWidth=1;dashed=0;shape=mxgraph.aws3d.arrowSE;fillColor=#000000;aspect=fixed;rounded=1;shadow=0;comic=0;fontFamily=Verdana;fontSize=12" parent="1" vertex="1">
          <mxGeometry x="1070.04" y="1550" width="134" height="76" as="geometry" />
        </mxCell>
        <mxCell id="dQPvW1LIH_hYdUgcrzJX-42" value="" style="verticalLabelPosition=bottom;html=1;verticalAlign=top;strokeWidth=1;dashed=0;shape=mxgraph.aws3d.dashedArrowlessEdge;aspect=fixed;rounded=1;shadow=0;comic=0;fontFamily=Verdana;fontSize=12" parent="1" vertex="1">
          <mxGeometry x="430" y="1389.28" width="439.99" height="250.72" as="geometry" />
        </mxCell>
        <mxCell id="dQPvW1LIH_hYdUgcrzJX-52" value="" style="verticalLabelPosition=bottom;html=1;verticalAlign=top;strokeWidth=1;dashed=0;shape=mxgraph.aws3d.dashedArrowlessEdge;fillColor=#000000;aspect=fixed;rounded=1;shadow=0;comic=0;fontFamily=Verdana;fontSize=12;fontColor=#000000;flipV=1;" parent="1" vertex="1">
          <mxGeometry x="869.99" y="1392.18" width="430.77" height="244.91" as="geometry" />
        </mxCell>
        <mxCell id="dQPvW1LIH_hYdUgcrzJX-50" value="" style="verticalLabelPosition=bottom;html=1;verticalAlign=top;strokeWidth=1;dashed=0;shape=mxgraph.aws3d.dashedArrowlessEdge;aspect=fixed;rounded=1;shadow=0;comic=0;fontFamily=Verdana;fontSize=12" parent="1" vertex="1">
          <mxGeometry x="863.51" y="1148.48" width="423.84" height="241.52" as="geometry" />
        </mxCell>
        <mxCell id="dQPvW1LIH_hYdUgcrzJX-53" value="" style="group" parent="1" vertex="1" connectable="0">
          <mxGeometry x="610" y="1150" width="482.5" height="390" as="geometry" />
        </mxCell>
        <mxCell id="1a8abee3a6cfdf20-4" value="" style="verticalLabelPosition=bottom;html=1;verticalAlign=top;strokeWidth=1;dashed=0;shape=mxgraph.aws3d.dynamoDb;fillColor=#ECECEC;strokeColor=#5E5E5E;aspect=fixed;rounded=1;shadow=0;comic=0;fontSize=12" parent="dQPvW1LIH_hYdUgcrzJX-53" vertex="1">
          <mxGeometry x="154" width="181.5" height="210" as="geometry" />
        </mxCell>
        <mxCell id="dQPvW1LIH_hYdUgcrzJX-27" value="" style="verticalLabelPosition=bottom;html=1;verticalAlign=top;strokeWidth=1;dashed=0;shape=mxgraph.aws3d.dynamoDb;fillColor=#ECECEC;strokeColor=#5E5E5E;aspect=fixed;rounded=1;shadow=0;comic=0;fontSize=12" parent="dQPvW1LIH_hYdUgcrzJX-53" vertex="1">
          <mxGeometry y="90" width="181.5" height="210" as="geometry" />
        </mxCell>
        <mxCell id="dQPvW1LIH_hYdUgcrzJX-28" value="" style="verticalLabelPosition=bottom;html=1;verticalAlign=top;strokeWidth=1;dashed=0;shape=mxgraph.aws3d.dynamoDb;fillColor=#ECECEC;strokeColor=#5E5E5E;aspect=fixed;rounded=1;shadow=0;comic=0;fontSize=12" parent="dQPvW1LIH_hYdUgcrzJX-53" vertex="1">
          <mxGeometry x="301" y="90" width="181.5" height="210" as="geometry" />
        </mxCell>
        <mxCell id="dQPvW1LIH_hYdUgcrzJX-29" value="" style="verticalLabelPosition=bottom;html=1;verticalAlign=top;strokeWidth=1;dashed=0;shape=mxgraph.aws3d.dynamoDb;fillColor=#ECECEC;strokeColor=#5E5E5E;aspect=fixed;rounded=1;shadow=0;comic=0;fontSize=12" parent="dQPvW1LIH_hYdUgcrzJX-53" vertex="1">
          <mxGeometry x="149.99999999999997" y="180" width="181.5" height="210" as="geometry" />
        </mxCell>
        <mxCell id="dQPvW1LIH_hYdUgcrzJX-54" value="&lt;span style=&quot;font-size: 34px&quot;&gt;&lt;b&gt;External&lt;br&gt;Data&lt;/b&gt;&lt;/span&gt;" style="text;html=1;align=center;verticalAlign=middle;resizable=0;points=[];autosize=1;" parent="1" vertex="1">
          <mxGeometry x="371" y="975" width="150" height="50" as="geometry" />
        </mxCell>
        <mxCell id="dQPvW1LIH_hYdUgcrzJX-58" value="" style="verticalLabelPosition=bottom;html=1;verticalAlign=top;strokeWidth=1;dashed=0;shape=mxgraph.aws3d.arrowSW;fillColor=#000000;aspect=fixed;rounded=1;shadow=0;comic=0;fontFamily=Verdana;fontSize=12;rotation=30;" parent="1" vertex="1">
          <mxGeometry x="1592.1" y="478.16" width="141.81" height="80" as="geometry" />
        </mxCell>
        <mxCell id="dQPvW1LIH_hYdUgcrzJX-59" value="" style="verticalLabelPosition=bottom;html=1;verticalAlign=top;strokeWidth=1;dashed=0;shape=mxgraph.aws3d.arrowSW;fillColor=#000000;aspect=fixed;rounded=1;shadow=0;comic=0;fontFamily=Verdana;fontSize=12" parent="1" vertex="1">
          <mxGeometry x="840" y="508" width="238" height="134.26" as="geometry" />
        </mxCell>
        <mxCell id="dQPvW1LIH_hYdUgcrzJX-60" value="" style="verticalLabelPosition=bottom;html=1;verticalAlign=top;strokeWidth=1;dashed=0;shape=mxgraph.aws3d.arrowSW;fillColor=#000000;aspect=fixed;rounded=1;shadow=0;comic=0;fontFamily=Verdana;fontSize=12" parent="1" vertex="1">
          <mxGeometry x="1148.27" y="724" width="95.73" height="54" as="geometry" />
        </mxCell>
        <mxCell id="dQPvW1LIH_hYdUgcrzJX-61" value="" style="verticalLabelPosition=bottom;html=1;verticalAlign=top;strokeWidth=1;dashed=0;shape=mxgraph.aws3d.arrowSW;fillColor=#000000;aspect=fixed;rounded=1;shadow=0;comic=0;fontFamily=Verdana;fontSize=12" parent="1" vertex="1">
          <mxGeometry x="1344.77" y="600.8" width="95.73" height="54" as="geometry" />
        </mxCell>
        <mxCell id="dQPvW1LIH_hYdUgcrzJX-62" value="&lt;span style=&quot;font-size: 34px&quot;&gt;&lt;b&gt;IPFS&lt;br&gt;Network&lt;/b&gt;&lt;/span&gt;" style="text;html=1;align=center;verticalAlign=middle;resizable=0;points=[];autosize=1;" parent="1" vertex="1">
          <mxGeometry x="1242" y="1489.6399999999999" width="150" height="50" as="geometry" />
        </mxCell>
        <mxCell id="dQPvW1LIH_hYdUgcrzJX-63" value="" style="verticalLabelPosition=bottom;html=1;verticalAlign=top;strokeWidth=1;dashed=0;shape=mxgraph.aws3d.secureConnection;fillColor=#000000;strokeColor=#ffffff;aspect=fixed;rounded=1;shadow=0;comic=0;fontSize=12" parent="1" vertex="1">
          <mxGeometry x="1765.6" y="1242" width="56.99999999999999" height="34" as="geometry" />
        </mxCell>
        <mxCell id="dQPvW1LIH_hYdUgcrzJX-64" value="" style="verticalLabelPosition=bottom;html=1;verticalAlign=top;strokeWidth=1;dashed=0;shape=mxgraph.aws3d.secureConnection;fillColor=#000000;strokeColor=#ffffff;aspect=fixed;rounded=1;shadow=0;comic=0;fontSize=12" parent="1" vertex="1">
          <mxGeometry x="1473" y="1076.75" width="56.99999999999999" height="34" as="geometry" />
        </mxCell>
        <mxCell id="dQPvW1LIH_hYdUgcrzJX-65" value="" style="shape=image;verticalLabelPosition=bottom;labelBackgroundColor=#ffffff;verticalAlign=top;aspect=fixed;imageAspect=0;image=data:image/svg+xml,PHN2ZyB4bWxuczpjYz0iaHR0cDovL2NyZWF0aXZlY29tbW9ucy5vcmcvbnMjIiB4bWxuczpkYz0iaHR0cDovL3B1cmwub3JnL2RjL2VsZW1lbnRzLzEuMS8iIHhtbG5zOmlua3NjYXBlPSJodHRwOi8vd3d3Lmlua3NjYXBlLm9yZy9uYW1lc3BhY2VzL2lua3NjYXBlIiB4bWxuczpyZGY9Imh0dHA6Ly93d3cudzMub3JnLzE5OTkvMDIvMjItcmRmLXN5bnRheC1ucyMiIHhtbG5zOnNvZGlwb2RpPSJodHRwOi8vc29kaXBvZGkuc291cmNlZm9yZ2UubmV0L0RURC9zb2RpcG9kaS0wLmR0ZCIgeG1sbnM6c3ZnPSJodHRwOi8vd3d3LnczLm9yZy8yMDAwL3N2ZyIgeG1sbnM9Imh0dHA6Ly93d3cudzMub3JnLzIwMDAvc3ZnIiB4bWxuczp4bGluaz0iaHR0cDovL3d3dy53My5vcmcvMTk5OS94bGluayIgdmVyc2lvbj0iMS4xIiBpZD0ic3ZnNzAwNTIiIGlua3NjYXBlOnZlcnNpb249IjAuOTIuMyAoMjQwNTU0NiwgMjAxOC0wMy0xMSkiIHNvZGlwb2RpOmRvY25hbWU9ImNvc3RfMS5zdmciIHg9IjBweCIgeT0iMHB4IiB2aWV3Qm94PSIwIDAgMjcuNDUgMjcuNDUiIHN0eWxlPSJlbmFibGUtYmFja2dyb3VuZDpuZXcgMCAwIDI3LjQ1IDI3LjQ1OyIgeG1sOnNwYWNlPSJwcmVzZXJ2ZSI+JiN4YTs8c29kaXBvZGk6bmFtZWR2aWV3IGJvcmRlcmNvbG9yPSIjNjY2NjY2IiBib3JkZXJvcGFjaXR5PSIxIiBmaXQtbWFyZ2luLWJvdHRvbT0iMCIgZml0LW1hcmdpbi1sZWZ0PSIwIiBmaXQtbWFyZ2luLXJpZ2h0PSIwIiBmaXQtbWFyZ2luLXRvcD0iMCIgZ3JpZHRvbGVyYW5jZT0iMTAiIGd1aWRldG9sZXJhbmNlPSIxMCIgaWQ9Im5hbWVkdmlldzcwMDU0IiBpbmtzY2FwZTpjdXJyZW50LWxheWVyPSJzdmc3MDA1MiIgaW5rc2NhcGU6Y3g9IjE4LjI5ODE2NyIgaW5rc2NhcGU6Y3k9IjE4LjMwMjk2OCIgaW5rc2NhcGU6cGFnZW9wYWNpdHk9IjAiIGlua3NjYXBlOnBhZ2VzaGFkb3c9IjIiIGlua3NjYXBlOndpbmRvdy1oZWlnaHQ9IjEwMTciIGlua3NjYXBlOndpbmRvdy1tYXhpbWl6ZWQ9IjEiIGlua3NjYXBlOndpbmRvdy13aWR0aD0iMTkyMCIgaW5rc2NhcGU6d2luZG93LXg9Ii04IiBpbmtzY2FwZTp3aW5kb3cteT0iLTgiIGlua3NjYXBlOnpvb209IjIwLjg3MDU0OCIgb2JqZWN0dG9sZXJhbmNlPSIxMCIgcGFnZWNvbG9yPSIjZmZmZmZmIiBzaG93Z3JpZD0iZmFsc2UiPiYjeGE7CTwvc29kaXBvZGk6bmFtZWR2aWV3PiYjeGE7PGcgaWQ9Imc3MDA1MCIgdHJhbnNmb3JtPSJ0cmFuc2xhdGUoLTEuODU0NTUsLTEuODU1NDUpIj4mI3hhOwk8dGl0bGUgaWQ9InRpdGxlNzAwMzUiPlBhZ2UtMTwvdGl0bGU+JiN4YTsJPGcgaWQ9Imdyb3VwNTU5NC0xIiB0cmFuc2Zvcm09InRyYW5zbGF0ZSgxLjg1NDU1LC0xLjg1NDU1KSI+JiN4YTsJCTx0aXRsZSBpZD0idGl0bGU3MDAzNyI+Q29zdCAjMTwvdGl0bGU+JiN4YTsJCTxnIGlkPSJzaGFwZTU1OTUtMiI+JiN4YTsJCQk8dGl0bGUgaWQ9InRpdGxlNzAwMzkiPlNoZWV0LjU1OTU8L3RpdGxlPiYjeGE7CQkJPHBhdGggaWQ9InBhdGg3MDA0MSIgaW5rc2NhcGU6Y29ubmVjdG9yLWN1cnZhdHVyZT0iMCIgc3R5bGU9ImZpbGw6I0YxOTAyMTsiIGQ9Ik0yNy40NSwxNy40M2MwLDcuNjEtNi4xMiwxMy43My0xMy43MywxMy43MyAgICAgQzYuMTIsMzEuMTYsMCwyNS4wNCwwLDE3LjQzQzAsOS44Myw2LjEyLDMuNzEsMTMuNzIsMy43MUMyMS4zMywzLjcxLDI3LjQ1LDkuODMsMjcuNDUsMTcuNDN6Ii8+JiN4YTsJCTwvZz4mI3hhOwkJPGcgaWQ9InNoYXBlNTU5Ni00IiB0cmFuc2Zvcm09InRyYW5zbGF0ZSg5LjA4NzI3LC01LjU2MzY0KSI+JiN4YTsJCQk8dGl0bGUgaWQ9InRpdGxlNzAwNDQiPlNoZWV0LjU1OTY8L3RpdGxlPiYjeGE7CQkJPHBhdGggaWQ9InBhdGg3MDA0NiIgaW5rc2NhcGU6Y29ubmVjdG9yLWN1cnZhdHVyZT0iMCIgc3R5bGU9ImZpbGw6I0ZGRkZGRjsiIGQ9Ik05LjI3LDI1LjQxYzAtMi4wNC0xLjQ4LTIuOTctMi45Ni0zLjUzICAgICBjLTEuNDktMC41NS0yLjc5LTAuNzQtMi43OS0xLjQ4czAuNTYtMS4xMSwxLjMtMS4xMWMwLjkzLDAsMS40OSwwLjM3LDIuMjMsMC43NGMwLjE4LDAuMTgsMC41NSwwLjE4LDAuNzQsMGwwLjkzLTEuMTEgICAgIGMwLjE4LTAuMTksMC4xOC0wLjU2LTAuMTktMC43NWMtMC45My0wLjU1LTEuNjctMC45Mi0yLjYtMS4xMXYtMS42N2MwLTAuMTgtMC4xOC0wLjU1LTAuNTUtMC41NWgtMS4zICAgICBjLTAuMTksMC0wLjU2LDAuMTgtMC41NiwwLjU1djEuNjdjLTEuNjcsMC4zNy0yLjc4LDEuNDktMi43OCwzLjM0czEuNDksMi43OCwyLjc4LDMuMTVjMS40OSwwLjU2LDIuNzksMC43NCwyLjc5LDEuODYgICAgIGMwLDAuNzQtMC41NiwxLjMtMS44NiwxLjNjLTAuOTMsMC0xLjg1LTAuNTYtMi40MS0xLjEyYy0wLjE5LTAuMTgtMC41Ni0wLjE4LTAuNzQsMGwtMS4xMSwxLjEyQzAsMjYuODksMCwyNy4wOCwwLjE5LDI3LjI2ICAgICBjMC45MiwwLjkzLDIuMDQsMS40OSwzLjMzLDEuNjd2MS42N2MwLDAuMTksMC4xOSwwLjU2LDAuNTYsMC41NmgxLjNjMC4xOCwwLDAuNTUtMC4xOSwwLjU1LTAuNTZ2LTEuNjcgICAgIEM3LjYsMjguNzUsOS4yNywyNy40NSw5LjI3LDI1LjQxeiIvPiYjeGE7CQk8L2c+JiN4YTsJPC9nPiYjeGE7PC9nPiYjeGE7PC9zdmc+;" parent="1" vertex="1">
          <mxGeometry x="1820" y="960" width="47" height="47" as="geometry" />
        </mxCell>
        <mxCell id="dQPvW1LIH_hYdUgcrzJX-66" value="" style="shape=image;verticalLabelPosition=bottom;labelBackgroundColor=#ffffff;verticalAlign=top;aspect=fixed;imageAspect=0;image=data:image/svg+xml,PHN2ZyB4bWxuczpjYz0iaHR0cDovL2NyZWF0aXZlY29tbW9ucy5vcmcvbnMjIiB4bWxuczpkYz0iaHR0cDovL3B1cmwub3JnL2RjL2VsZW1lbnRzLzEuMS8iIHhtbG5zOmlua3NjYXBlPSJodHRwOi8vd3d3Lmlua3NjYXBlLm9yZy9uYW1lc3BhY2VzL2lua3NjYXBlIiB4bWxuczpyZGY9Imh0dHA6Ly93d3cudzMub3JnLzE5OTkvMDIvMjItcmRmLXN5bnRheC1ucyMiIHhtbG5zOnNvZGlwb2RpPSJodHRwOi8vc29kaXBvZGkuc291cmNlZm9yZ2UubmV0L0RURC9zb2RpcG9kaS0wLmR0ZCIgeG1sbnM6c3ZnPSJodHRwOi8vd3d3LnczLm9yZy8yMDAwL3N2ZyIgeG1sbnM9Imh0dHA6Ly93d3cudzMub3JnLzIwMDAvc3ZnIiB4bWxuczp4bGluaz0iaHR0cDovL3d3dy53My5vcmcvMTk5OS94bGluayIgdmVyc2lvbj0iMS4xIiBpZD0ic3ZnNzAwNTIiIGlua3NjYXBlOnZlcnNpb249IjAuOTIuMyAoMjQwNTU0NiwgMjAxOC0wMy0xMSkiIHNvZGlwb2RpOmRvY25hbWU9ImNvc3RfMS5zdmciIHg9IjBweCIgeT0iMHB4IiB2aWV3Qm94PSIwIDAgMjcuNDUgMjcuNDUiIHN0eWxlPSJlbmFibGUtYmFja2dyb3VuZDpuZXcgMCAwIDI3LjQ1IDI3LjQ1OyIgeG1sOnNwYWNlPSJwcmVzZXJ2ZSI+JiN4YTs8c29kaXBvZGk6bmFtZWR2aWV3IGJvcmRlcmNvbG9yPSIjNjY2NjY2IiBib3JkZXJvcGFjaXR5PSIxIiBmaXQtbWFyZ2luLWJvdHRvbT0iMCIgZml0LW1hcmdpbi1sZWZ0PSIwIiBmaXQtbWFyZ2luLXJpZ2h0PSIwIiBmaXQtbWFyZ2luLXRvcD0iMCIgZ3JpZHRvbGVyYW5jZT0iMTAiIGd1aWRldG9sZXJhbmNlPSIxMCIgaWQ9Im5hbWVkdmlldzcwMDU0IiBpbmtzY2FwZTpjdXJyZW50LWxheWVyPSJzdmc3MDA1MiIgaW5rc2NhcGU6Y3g9IjE4LjI5ODE2NyIgaW5rc2NhcGU6Y3k9IjE4LjMwMjk2OCIgaW5rc2NhcGU6cGFnZW9wYWNpdHk9IjAiIGlua3NjYXBlOnBhZ2VzaGFkb3c9IjIiIGlua3NjYXBlOndpbmRvdy1oZWlnaHQ9IjEwMTciIGlua3NjYXBlOndpbmRvdy1tYXhpbWl6ZWQ9IjEiIGlua3NjYXBlOndpbmRvdy13aWR0aD0iMTkyMCIgaW5rc2NhcGU6d2luZG93LXg9Ii04IiBpbmtzY2FwZTp3aW5kb3cteT0iLTgiIGlua3NjYXBlOnpvb209IjIwLjg3MDU0OCIgb2JqZWN0dG9sZXJhbmNlPSIxMCIgcGFnZWNvbG9yPSIjZmZmZmZmIiBzaG93Z3JpZD0iZmFsc2UiPiYjeGE7CTwvc29kaXBvZGk6bmFtZWR2aWV3PiYjeGE7PGcgaWQ9Imc3MDA1MCIgdHJhbnNmb3JtPSJ0cmFuc2xhdGUoLTEuODU0NTUsLTEuODU1NDUpIj4mI3hhOwk8dGl0bGUgaWQ9InRpdGxlNzAwMzUiPlBhZ2UtMTwvdGl0bGU+JiN4YTsJPGcgaWQ9Imdyb3VwNTU5NC0xIiB0cmFuc2Zvcm09InRyYW5zbGF0ZSgxLjg1NDU1LC0xLjg1NDU1KSI+JiN4YTsJCTx0aXRsZSBpZD0idGl0bGU3MDAzNyI+Q29zdCAjMTwvdGl0bGU+JiN4YTsJCTxnIGlkPSJzaGFwZTU1OTUtMiI+JiN4YTsJCQk8dGl0bGUgaWQ9InRpdGxlNzAwMzkiPlNoZWV0LjU1OTU8L3RpdGxlPiYjeGE7CQkJPHBhdGggaWQ9InBhdGg3MDA0MSIgaW5rc2NhcGU6Y29ubmVjdG9yLWN1cnZhdHVyZT0iMCIgc3R5bGU9ImZpbGw6I0YxOTAyMTsiIGQ9Ik0yNy40NSwxNy40M2MwLDcuNjEtNi4xMiwxMy43My0xMy43MywxMy43MyAgICAgQzYuMTIsMzEuMTYsMCwyNS4wNCwwLDE3LjQzQzAsOS44Myw2LjEyLDMuNzEsMTMuNzIsMy43MUMyMS4zMywzLjcxLDI3LjQ1LDkuODMsMjcuNDUsMTcuNDN6Ii8+JiN4YTsJCTwvZz4mI3hhOwkJPGcgaWQ9InNoYXBlNTU5Ni00IiB0cmFuc2Zvcm09InRyYW5zbGF0ZSg5LjA4NzI3LC01LjU2MzY0KSI+JiN4YTsJCQk8dGl0bGUgaWQ9InRpdGxlNzAwNDQiPlNoZWV0LjU1OTY8L3RpdGxlPiYjeGE7CQkJPHBhdGggaWQ9InBhdGg3MDA0NiIgaW5rc2NhcGU6Y29ubmVjdG9yLWN1cnZhdHVyZT0iMCIgc3R5bGU9ImZpbGw6I0ZGRkZGRjsiIGQ9Ik05LjI3LDI1LjQxYzAtMi4wNC0xLjQ4LTIuOTctMi45Ni0zLjUzICAgICBjLTEuNDktMC41NS0yLjc5LTAuNzQtMi43OS0xLjQ4czAuNTYtMS4xMSwxLjMtMS4xMWMwLjkzLDAsMS40OSwwLjM3LDIuMjMsMC43NGMwLjE4LDAuMTgsMC41NSwwLjE4LDAuNzQsMGwwLjkzLTEuMTEgICAgIGMwLjE4LTAuMTksMC4xOC0wLjU2LTAuMTktMC43NWMtMC45My0wLjU1LTEuNjctMC45Mi0yLjYtMS4xMXYtMS42N2MwLTAuMTgtMC4xOC0wLjU1LTAuNTUtMC41NWgtMS4zICAgICBjLTAuMTksMC0wLjU2LDAuMTgtMC41NiwwLjU1djEuNjdjLTEuNjcsMC4zNy0yLjc4LDEuNDktMi43OCwzLjM0czEuNDksMi43OCwyLjc4LDMuMTVjMS40OSwwLjU2LDIuNzksMC43NCwyLjc5LDEuODYgICAgIGMwLDAuNzQtMC41NiwxLjMtMS44NiwxLjNjLTAuOTMsMC0xLjg1LTAuNTYtMi40MS0xLjEyYy0wLjE5LTAuMTgtMC41Ni0wLjE4LTAuNzQsMGwtMS4xMSwxLjEyQzAsMjYuODksMCwyNy4wOCwwLjE5LDI3LjI2ICAgICBjMC45MiwwLjkzLDIuMDQsMS40OSwzLjMzLDEuNjd2MS42N2MwLDAuMTksMC4xOSwwLjU2LDAuNTYsMC41NmgxLjNjMC4xOCwwLDAuNTUtMC4xOSwwLjU1LTAuNTZ2LTEuNjcgICAgIEM3LjYsMjguNzUsOS4yNywyNy40NSw5LjI3LDI1LjQxeiIvPiYjeGE7CQk8L2c+JiN4YTsJPC9nPiYjeGE7PC9nPiYjeGE7PC9zdmc+;" parent="1" vertex="1">
          <mxGeometry x="1176.14" y="869" width="47" height="47" as="geometry" />
        </mxCell>
        <mxCell id="dQPvW1LIH_hYdUgcrzJX-67" value="" style="shape=image;verticalLabelPosition=bottom;labelBackgroundColor=#ffffff;verticalAlign=top;aspect=fixed;imageAspect=0;image=data:image/svg+xml,PHN2ZyB4bWxuczpjYz0iaHR0cDovL2NyZWF0aXZlY29tbW9ucy5vcmcvbnMjIiB4bWxuczpkYz0iaHR0cDovL3B1cmwub3JnL2RjL2VsZW1lbnRzLzEuMS8iIHhtbG5zOmlua3NjYXBlPSJodHRwOi8vd3d3Lmlua3NjYXBlLm9yZy9uYW1lc3BhY2VzL2lua3NjYXBlIiB4bWxuczpyZGY9Imh0dHA6Ly93d3cudzMub3JnLzE5OTkvMDIvMjItcmRmLXN5bnRheC1ucyMiIHhtbG5zOnNvZGlwb2RpPSJodHRwOi8vc29kaXBvZGkuc291cmNlZm9yZ2UubmV0L0RURC9zb2RpcG9kaS0wLmR0ZCIgeG1sbnM6c3ZnPSJodHRwOi8vd3d3LnczLm9yZy8yMDAwL3N2ZyIgeG1sbnM9Imh0dHA6Ly93d3cudzMub3JnLzIwMDAvc3ZnIiB4bWxuczp4bGluaz0iaHR0cDovL3d3dy53My5vcmcvMTk5OS94bGluayIgdmVyc2lvbj0iMS4xIiBpZD0ic3ZnNzAwNTIiIGlua3NjYXBlOnZlcnNpb249IjAuOTIuMyAoMjQwNTU0NiwgMjAxOC0wMy0xMSkiIHNvZGlwb2RpOmRvY25hbWU9ImNvc3RfMS5zdmciIHg9IjBweCIgeT0iMHB4IiB2aWV3Qm94PSIwIDAgMjcuNDUgMjcuNDUiIHN0eWxlPSJlbmFibGUtYmFja2dyb3VuZDpuZXcgMCAwIDI3LjQ1IDI3LjQ1OyIgeG1sOnNwYWNlPSJwcmVzZXJ2ZSI+JiN4YTs8c29kaXBvZGk6bmFtZWR2aWV3IGJvcmRlcmNvbG9yPSIjNjY2NjY2IiBib3JkZXJvcGFjaXR5PSIxIiBmaXQtbWFyZ2luLWJvdHRvbT0iMCIgZml0LW1hcmdpbi1sZWZ0PSIwIiBmaXQtbWFyZ2luLXJpZ2h0PSIwIiBmaXQtbWFyZ2luLXRvcD0iMCIgZ3JpZHRvbGVyYW5jZT0iMTAiIGd1aWRldG9sZXJhbmNlPSIxMCIgaWQ9Im5hbWVkdmlldzcwMDU0IiBpbmtzY2FwZTpjdXJyZW50LWxheWVyPSJzdmc3MDA1MiIgaW5rc2NhcGU6Y3g9IjE4LjI5ODE2NyIgaW5rc2NhcGU6Y3k9IjE4LjMwMjk2OCIgaW5rc2NhcGU6cGFnZW9wYWNpdHk9IjAiIGlua3NjYXBlOnBhZ2VzaGFkb3c9IjIiIGlua3NjYXBlOndpbmRvdy1oZWlnaHQ9IjEwMTciIGlua3NjYXBlOndpbmRvdy1tYXhpbWl6ZWQ9IjEiIGlua3NjYXBlOndpbmRvdy13aWR0aD0iMTkyMCIgaW5rc2NhcGU6d2luZG93LXg9Ii04IiBpbmtzY2FwZTp3aW5kb3cteT0iLTgiIGlua3NjYXBlOnpvb209IjIwLjg3MDU0OCIgb2JqZWN0dG9sZXJhbmNlPSIxMCIgcGFnZWNvbG9yPSIjZmZmZmZmIiBzaG93Z3JpZD0iZmFsc2UiPiYjeGE7CTwvc29kaXBvZGk6bmFtZWR2aWV3PiYjeGE7PGcgaWQ9Imc3MDA1MCIgdHJhbnNmb3JtPSJ0cmFuc2xhdGUoLTEuODU0NTUsLTEuODU1NDUpIj4mI3hhOwk8dGl0bGUgaWQ9InRpdGxlNzAwMzUiPlBhZ2UtMTwvdGl0bGU+JiN4YTsJPGcgaWQ9Imdyb3VwNTU5NC0xIiB0cmFuc2Zvcm09InRyYW5zbGF0ZSgxLjg1NDU1LC0xLjg1NDU1KSI+JiN4YTsJCTx0aXRsZSBpZD0idGl0bGU3MDAzNyI+Q29zdCAjMTwvdGl0bGU+JiN4YTsJCTxnIGlkPSJzaGFwZTU1OTUtMiI+JiN4YTsJCQk8dGl0bGUgaWQ9InRpdGxlNzAwMzkiPlNoZWV0LjU1OTU8L3RpdGxlPiYjeGE7CQkJPHBhdGggaWQ9InBhdGg3MDA0MSIgaW5rc2NhcGU6Y29ubmVjdG9yLWN1cnZhdHVyZT0iMCIgc3R5bGU9ImZpbGw6I0YxOTAyMTsiIGQ9Ik0yNy40NSwxNy40M2MwLDcuNjEtNi4xMiwxMy43My0xMy43MywxMy43MyAgICAgQzYuMTIsMzEuMTYsMCwyNS4wNCwwLDE3LjQzQzAsOS44Myw2LjEyLDMuNzEsMTMuNzIsMy43MUMyMS4zMywzLjcxLDI3LjQ1LDkuODMsMjcuNDUsMTcuNDN6Ii8+JiN4YTsJCTwvZz4mI3hhOwkJPGcgaWQ9InNoYXBlNTU5Ni00IiB0cmFuc2Zvcm09InRyYW5zbGF0ZSg5LjA4NzI3LC01LjU2MzY0KSI+JiN4YTsJCQk8dGl0bGUgaWQ9InRpdGxlNzAwNDQiPlNoZWV0LjU1OTY8L3RpdGxlPiYjeGE7CQkJPHBhdGggaWQ9InBhdGg3MDA0NiIgaW5rc2NhcGU6Y29ubmVjdG9yLWN1cnZhdHVyZT0iMCIgc3R5bGU9ImZpbGw6I0ZGRkZGRjsiIGQ9Ik05LjI3LDI1LjQxYzAtMi4wNC0xLjQ4LTIuOTctMi45Ni0zLjUzICAgICBjLTEuNDktMC41NS0yLjc5LTAuNzQtMi43OS0xLjQ4czAuNTYtMS4xMSwxLjMtMS4xMWMwLjkzLDAsMS40OSwwLjM3LDIuMjMsMC43NGMwLjE4LDAuMTgsMC41NSwwLjE4LDAuNzQsMGwwLjkzLTEuMTEgICAgIGMwLjE4LTAuMTksMC4xOC0wLjU2LTAuMTktMC43NWMtMC45My0wLjU1LTEuNjctMC45Mi0yLjYtMS4xMXYtMS42N2MwLTAuMTgtMC4xOC0wLjU1LTAuNTUtMC41NWgtMS4zICAgICBjLTAuMTksMC0wLjU2LDAuMTgtMC41NiwwLjU1djEuNjdjLTEuNjcsMC4zNy0yLjc4LDEuNDktMi43OCwzLjM0czEuNDksMi43OCwyLjc4LDMuMTVjMS40OSwwLjU2LDIuNzksMC43NCwyLjc5LDEuODYgICAgIGMwLDAuNzQtMC41NiwxLjMtMS44NiwxLjNjLTAuOTMsMC0xLjg1LTAuNTYtMi40MS0xLjEyYy0wLjE5LTAuMTgtMC41Ni0wLjE4LTAuNzQsMGwtMS4xMSwxLjEyQzAsMjYuODksMCwyNy4wOCwwLjE5LDI3LjI2ICAgICBjMC45MiwwLjkzLDIuMDQsMS40OSwzLjMzLDEuNjd2MS42N2MwLDAuMTksMC4xOSwwLjU2LDAuNTYsMC41NmgxLjNjMC4xOCwwLDAuNTUtMC4xOSwwLjU1LTAuNTZ2LTEuNjcgICAgIEM3LjYsMjguNzUsOS4yNywyNy40NSw5LjI3LDI1LjQxeiIvPiYjeGE7CQk8L2c+JiN4YTsJPC9nPiYjeGE7PC9nPiYjeGE7PC9zdmc+;" parent="1" vertex="1">
          <mxGeometry x="1113.54" y="919.75" width="47" height="47" as="geometry" />
        </mxCell>
        <mxCell id="dQPvW1LIH_hYdUgcrzJX-76" value="" style="shape=image;verticalLabelPosition=bottom;labelBackgroundColor=#ffffff;verticalAlign=top;aspect=fixed;imageAspect=0;image=data:image/svg+xml,PHN2ZyB4bWxuczpjYz0iaHR0cDovL2NyZWF0aXZlY29tbW9ucy5vcmcvbnMjIiB4bWxuczpkYz0iaHR0cDovL3B1cmwub3JnL2RjL2VsZW1lbnRzLzEuMS8iIHhtbG5zOmlua3NjYXBlPSJodHRwOi8vd3d3Lmlua3NjYXBlLm9yZy9uYW1lc3BhY2VzL2lua3NjYXBlIiB4bWxuczpyZGY9Imh0dHA6Ly93d3cudzMub3JnLzE5OTkvMDIvMjItcmRmLXN5bnRheC1ucyMiIHhtbG5zOnNvZGlwb2RpPSJodHRwOi8vc29kaXBvZGkuc291cmNlZm9yZ2UubmV0L0RURC9zb2RpcG9kaS0wLmR0ZCIgeG1sbnM6c3ZnPSJodHRwOi8vd3d3LnczLm9yZy8yMDAwL3N2ZyIgeG1sbnM9Imh0dHA6Ly93d3cudzMub3JnLzIwMDAvc3ZnIiB4bWxuczp4bGluaz0iaHR0cDovL3d3dy53My5vcmcvMTk5OS94bGluayIgdmVyc2lvbj0iMS4xIiBpZD0ic3ZnNzAwNTIiIGlua3NjYXBlOnZlcnNpb249IjAuOTIuMyAoMjQwNTU0NiwgMjAxOC0wMy0xMSkiIHNvZGlwb2RpOmRvY25hbWU9ImNvc3RfMS5zdmciIHg9IjBweCIgeT0iMHB4IiB2aWV3Qm94PSIwIDAgMjcuNDUgMjcuNDUiIHN0eWxlPSJlbmFibGUtYmFja2dyb3VuZDpuZXcgMCAwIDI3LjQ1IDI3LjQ1OyIgeG1sOnNwYWNlPSJwcmVzZXJ2ZSI+JiN4YTs8c29kaXBvZGk6bmFtZWR2aWV3IGJvcmRlcmNvbG9yPSIjNjY2NjY2IiBib3JkZXJvcGFjaXR5PSIxIiBmaXQtbWFyZ2luLWJvdHRvbT0iMCIgZml0LW1hcmdpbi1sZWZ0PSIwIiBmaXQtbWFyZ2luLXJpZ2h0PSIwIiBmaXQtbWFyZ2luLXRvcD0iMCIgZ3JpZHRvbGVyYW5jZT0iMTAiIGd1aWRldG9sZXJhbmNlPSIxMCIgaWQ9Im5hbWVkdmlldzcwMDU0IiBpbmtzY2FwZTpjdXJyZW50LWxheWVyPSJzdmc3MDA1MiIgaW5rc2NhcGU6Y3g9IjE4LjI5ODE2NyIgaW5rc2NhcGU6Y3k9IjE4LjMwMjk2OCIgaW5rc2NhcGU6cGFnZW9wYWNpdHk9IjAiIGlua3NjYXBlOnBhZ2VzaGFkb3c9IjIiIGlua3NjYXBlOndpbmRvdy1oZWlnaHQ9IjEwMTciIGlua3NjYXBlOndpbmRvdy1tYXhpbWl6ZWQ9IjEiIGlua3NjYXBlOndpbmRvdy13aWR0aD0iMTkyMCIgaW5rc2NhcGU6d2luZG93LXg9Ii04IiBpbmtzY2FwZTp3aW5kb3cteT0iLTgiIGlua3NjYXBlOnpvb209IjIwLjg3MDU0OCIgb2JqZWN0dG9sZXJhbmNlPSIxMCIgcGFnZWNvbG9yPSIjZmZmZmZmIiBzaG93Z3JpZD0iZmFsc2UiPiYjeGE7CTwvc29kaXBvZGk6bmFtZWR2aWV3PiYjeGE7PGcgaWQ9Imc3MDA1MCIgdHJhbnNmb3JtPSJ0cmFuc2xhdGUoLTEuODU0NTUsLTEuODU1NDUpIj4mI3hhOwk8dGl0bGUgaWQ9InRpdGxlNzAwMzUiPlBhZ2UtMTwvdGl0bGU+JiN4YTsJPGcgaWQ9Imdyb3VwNTU5NC0xIiB0cmFuc2Zvcm09InRyYW5zbGF0ZSgxLjg1NDU1LC0xLjg1NDU1KSI+JiN4YTsJCTx0aXRsZSBpZD0idGl0bGU3MDAzNyI+Q29zdCAjMTwvdGl0bGU+JiN4YTsJCTxnIGlkPSJzaGFwZTU1OTUtMiI+JiN4YTsJCQk8dGl0bGUgaWQ9InRpdGxlNzAwMzkiPlNoZWV0LjU1OTU8L3RpdGxlPiYjeGE7CQkJPHBhdGggaWQ9InBhdGg3MDA0MSIgaW5rc2NhcGU6Y29ubmVjdG9yLWN1cnZhdHVyZT0iMCIgc3R5bGU9ImZpbGw6I0YxOTAyMTsiIGQ9Ik0yNy40NSwxNy40M2MwLDcuNjEtNi4xMiwxMy43My0xMy43MywxMy43MyAgICAgQzYuMTIsMzEuMTYsMCwyNS4wNCwwLDE3LjQzQzAsOS44Myw2LjEyLDMuNzEsMTMuNzIsMy43MUMyMS4zMywzLjcxLDI3LjQ1LDkuODMsMjcuNDUsMTcuNDN6Ii8+JiN4YTsJCTwvZz4mI3hhOwkJPGcgaWQ9InNoYXBlNTU5Ni00IiB0cmFuc2Zvcm09InRyYW5zbGF0ZSg5LjA4NzI3LC01LjU2MzY0KSI+JiN4YTsJCQk8dGl0bGUgaWQ9InRpdGxlNzAwNDQiPlNoZWV0LjU1OTY8L3RpdGxlPiYjeGE7CQkJPHBhdGggaWQ9InBhdGg3MDA0NiIgaW5rc2NhcGU6Y29ubmVjdG9yLWN1cnZhdHVyZT0iMCIgc3R5bGU9ImZpbGw6I0ZGRkZGRjsiIGQ9Ik05LjI3LDI1LjQxYzAtMi4wNC0xLjQ4LTIuOTctMi45Ni0zLjUzICAgICBjLTEuNDktMC41NS0yLjc5LTAuNzQtMi43OS0xLjQ4czAuNTYtMS4xMSwxLjMtMS4xMWMwLjkzLDAsMS40OSwwLjM3LDIuMjMsMC43NGMwLjE4LDAuMTgsMC41NSwwLjE4LDAuNzQsMGwwLjkzLTEuMTEgICAgIGMwLjE4LTAuMTksMC4xOC0wLjU2LTAuMTktMC43NWMtMC45My0wLjU1LTEuNjctMC45Mi0yLjYtMS4xMXYtMS42N2MwLTAuMTgtMC4xOC0wLjU1LTAuNTUtMC41NWgtMS4zICAgICBjLTAuMTksMC0wLjU2LDAuMTgtMC41NiwwLjU1djEuNjdjLTEuNjcsMC4zNy0yLjc4LDEuNDktMi43OCwzLjM0czEuNDksMi43OCwyLjc4LDMuMTVjMS40OSwwLjU2LDIuNzksMC43NCwyLjc5LDEuODYgICAgIGMwLDAuNzQtMC41NiwxLjMtMS44NiwxLjNjLTAuOTMsMC0xLjg1LTAuNTYtMi40MS0xLjEyYy0wLjE5LTAuMTgtMC41Ni0wLjE4LTAuNzQsMGwtMS4xMSwxLjEyQzAsMjYuODksMCwyNy4wOCwwLjE5LDI3LjI2ICAgICBjMC45MiwwLjkzLDIuMDQsMS40OSwzLjMzLDEuNjd2MS42N2MwLDAuMTksMC4xOSwwLjU2LDAuNTYsMC41NmgxLjNjMC4xOCwwLDAuNTUtMC4xOSwwLjU1LTAuNTZ2LTEuNjcgICAgIEM3LjYsMjguNzUsOS4yNywyNy40NSw5LjI3LDI1LjQxeiIvPiYjeGE7CQk8L2c+JiN4YTsJPC9nPiYjeGE7PC9nPiYjeGE7PC9zdmc+;" parent="1" vertex="1">
          <mxGeometry x="1773" y="1195" width="47" height="47" as="geometry" />
        </mxCell>
        <mxCell id="dQPvW1LIH_hYdUgcrzJX-77" value="" style="shape=image;verticalLabelPosition=bottom;labelBackgroundColor=#ffffff;verticalAlign=top;aspect=fixed;imageAspect=0;image=data:image/svg+xml,PHN2ZyB4bWxuczpjYz0iaHR0cDovL2NyZWF0aXZlY29tbW9ucy5vcmcvbnMjIiB4bWxuczpkYz0iaHR0cDovL3B1cmwub3JnL2RjL2VsZW1lbnRzLzEuMS8iIHhtbG5zOmlua3NjYXBlPSJodHRwOi8vd3d3Lmlua3NjYXBlLm9yZy9uYW1lc3BhY2VzL2lua3NjYXBlIiB4bWxuczpyZGY9Imh0dHA6Ly93d3cudzMub3JnLzE5OTkvMDIvMjItcmRmLXN5bnRheC1ucyMiIHhtbG5zOnNvZGlwb2RpPSJodHRwOi8vc29kaXBvZGkuc291cmNlZm9yZ2UubmV0L0RURC9zb2RpcG9kaS0wLmR0ZCIgeG1sbnM6c3ZnPSJodHRwOi8vd3d3LnczLm9yZy8yMDAwL3N2ZyIgeG1sbnM9Imh0dHA6Ly93d3cudzMub3JnLzIwMDAvc3ZnIiB4bWxuczp4bGluaz0iaHR0cDovL3d3dy53My5vcmcvMTk5OS94bGluayIgdmVyc2lvbj0iMS4xIiBpZD0ic3ZnNzAwNTIiIGlua3NjYXBlOnZlcnNpb249IjAuOTIuMyAoMjQwNTU0NiwgMjAxOC0wMy0xMSkiIHNvZGlwb2RpOmRvY25hbWU9ImNvc3RfMS5zdmciIHg9IjBweCIgeT0iMHB4IiB2aWV3Qm94PSIwIDAgMjcuNDUgMjcuNDUiIHN0eWxlPSJlbmFibGUtYmFja2dyb3VuZDpuZXcgMCAwIDI3LjQ1IDI3LjQ1OyIgeG1sOnNwYWNlPSJwcmVzZXJ2ZSI+JiN4YTs8c29kaXBvZGk6bmFtZWR2aWV3IGJvcmRlcmNvbG9yPSIjNjY2NjY2IiBib3JkZXJvcGFjaXR5PSIxIiBmaXQtbWFyZ2luLWJvdHRvbT0iMCIgZml0LW1hcmdpbi1sZWZ0PSIwIiBmaXQtbWFyZ2luLXJpZ2h0PSIwIiBmaXQtbWFyZ2luLXRvcD0iMCIgZ3JpZHRvbGVyYW5jZT0iMTAiIGd1aWRldG9sZXJhbmNlPSIxMCIgaWQ9Im5hbWVkdmlldzcwMDU0IiBpbmtzY2FwZTpjdXJyZW50LWxheWVyPSJzdmc3MDA1MiIgaW5rc2NhcGU6Y3g9IjE4LjI5ODE2NyIgaW5rc2NhcGU6Y3k9IjE4LjMwMjk2OCIgaW5rc2NhcGU6cGFnZW9wYWNpdHk9IjAiIGlua3NjYXBlOnBhZ2VzaGFkb3c9IjIiIGlua3NjYXBlOndpbmRvdy1oZWlnaHQ9IjEwMTciIGlua3NjYXBlOndpbmRvdy1tYXhpbWl6ZWQ9IjEiIGlua3NjYXBlOndpbmRvdy13aWR0aD0iMTkyMCIgaW5rc2NhcGU6d2luZG93LXg9Ii04IiBpbmtzY2FwZTp3aW5kb3cteT0iLTgiIGlua3NjYXBlOnpvb209IjIwLjg3MDU0OCIgb2JqZWN0dG9sZXJhbmNlPSIxMCIgcGFnZWNvbG9yPSIjZmZmZmZmIiBzaG93Z3JpZD0iZmFsc2UiPiYjeGE7CTwvc29kaXBvZGk6bmFtZWR2aWV3PiYjeGE7PGcgaWQ9Imc3MDA1MCIgdHJhbnNmb3JtPSJ0cmFuc2xhdGUoLTEuODU0NTUsLTEuODU1NDUpIj4mI3hhOwk8dGl0bGUgaWQ9InRpdGxlNzAwMzUiPlBhZ2UtMTwvdGl0bGU+JiN4YTsJPGcgaWQ9Imdyb3VwNTU5NC0xIiB0cmFuc2Zvcm09InRyYW5zbGF0ZSgxLjg1NDU1LC0xLjg1NDU1KSI+JiN4YTsJCTx0aXRsZSBpZD0idGl0bGU3MDAzNyI+Q29zdCAjMTwvdGl0bGU+JiN4YTsJCTxnIGlkPSJzaGFwZTU1OTUtMiI+JiN4YTsJCQk8dGl0bGUgaWQ9InRpdGxlNzAwMzkiPlNoZWV0LjU1OTU8L3RpdGxlPiYjeGE7CQkJPHBhdGggaWQ9InBhdGg3MDA0MSIgaW5rc2NhcGU6Y29ubmVjdG9yLWN1cnZhdHVyZT0iMCIgc3R5bGU9ImZpbGw6I0YxOTAyMTsiIGQ9Ik0yNy40NSwxNy40M2MwLDcuNjEtNi4xMiwxMy43My0xMy43MywxMy43MyAgICAgQzYuMTIsMzEuMTYsMCwyNS4wNCwwLDE3LjQzQzAsOS44Myw2LjEyLDMuNzEsMTMuNzIsMy43MUMyMS4zMywzLjcxLDI3LjQ1LDkuODMsMjcuNDUsMTcuNDN6Ii8+JiN4YTsJCTwvZz4mI3hhOwkJPGcgaWQ9InNoYXBlNTU5Ni00IiB0cmFuc2Zvcm09InRyYW5zbGF0ZSg5LjA4NzI3LC01LjU2MzY0KSI+JiN4YTsJCQk8dGl0bGUgaWQ9InRpdGxlNzAwNDQiPlNoZWV0LjU1OTY8L3RpdGxlPiYjeGE7CQkJPHBhdGggaWQ9InBhdGg3MDA0NiIgaW5rc2NhcGU6Y29ubmVjdG9yLWN1cnZhdHVyZT0iMCIgc3R5bGU9ImZpbGw6I0ZGRkZGRjsiIGQ9Ik05LjI3LDI1LjQxYzAtMi4wNC0xLjQ4LTIuOTctMi45Ni0zLjUzICAgICBjLTEuNDktMC41NS0yLjc5LTAuNzQtMi43OS0xLjQ4czAuNTYtMS4xMSwxLjMtMS4xMWMwLjkzLDAsMS40OSwwLjM3LDIuMjMsMC43NGMwLjE4LDAuMTgsMC41NSwwLjE4LDAuNzQsMGwwLjkzLTEuMTEgICAgIGMwLjE4LTAuMTksMC4xOC0wLjU2LTAuMTktMC43NWMtMC45My0wLjU1LTEuNjctMC45Mi0yLjYtMS4xMXYtMS42N2MwLTAuMTgtMC4xOC0wLjU1LTAuNTUtMC41NWgtMS4zICAgICBjLTAuMTksMC0wLjU2LDAuMTgtMC41NiwwLjU1djEuNjdjLTEuNjcsMC4zNy0yLjc4LDEuNDktMi43OCwzLjM0czEuNDksMi43OCwyLjc4LDMuMTVjMS40OSwwLjU2LDIuNzksMC43NCwyLjc5LDEuODYgICAgIGMwLDAuNzQtMC41NiwxLjMtMS44NiwxLjNjLTAuOTMsMC0xLjg1LTAuNTYtMi40MS0xLjEyYy0wLjE5LTAuMTgtMC41Ni0wLjE4LTAuNzQsMGwtMS4xMSwxLjEyQzAsMjYuODksMCwyNy4wOCwwLjE5LDI3LjI2ICAgICBjMC45MiwwLjkzLDIuMDQsMS40OSwzLjMzLDEuNjd2MS42N2MwLDAuMTksMC4xOSwwLjU2LDAuNTYsMC41NmgxLjNjMC4xOCwwLDAuNTUtMC4xOSwwLjU1LTAuNTZ2LTEuNjcgICAgIEM3LjYsMjguNzUsOS4yNywyNy40NSw5LjI3LDI1LjQxeiIvPiYjeGE7CQk8L2c+JiN4YTsJPC9nPiYjeGE7PC9nPiYjeGE7PC9zdmc+;" parent="1" vertex="1">
          <mxGeometry x="1478" y="1025" width="47" height="47" as="geometry" />
        </mxCell>
        <mxCell id="dQPvW1LIH_hYdUgcrzJX-79" value="" style="group" parent="1" vertex="1" connectable="0">
          <mxGeometry x="1054.04" y="289.99999999999994" width="150" height="274.00000000000006" as="geometry" />
        </mxCell>
        <mxCell id="dQPvW1LIH_hYdUgcrzJX-57" value="" style="shape=image;verticalLabelPosition=bottom;labelBackgroundColor=#ffffff;verticalAlign=top;aspect=fixed;imageAspect=0;image=data:image/svg+xml,PHN2ZyB4bWxuczpjYz0iaHR0cDovL2NyZWF0aXZlY29tbW9ucy5vcmcvbnMjIiB4bWxuczpkYz0iaHR0cDovL3B1cmwub3JnL2RjL2VsZW1lbnRzLzEuMS8iIHhtbG5zOmlua3NjYXBlPSJodHRwOi8vd3d3Lmlua3NjYXBlLm9yZy9uYW1lc3BhY2VzL2lua3NjYXBlIiB4bWxuczpyZGY9Imh0dHA6Ly93d3cudzMub3JnLzE5OTkvMDIvMjItcmRmLXN5bnRheC1ucyMiIHhtbG5zOnNvZGlwb2RpPSJodHRwOi8vc29kaXBvZGkuc291cmNlZm9yZ2UubmV0L0RURC9zb2RpcG9kaS0wLmR0ZCIgeG1sbnM6c3ZnPSJodHRwOi8vd3d3LnczLm9yZy8yMDAwL3N2ZyIgeG1sbnM9Imh0dHA6Ly93d3cudzMub3JnLzIwMDAvc3ZnIiB4bWxuczp4bGluaz0iaHR0cDovL3d3dy53My5vcmcvMTk5OS94bGluayIgdmVyc2lvbj0iMS4xIiBpZD0ic3ZnMTUxMDczIiBpbmtzY2FwZTp2ZXJzaW9uPSIwLjkyLjMgKDI0MDU1NDYsIDIwMTgtMDMtMTEpIiBzb2RpcG9kaTpkb2NuYW1lPSJkZXZlbG9wZXJfMi5zdmciIHg9IjBweCIgeT0iMHB4IiB2aWV3Qm94PSIwIDAgMzEuMDIgNTUuOTEiIHN0eWxlPSJlbmFibGUtYmFja2dyb3VuZDpuZXcgMCAwIDMxLjAyIDU1LjkxOyIgeG1sOnNwYWNlPSJwcmVzZXJ2ZSI+JiN4YTs8c29kaXBvZGk6bmFtZWR2aWV3IGJvcmRlcmNvbG9yPSIjNjY2NjY2IiBib3JkZXJvcGFjaXR5PSIxIiBmaXQtbWFyZ2luLWJvdHRvbT0iMCIgZml0LW1hcmdpbi1sZWZ0PSIwIiBmaXQtbWFyZ2luLXJpZ2h0PSIwIiBmaXQtbWFyZ2luLXRvcD0iMCIgZ3JpZHRvbGVyYW5jZT0iMTAiIGd1aWRldG9sZXJhbmNlPSIxMCIgaWQ9Im5hbWVkdmlldzE1MTA3NSIgaW5rc2NhcGU6Y3VycmVudC1sYXllcj0ic3ZnMTUxMDczIiBpbmtzY2FwZTpjeD0iMjAuNjgwMTYiIGlua3NjYXBlOmN5PSIzNy4yNzI5NDkiIGlua3NjYXBlOnBhZ2VvcGFjaXR5PSIwIiBpbmtzY2FwZTpwYWdlc2hhZG93PSIyIiBpbmtzY2FwZTp3aW5kb3ctaGVpZ2h0PSIxMDE3IiBpbmtzY2FwZTp3aW5kb3ctbWF4aW1pemVkPSIxIiBpbmtzY2FwZTp3aW5kb3ctd2lkdGg9IjE5MjAiIGlua3NjYXBlOndpbmRvdy14PSItOCIgaW5rc2NhcGU6d2luZG93LXk9Ii04IiBpbmtzY2FwZTp6b29tPSI5LjU0MTM4IiBvYmplY3R0b2xlcmFuY2U9IjEwIiBwYWdlY29sb3I9IiNmZmZmZmYiIHNob3dncmlkPSJmYWxzZSI+JiN4YTsJPC9zb2RpcG9kaTpuYW1lZHZpZXc+JiN4YTs8ZyBpZD0iZzE1MTA3MSIgdHJhbnNmb3JtPSJ0cmFuc2xhdGUoLTYuMTIzMDA5MiwtNi4xMTc2NTMyKSI+JiN4YTsJPHRpdGxlIGlkPSJ0aXRsZTE1MDg1MiI+UGFnZS0xPC90aXRsZT4mI3hhOwk8ZyBpZD0iZ3JvdXA0MjItMSIgdHJhbnNmb3JtPSJ0cmFuc2xhdGUoNi4wNjc0NywtNi4xMikiPiYjeGE7CQk8dGl0bGUgaWQ9InRpdGxlMTUwODU0Ij5EZXZlbG9wZXIgIzI8L3RpdGxlPiYjeGE7CQk8ZyBpZD0ic2hhcGU0MjMtMiIgdHJhbnNmb3JtPSJ0cmFuc2xhdGUoMTIuNzgxNCwtMi4yOTQxKSI+JiN4YTsJCQk8dGl0bGUgaWQ9InRpdGxlMTUwODU2Ij5TaGVldC40MjM8L3RpdGxlPiYjeGE7CQkJPHBhdGggaWQ9InBhdGgxNTA4NTgiIGlua3NjYXBlOmNvbm5lY3Rvci1jdXJ2YXR1cmU9IjAiIHN0eWxlPSJmaWxsOiMzODM4Mzg7IiBkPSJNMi4xLDY1LjMzbC0wLjItMS43TDAsNDQuNDJoMTIuNDVsLTEuOSwxOS4yMSAgICAgbC0wLjE5LDEuN2wtMC4yLDEuNzFsMS4xMSwxLjExSDYuNzV2LTIuODJ2LTEuN3YtMTUuOGMwLTAuMzMtMC4yNi0wLjU5LTAuNTktMC41OXMtMC41OSwwLjI2LTAuNTksMC41OXYxNS44djEuN3YyLjgySDEuMDUgICAgIGwxLjExLTEuMTFMMi4xLDY1LjMzeiIvPiYjeGE7CQk8L2c+JiN4YTsJCTxnIGlkPSJzaGFwZTQyNC00IiB0cmFuc2Zvcm09InRyYW5zbGF0ZSgxOS41OTgyLC0wLjUyNDM2NikiPiYjeGE7CQkJPHRpdGxlIGlkPSJ0aXRsZTE1MDg2MSI+U2hlZXQuNDI0PC90aXRsZT4mI3hhOwkJCTxwYXRoIGlkPSJwYXRoMTUwODYzIiBpbmtzY2FwZTpjb25uZWN0b3ItY3VydmF0dXJlPSIwIiBzdHlsZT0iZmlsbDojMUYxRjFGOyIgZD0iTTUuNTcsNjcuNTZjMC0wLjY1LTAuNTItMS4xMS0xLjExLTEuMTEgICAgIGwtMS4xMi0xLjEybDAuNTktNS42M0gwdjguNDVoNS42NHYtMC41OUw1LjU3LDY3LjU2eiIvPiYjeGE7CQk8L2c+JiN4YTsJCTxnIGlkPSJzaGFwZTQyNS02IiB0cmFuc2Zvcm09InRyYW5zbGF0ZSgxOS41MzI2KSI+JiN4YTsJCQk8dGl0bGUgaWQ9InRpdGxlMTUwODY2Ij5TaGVldC40MjU8L3RpdGxlPiYjeGE7CQkJPHBhdGggaWQ9InBhdGgxNTA4NjgiIGlua3NjYXBlOmNvbm5lY3Rvci1jdXJ2YXR1cmU9IjAiIHN0eWxlPSJmaWxsOiMzODM4Mzg7IiBkPSJNNS42NCw2Ny41NnYwLjU5SDIuMjlMMS43LDY3LjU2djAuNTlIMHYtMC41OSAgICAgSDUuNjR6Ii8+JiN4YTsJCTwvZz4mI3hhOwkJPGcgaWQ9InNoYXBlNDI2LTgiIHRyYW5zZm9ybT0idHJhbnNsYXRlKDEyLjcxNTksLTAuNTI0MzY2KSI+JiN4YTsJCQk8dGl0bGUgaWQ9InRpdGxlMTUwODcxIj5TaGVldC40MjY8L3RpdGxlPiYjeGE7CQkJPHBhdGggaWQ9InBhdGgxNTA4NzMiIGlua3NjYXBlOmNvbm5lY3Rvci1jdXJ2YXR1cmU9IjAiIHN0eWxlPSJmaWxsOiMxRjFGMUY7IiBkPSJNMC4wNyw2Ny41NmMwLTAuNjUsMC41Mi0xLjExLDEuMTEtMS4xMSAgICAgbDEuMTEtMS4xMkwxLjcsNTkuN2gzLjk0djguNDVIMHYtMC41OUwwLjA3LDY3LjU2eiIvPiYjeGE7CQk8L2c+JiN4YTsJCTxnIGlkPSJzaGFwZTQyNy0xMCIgdHJhbnNmb3JtPSJ0cmFuc2xhdGUoMTIuNzgxNCkiPiYjeGE7CQkJPHRpdGxlIGlkPSJ0aXRsZTE1MDg3NiI+U2hlZXQuNDI3PC90aXRsZT4mI3hhOwkJCTxwYXRoIGlkPSJwYXRoMTUwODc4IiBpbmtzY2FwZTpjb25uZWN0b3ItY3VydmF0dXJlPSIwIiBzdHlsZT0iZmlsbDojMzgzODM4OyIgZD0iTTAsNjcuNTZ2MC41OWgzLjQxbDAuNTItMC41OXYwLjU5aDEuNzF2LTAuNTkgICAgIEgweiIvPiYjeGE7CQk8L2c+JiN4YTsJCTxnIGlkPSJzaGFwZTQyOC0xMiIgdHJhbnNmb3JtPSJ0cmFuc2xhdGUoMTMuMzA1OCwtNDMuNTIyNCkiPiYjeGE7CQkJPHRpdGxlIGlkPSJ0aXRsZTE1MDg4MSI+U2hlZXQuNDI4PC90aXRsZT4mI3hhOwkJCTxwYXRoIGlkPSJwYXRoMTUwODgzIiBpbmtzY2FwZTpjb25uZWN0b3ItY3VydmF0dXJlPSIwIiBzdHlsZT0iZmlsbDojMzgzODM4OyIgZD0iTTAsNjEuNGMwLTMuMTUsMi41Ni01LjY0LDUuNjQtNS42NCAgICAgczUuNjMsMi41Niw1LjYzLDUuNjR2Ni43NUgwVjYxLjR6Ii8+JiN4YTsJCTwvZz4mI3hhOwkJPGcgaWQ9InNoYXBlNDI5LTE0IiB0cmFuc2Zvcm09InRyYW5zbGF0ZSgxMy44OTU3LC00NC41NzExKSI+JiN4YTsJCQk8dGl0bGUgaWQ9InRpdGxlMTUwODg2Ij5TaGVldC40Mjk8L3RpdGxlPiYjeGE7CQkJPHBhdGggaWQ9InBhdGgxNTA4ODgiIGlua3NjYXBlOmNvbm5lY3Rvci1jdXJ2YXR1cmU9IjAiIHN0eWxlPSJmaWxsOiNCQjkxNjc7IiBkPSJNMCw2My4wNGMyLjgyLDAsNS4xMS0yLjMsNS4xMS01LjExICAgICBjMCwyLjgxLDIuMyw1LjExLDUuMTIsNS4xMWMwLDIuODItMi4zLDUuMTEtNS4xMiw1LjExUzAsNjUuODYsMCw2My4wNHoiLz4mI3hhOwkJPC9nPiYjeGE7CQk8ZyBpZD0ic2hhcGU0MzAtMTYiIHRyYW5zZm9ybT0idHJhbnNsYXRlKDguNjUyMDMsLTMxLjA2ODcpIj4mI3hhOwkJCTx0aXRsZSBpZD0idGl0bGUxNTA4OTEiPlNoZWV0LjQzMDwvdGl0bGU+JiN4YTsJCQk8cGF0aCBpZD0icGF0aDE1MDg5MyIgaW5rc2NhcGU6Y29ubmVjdG9yLWN1cnZhdHVyZT0iMCIgc3R5bGU9ImZpbGw6I0E4QThBODsiIGQ9Ik0xLjg0LDY4LjE1Yy0wLjE0LDAtMC4yNywwLTAuNC0wLjA3ICAgICBDMC41Miw2Ny44OSwwLDY2Ljk3LDAuMiw2Ni4wNWwyLjIzLTkuMDRjMC4xOS0wLjkyLDEuMTEtMS40NCwyLjAzLTEuMjVjMC45MSwwLjIsMS40NCwxLjEyLDEuMjQsMi4wM2wtMi4yMyw5LjA1ICAgICBDMy4zNCw2Ny42MywyLjYyLDY4LjE1LDEuODQsNjguMTV6Ii8+JiN4YTsJCTwvZz4mI3hhOwkJPGcgaWQ9InNoYXBlNDMxLTE4IiB0cmFuc2Zvcm09InRyYW5zbGF0ZSgyNC42MjEzLC0yOS4yNzM1KSI+JiN4YTsJCQk8dGl0bGUgaWQ9InRpdGxlMTUwODk2Ij5TaGVldC40MzE8L3RpdGxlPiYjeGE7CQkJPHBhdGggaWQ9InBhdGgxNTA4OTgiIGlua3NjYXBlOmNvbm5lY3Rvci1jdXJ2YXR1cmU9IjAiIHN0eWxlPSJmaWxsOiNBOEE4QTg7IiBkPSJNMS45Nyw2OC4xNWMtMC4yNywwLTAuNTMtMC4wNy0wLjc5LTAuMiAgICAgQzAuMzMsNjcuNTYsMCw2Ni41MSwwLjM5LDY1LjY2bDIuODItNS42NGMwLjQtMC44NSwxLjQ0LTEuMTgsMi4zLTAuNzhjMC44NSwwLjM5LDEuMTgsMS40NCwwLjc4LDIuMjlsLTIuODIsNS42NCAgICAgQzMuMTUsNjcuODIsMi41Niw2OC4xNSwxLjk3LDY4LjE1eiIvPiYjeGE7CQk8L2c+JiN4YTsJCTxnIGlkPSJzaGFwZTQzMi0yMCIgdHJhbnNmb3JtPSJ0cmFuc2xhdGUoMjIuOTY1OCwtMzUuNTQ1MSkiPiYjeGE7CQkJPHRpdGxlIGlkPSJ0aXRsZTE1MDkwMSI+U2hlZXQuNDMyPC90aXRsZT4mI3hhOwkJCTxwYXRoIGlkPSJwYXRoMTUwOTAzIiBpbmtzY2FwZTpjb25uZWN0b3ItY3VydmF0dXJlPSIwIiBzdHlsZT0iZmlsbDojQThBOEE4OyIgZD0iTTYuMzYsNjguMTVjLTAuNDYsMC0wLjg1LTAuMi0xLjE4LTAuNTIgICAgIEwwLjY2LDYzLjFDMCw2Mi40NSwwLDYxLjQsMC42Niw2MC42OGMwLjY1LTAuNjYsMS43LTAuNjYsMi40MiwwTDcuNiw2NS4yYzAuNjYsMC42NiwwLjY2LDEuNzEsMCwyLjQzICAgICBDNy4yOCw2OC4wMiw2LjgyLDY4LjE1LDYuMzYsNjguMTV6Ii8+JiN4YTsJCTwvZz4mI3hhOwkJPGcgaWQ9InNoYXBlNDMzLTIyIiB0cmFuc2Zvcm09InRyYW5zbGF0ZSgyMC42NDY5LC00OC41Njk0KSI+JiN4YTsJCQk8dGl0bGUgaWQ9InRpdGxlMTUwOTA2Ij5TaGVldC40MzM8L3RpdGxlPiYjeGE7CQkJPHBhdGggaWQ9InBhdGgxNTA5MDgiIGlua3NjYXBlOmNvbm5lY3Rvci1jdXJ2YXR1cmU9IjAiIHN0eWxlPSJmaWxsOiMxRjFGMUY7IiBkPSJNMCw2Ny4wNGMwLTAuMzMsMC4yNi0wLjU5LDAuNTktMC41OSAgICAgczAuNTksMC4yNiwwLjU5LDAuNTl2MC41MmMwLDAuMzMtMC4yNiwwLjU5LTAuNTksMC41OUMwLjI2LDY4LjE1LDAsNjcuODksMCw2Ny41NlY2Ny4wNHoiLz4mI3hhOwkJPC9nPiYjeGE7CQk8ZyBpZD0ic2hhcGU0MzQtMjQiIHRyYW5zZm9ybT0idHJhbnNsYXRlKDE2LjE4OTgsLTQ4LjU2OTQpIj4mI3hhOwkJCTx0aXRsZSBpZD0idGl0bGUxNTA5MTEiPlNoZWV0LjQzNDwvdGl0bGU+JiN4YTsJCQk8cGF0aCBpZD0icGF0aDE1MDkxMyIgaW5rc2NhcGU6Y29ubmVjdG9yLWN1cnZhdHVyZT0iMCIgc3R5bGU9ImZpbGw6IzFGMUYxRjsiIGQ9Ik0wLDY3LjA0YzAtMC4zMywwLjI2LTAuNTksMC41OS0wLjU5ICAgICBzMC41OSwwLjI2LDAuNTksMC41OXYwLjUyYzAsMC4zMy0wLjI2LDAuNTktMC41OSwwLjU5QzAuMjYsNjguMTUsMCw2Ny44OSwwLDY3LjU2VjY3LjA0eiIvPiYjeGE7CQk8L2c+JiN4YTsJCTxnIGlkPSJzaGFwZTQzNS0yNiIgdHJhbnNmb3JtPSJ0cmFuc2xhdGUoMTguMzUyOCwtNDcuOTc5NSkiPiYjeGE7CQkJPHRpdGxlIGlkPSJ0aXRsZTE1MDkxNiI+U2hlZXQuNDM1PC90aXRsZT4mI3hhOwkJCTxwYXRoIGlkPSJwYXRoMTUwOTE4IiBpbmtzY2FwZTpjb25uZWN0b3ItY3VydmF0dXJlPSIwIiBzdHlsZT0iZmlsbDojOTk3NzU4OyIgZD0iTTEuMTgsNjcuNTZjMCwwLjMzLTAuMjYsMC41OS0wLjU5LDAuNTkgICAgIEMwLjI2LDY4LjE1LDAsNjcuODksMCw2Ny41NkgxLjE4eiIvPiYjeGE7CQkJPHBhdGggaWQ9InBhdGgxNTA5MjAiIGlua3NjYXBlOmNvbm5lY3Rvci1jdXJ2YXR1cmU9IjAiIHN0eWxlPSJmaWxsOm5vbmU7IiBkPSJNMS4xOCw2Ny41NmMwLDAuMzMtMC4yNiwwLjU5LTAuNTksMC41OSAgICAgQzAuMjYsNjguMTUsMCw2Ny44OSwwLDY3LjU2Ii8+JiN4YTsJCTwvZz4mI3hhOwkJPGcgaWQ9InNoYXBlNDM2LTI5IiB0cmFuc2Zvcm09InRyYW5zbGF0ZSgxOC4xNTYyLC00Ni4wMTMxKSI+JiN4YTsJCQk8dGl0bGUgaWQ9InRpdGxlMTUwOTIzIj5TaGVldC40MzY8L3RpdGxlPiYjeGE7CQkJPHBhdGggaWQ9InBhdGgxNTA5MjUiIGlua3NjYXBlOmNvbm5lY3Rvci1jdXJ2YXR1cmU9IjAiIHN0eWxlPSJmaWxsOiNGRkZGRkY7IiBkPSJNMS43LDY3LjNjMCwwLjQ2LTAuMzksMC44NS0wLjg1LDAuODUgICAgIFMwLDY3Ljc2LDAsNjcuM0gxLjd6Ii8+JiN4YTsJCQk8cGF0aCBpZD0icGF0aDE1MDkyNyIgaW5rc2NhcGU6Y29ubmVjdG9yLWN1cnZhdHVyZT0iMCIgc3R5bGU9ImZpbGw6bm9uZTsiIGQ9Ik0xLjcsNjcuM2MwLDAuNDYtMC4zOSwwLjg1LTAuODUsMC44NSAgICAgUzAsNjcuNzYsMCw2Ny4zIi8+JiN4YTsJCTwvZz4mI3hhOwkJPGcgaWQ9InNoYXBlNDM3LTMyIiB0cmFuc2Zvcm09InRyYW5zbGF0ZSgxNS41OTk5LC00MC4zNzYyKSI+JiN4YTsJCQk8dGl0bGUgaWQ9InRpdGxlMTUwOTMwIj5TaGVldC40Mzc8L3RpdGxlPiYjeGE7CQkJPHBhdGggaWQ9InBhdGgxNTA5MzIiIGlua3NjYXBlOmNvbm5lY3Rvci1jdXJ2YXR1cmU9IjAiIHN0eWxlPSJmaWxsOiMwMEIyOTQ7IiBkPSJNNi4yMyw2NS4wN2MwLDEuNy0xLjM4LDMuMDgtMy4wOCwzLjA4ICAgICBDMS40NCw2OC4xNSwwLDY2Ljc3LDAsNjUuMDdINi4yM3oiLz4mI3hhOwkJCTxwYXRoIGlkPSJwYXRoMTUwOTM0IiBpbmtzY2FwZTpjb25uZWN0b3ItY3VydmF0dXJlPSIwIiBzdHlsZT0iZmlsbDpub25lOyIgZD0iTTYuMjMsNjUuMDdjMCwxLjctMS4zOCwzLjA4LTMuMDgsMy4wOCAgICAgQzEuNDQsNjguMTUsMCw2Ni43NywwLDY1LjA3Ii8+JiN4YTsJCTwvZz4mI3hhOwkJPGcgaWQ9InNoYXBlNDM4LTM1IiB0cmFuc2Zvcm09InRyYW5zbGF0ZSgxNi4xMjQyLC00MC45MDA1KSI+JiN4YTsJCQk8dGl0bGUgaWQ9InRpdGxlMTUwOTM3Ij5TaGVldC40Mzg8L3RpdGxlPiYjeGE7CQkJPHBhdGggaWQ9InBhdGgxNTA5MzkiIGlua3NjYXBlOmNvbm5lY3Rvci1jdXJ2YXR1cmU9IjAiIHN0eWxlPSJmaWxsOiNCQjkxNjc7IiBkPSJNNS4xMSw2NS41OWMwLDEuMzgtMS4xMSwyLjU2LTIuNTUsMi41NiAgICAgQzEuMTEsNjguMTUsMCw2Ny4wNCwwLDY1LjU5SDUuMTF6Ii8+JiN4YTsJCQk8cGF0aCBpZD0icGF0aDE1MDk0MSIgaW5rc2NhcGU6Y29ubmVjdG9yLWN1cnZhdHVyZT0iMCIgc3R5bGU9ImZpbGw6bm9uZTsiIGQ9Ik01LjExLDY1LjU5YzAsMS4zOC0xLjExLDIuNTYtMi41NSwyLjU2ICAgICBDMS4xMSw2OC4xNSwwLDY3LjA0LDAsNjUuNTkiLz4mI3hhOwkJPC9nPiYjeGE7CQk8ZyBpZD0ic2hhcGU0MzktMzgiIHRyYW5zZm9ybT0idHJhbnNsYXRlKDE4Ljk0MjcsLTIyLjYxMzMpIj4mI3hhOwkJCTx0aXRsZSBpZD0idGl0bGUxNTA5NDQiPlNoZWV0LjQzOTwvdGl0bGU+JiN4YTsJCQk8cGF0aCBpZD0icGF0aDE1MDk0NiIgaW5rc2NhcGU6Y29ubmVjdG9yLWN1cnZhdHVyZT0iMCIgc3R5bGU9ImZpbGw6I0YyRjJGMjsiIGQ9Ik0wLjA3LDY1LjkyYzAsMS4yNSwwLjk4LDIuMjMsMi4yMiwyLjIzaDMuOTQgICAgIHYtMy40MUgwdjEuMThIMC4wN3oiLz4mI3hhOwkJPC9nPiYjeGE7CQk8ZyBpZD0ic2hhcGU0NDAtNDAiIHRyYW5zZm9ybT0icm90YXRlKDE4MCwxMi41OTI5NSw0Ni4zOTIzKSI+JiN4YTsJCQk8dGl0bGUgaWQ9InRpdGxlMTUwOTQ5Ij5TaGVldC40NDA8L3RpdGxlPiYjeGE7CQkJPHJlY3QgaWQ9InJlY3QxNTA5NTEiIHg9IjAiIHk9IjUxLjc2IiBzdHlsZT0iZmlsbDojQThBOEE4OyIgd2lkdGg9IjEyLjQ1IiBoZWlnaHQ9IjE2LjM5Ii8+JiN4YTsJCTwvZz4mI3hhOwkJPGcgaWQ9InNoYXBlNDQxLTQyIiB0cmFuc2Zvcm09InRyYW5zbGF0ZSgxNi43MTQyLC00MS4yMjgzKSI+JiN4YTsJCQk8dGl0bGUgaWQ9InRpdGxlMTUwOTU0Ij5TaGVldC40NDE8L3RpdGxlPiYjeGE7CQkJPHBhdGggaWQ9InBhdGgxNTA5NTYiIGlua3NjYXBlOmNvbm5lY3Rvci1jdXJ2YXR1cmU9IjAiIHN0eWxlPSJmaWxsOiM4M0JFRUM7IiBkPSJNMi4yOSw2OC4xNWwyLjIzLTIuMjNIMEwyLjI5LDY4LjE1eiIvPiYjeGE7CQkJPHBhdGggaWQ9InBhdGgxNTA5NTgiIGlua3NjYXBlOmNvbm5lY3Rvci1jdXJ2YXR1cmU9IjAiIHN0eWxlPSJmaWxsOm5vbmU7IiBkPSJNMi4yOSw2OC4xNWwyLjIzLTIuMjNIMCIvPiYjeGE7CQk8L2c+JiN4YTsJCTxnIGlkPSJzaGFwZTQ0Mi00NSIgdHJhbnNmb3JtPSJ0cmFuc2xhdGUoMTIuODQ3LC0yMi42MTMzKSI+JiN4YTsJCQk8dGl0bGUgaWQ9InRpdGxlMTUwOTYxIj5TaGVldC40NDI8L3RpdGxlPiYjeGE7CQkJPHBhdGggaWQ9InBhdGgxNTA5NjMiIGlua3NjYXBlOmNvbm5lY3Rvci1jdXJ2YXR1cmU9IjAiIHN0eWxlPSJmaWxsOiNGMkYyRjI7IiBkPSJNNi4xNiw2NS45MmMwLDEuMjUtMC45OCwyLjIzLTIuMjMsMi4yM0gwICAgICB2LTMuNDFoNi4yM3YxLjE4SDYuMTZ6Ii8+JiN4YTsJCTwvZz4mI3hhOwkJPGcgaWQ9InNoYXBlNDQzLTQ3IiB0cmFuc2Zvcm09InRyYW5zbGF0ZSgxNy44Mjg0LC00Mi4zNDI1KSI+JiN4YTsJCQk8dGl0bGUgaWQ9InRpdGxlMTUwOTY2Ij5TaGVldC40NDM8L3RpdGxlPiYjeGE7CQkJPHBhdGggaWQ9InBhdGgxNTA5NjgiIGlua3NjYXBlOmNvbm5lY3Rvci1jdXJ2YXR1cmU9IjAiIHN0eWxlPSJmaWxsOiNFNUU1RTU7IiBkPSJNMi4yOSw2Ny4wNGwtMS4xMSwxLjExTDAsNjcuMDRIMi4yOXoiLz4mI3hhOwkJPC9nPiYjeGE7CQk8ZyBpZD0ic2hhcGU0NDQtNDkiIHRyYW5zZm9ybT0icm90YXRlKDE4MCwxMi41OTI5NSw1NC42MDgpIj4mI3hhOwkJCTx0aXRsZSBpZD0idGl0bGUxNTA5NzEiPlNoZWV0LjQ0NDwvdGl0bGU+JiN4YTsJCQk8cmVjdCBpZD0icmVjdDE1MDk3MyIgeD0iMCIgeT0iNjYuNDUiIHN0eWxlPSJmaWxsOiM4M0JFRUM7IiB3aWR0aD0iMTIuNDUiIGhlaWdodD0iMS43Ii8+JiN4YTsJCTwvZz4mI3hhOwkJPGcgaWQ9InNoYXBlNDQ1LTUxIiB0cmFuc2Zvcm09InJvdGF0ZSgtMjYuNTY1MSwtNzkuOTY4OTI0LDUuNTY2MjkxNikiPiYjeGE7CQkJPHRpdGxlIGlkPSJ0aXRsZTE1MDk3NiI+U2hlZXQuNDQ1PC90aXRsZT4mI3hhOwkJCSYjeGE7CQkJCTxyZWN0IGlkPSJyZWN0MTUwOTc4IiB4PSIwIiB5PSI2Ni45MSIgdHJhbnNmb3JtPSJtYXRyaXgoLTEgMi45NDA5NjBlLTA2IC0yLjk0MDk2MGUtMDYgLTEgMi41NTY0IDEzNS4wNTU4KSIgc3R5bGU9ImZpbGw6I0YyRjJGMjsiIHdpZHRoPSIyLjU2IiBoZWlnaHQ9IjEuMjUiLz4mI3hhOwkJPC9nPiYjeGE7CQk8ZyBpZD0ic2hhcGU0NDYtNTMiIHRyYW5zZm9ybT0icm90YXRlKC02My40MzQ5LC0yNS4wMzM1OTksMzIuMDk0NTA1KSI+JiN4YTsJCQk8dGl0bGUgaWQ9InRpdGxlMTUwOTgxIj5TaGVldC40NDY8L3RpdGxlPiYjeGE7CQkJJiN4YTsJCQkJPHJlY3QgaWQ9InJlY3QxNTA5ODMiIHg9IjAiIHk9IjY1LjU5IiB0cmFuc2Zvcm09Im1hdHJpeCgtMSAyLjEwMjc0N2UtMDYgLTIuMTAyNzQ3ZS0wNiAtMSAxLjI0NTMgMTMzLjc0NDkpIiBzdHlsZT0iZmlsbDojRjJGMkYyOyIgd2lkdGg9IjEuMjUiIGhlaWdodD0iMi41NiIvPiYjeGE7CQk8L2c+JiN4YTsJCTxnIGlkPSJzaGFwZTQ0Ny01NSIgdHJhbnNmb3JtPSJ0cmFuc2xhdGUoMjEuODY4NCwtMjcuMDQ1KSI+JiN4YTsJCQk8dGl0bGUgaWQ9InRpdGxlMTUwOTg2Ij5TaGVldC40NDc8L3RpdGxlPiYjeGE7CQkJPHBhdGggaWQ9InBhdGgxNTA5ODgiIGlua3NjYXBlOmNvbm5lY3Rvci1jdXJ2YXR1cmU9IjAiIHN0eWxlPSJmaWxsOiNCQjkxNjc7IiBkPSJNMS45LDY4LjE1Yy0wLjU5LDAtMS4yNC0wLjMzLTEuNTEtMC45MiAgICAgQzAsNjYuMzgsMC4zMyw2NS40LDEuMTgsNjQuOTRsMi4yMy0xLjEyYzAuODUtMC4zOSwxLjgzLTAuMDYsMi4yOSwwLjc5YzAuNCwwLjg1LDAuMDcsMS44NC0wLjc4LDIuM2wtMi4yMywxLjExICAgICBDMi40Myw2OC4xNSwyLjE2LDY4LjE1LDEuOSw2OC4xNXoiLz4mI3hhOwkJPC9nPiYjeGE7CQk8ZyBpZD0ic2hhcGU0NDgtNTciIHRyYW5zZm9ybT0idHJhbnNsYXRlKDMuNzM2MTEsLTMxLjA2ODcpIj4mI3hhOwkJCTx0aXRsZSBpZD0idGl0bGUxNTA5OTEiPlNoZWV0LjQ0ODwvdGl0bGU+JiN4YTsJCQk8cGF0aCBpZD0icGF0aDE1MDk5MyIgaW5rc2NhcGU6Y29ubmVjdG9yLWN1cnZhdHVyZT0iMCIgc3R5bGU9ImZpbGw6I0E4QThBODsiIGQ9Ik02Ljc1LDY4LjE1SDEuN2MtMC45MSwwLTEuNy0wLjc5LTEuNy0xLjcgICAgIGMwLTAuOTIsMC43OS0xLjcxLDEuNy0xLjcxaDUuMTJjMC45MSwwLDEuNywwLjc5LDEuNywxLjcxQzguNTIsNjcuMzYsNy43Myw2OC4xNSw2Ljc1LDY4LjE1eiIvPiYjeGE7CQk8L2c+JiN4YTsJCTxnIGlkPSJzaGFwZTQ0OS01OSIgdHJhbnNmb3JtPSJ0cmFuc2xhdGUoMi4zNTk2NSwtMzAuODA2NSkiPiYjeGE7CQkJPHRpdGxlIGlkPSJ0aXRsZTE1MDk5NiI+U2hlZXQuNDQ5PC90aXRsZT4mI3hhOwkJCTxwYXRoIGlkPSJwYXRoMTUwOTk4IiBpbmtzY2FwZTpjb25uZWN0b3ItY3VydmF0dXJlPSIwIiBzdHlsZT0iZmlsbDojRjJGMkYyOyIgZD0iTTMuMDgsNjguMTVIMS45N0MwLjg1LDY4LjE1LDAsNjcuMjMsMCw2Ni4xOCAgICAgYzAtMS4xMSwwLjkyLTEuOTYsMS45Ny0xLjk2aDEuMTFjMS4xMSwwLDEuOTcsMC45MiwxLjk3LDEuOTZDNS4wNSw2Ny4zLDQuMTksNjguMTUsMy4wOCw2OC4xNXoiLz4mI3hhOwkJPC9nPiYjeGE7CQk8ZyBpZD0iZ3JvdXA0NTAtNjEiIHRyYW5zZm9ybT0idHJhbnNsYXRlKDAsLTMzLjI5NzIpIj4mI3hhOwkJCTx0aXRsZSBpZD0idGl0bGUxNTEwMDEiPlNoZWV0LjQ1MDwvdGl0bGU+JiN4YTsJCQk8ZyBpZD0ic2hhcGU0NTEtNjIiIHRyYW5zZm9ybT0idHJhbnNsYXRlKDkuMTc2NCkiPiYjeGE7CQkJCTx0aXRsZSBpZD0idGl0bGUxNTEwMDMiPlNoZWV0LjQ1MTwvdGl0bGU+JiN4YTsJCQkJPHBhdGggaWQ9InBhdGgxNTEwMDUiIGlua3NjYXBlOmNvbm5lY3Rvci1jdXJ2YXR1cmU9IjAiIHN0eWxlPSJmaWxsOiMxRjFGMUY7IiBkPSJNMy4zNCw2OC4xNWMwLjMzLDAsMC41OS0wLjI2LDAuNTktMC41OXYtMC41OSAgICAgIEgwdjEuMTFoMy4zNFY2OC4xNXoiLz4mI3hhOwkJCTwvZz4mI3hhOwkJCTxnIGlkPSJzaGFwZTQ1Mi02NCIgdHJhbnNmb3JtPSJ0cmFuc2xhdGUoMC4zMjc3MjkpIj4mI3hhOwkJCQk8dGl0bGUgaWQ9InRpdGxlMTUxMDA4Ij5TaGVldC40NTI8L3RpdGxlPiYjeGE7CQkJCTxwYXRoIGlkPSJwYXRoMTUxMDEwIiBpbmtzY2FwZTpjb25uZWN0b3ItY3VydmF0dXJlPSIwIiBzdHlsZT0iZmlsbDojMUYxRjFGOyIgZD0iTTAsNjEuNzNsMS41Nyw2LjIyYzAsMC4xMywwLjEzLDAuMiwwLjI3LDAuMiAgICAgIGg4LjE5YzAuMiwwLDAuMzMtMC4yLDAuMjYtMC4zM0w4LjcyLDYxLjZjMC0wLjE0LTAuMTMtMC4yLTAuMjYtMC4ySDAuMzNDMC4xMyw2MS4zMywwLDYxLjUzLDAsNjEuNzN6Ii8+JiN4YTsJCQk8L2c+JiN4YTsJCQk8ZyBpZD0ic2hhcGU0NTMtNjYiPiYjeGE7CQkJCTx0aXRsZSBpZD0idGl0bGUxNTEwMTMiPlNoZWV0LjQ1MzwvdGl0bGU+JiN4YTsJCQkJPHBhdGggaWQ9InBhdGgxNTEwMTUiIGlua3NjYXBlOmNvbm5lY3Rvci1jdXJ2YXR1cmU9IjAiIHN0eWxlPSJmaWxsOiMzODM4Mzg7IiBkPSJNMC4wNyw2MS43M2wxLjU3LDYuMjIgICAgICBjMCwwLjEzLDAuMTMsMC4yLDAuMjYsMC4yaDguMTljMC4yLDAsMC4zMy0wLjIsMC4yNy0wLjMzTDguNzgsNjEuNmMwLTAuMTQtMC4xMy0wLjItMC4yNi0wLjJIMC4zMyAgICAgIEMwLjIsNjEuMzMsMCw2MS41MywwLjA3LDYxLjczeiIvPiYjeGE7CQkJPC9nPiYjeGE7CQk8L2c+JiN4YTsJCTxnIGlkPSJzaGFwZTQ1NC02OCIgdHJhbnNmb3JtPSJ0cmFuc2xhdGUoMS44MzUyOCwtMzEuMDY4NykiPiYjeGE7CQkJPHRpdGxlIGlkPSJ0aXRsZTE1MTAxOSI+U2hlZXQuNDU0PC90aXRsZT4mI3hhOwkJCTxwYXRoIGlkPSJwYXRoMTUxMDIxIiBpbmtzY2FwZTpjb25uZWN0b3ItY3VydmF0dXJlPSIwIiBzdHlsZT0iZmlsbDojQkI5MTY3OyIgZD0iTTIuNDksNjguMTVjLTAuNTksMC0xLjI0LTAuMzMtMS41MS0wLjkyICAgICBsLTAuNTktMS4xMWMtMC4zOS0wLjg1LTAuMDYtMS45LDAuNzItMi4zYzAuODYtMC4zOSwxLjg0LTAuMDYsMi4zLDAuNzlMNCw2NS43M2MwLjM5LDAuODUsMC4wNiwxLjgzLTAuNzksMi4yOSAgICAgQzIuOTUsNjguMDgsMi43NSw2OC4xNSwyLjQ5LDY4LjE1eiIvPiYjeGE7CQk8L2c+JiN4YTsJCTxnIGlkPSJzaGFwZTQ1NS03MCIgdHJhbnNmb3JtPSJ0cmFuc2xhdGUoMTUuMDEsLTQ3LjcxNzMpIj4mI3hhOwkJCTx0aXRsZSBpZD0idGl0bGUxNTEwMjQiPlNoZWV0LjQ1NTwvdGl0bGU+JiN4YTsJCQk8cGF0aCBpZD0icGF0aDE1MTAyNiIgaW5rc2NhcGU6Y29ubmVjdG9yLWN1cnZhdHVyZT0iMCIgc3R5bGU9ImZpbGw6I0NBNTAxMDsiIGQ9Ik0wLjQ2LDY1LjkydjEuNTFjMCwwLjI2LDAuMiwwLjM5LDAuMzksMC4zOSAgICAgaDEuNDRjMC40LDAsMC43My0wLjMyLDAuNzMtMC43MnYtMS44M0gxLjdjMC4xNC0wLjA3LDAuMjctMC4yLDAuNC0wLjI3aDEuMTh2MC43OWMwLjE5LTAuMTMsMC40Ni0wLjI2LDAuNzItMC4yNiAgICAgczAuNTIsMC4wNiwwLjcyLDAuMjZWNjVoMS4xMWMwLjEzLDAuMTQsMC4yNywwLjIsMC40LDAuMjdINC45MnYxLjgzYzAsMC40LDAuMzIsMC43MiwwLjcyLDAuNzJoMS40NGMwLjI2LDAsMC4zOS0wLjE5LDAuMzktMC4zOSAgICAgdi0xLjUxYzAuMDcsMCwwLjIsMC4wNywwLjI2LDAuMDd2MS40NGMwLDAuMzktMC4zMiwwLjcyLTAuNzIsMC43Mkg1LjU3Yy0wLjUyLDAtMC45OC0wLjQ2LTAuOTgtMC45OHYtMC45MiAgICAgYy0wLjItMC4yLTAuNDYtMC4zMy0wLjcyLTAuMzNzLTAuNTMsMC4xMy0wLjcyLDAuMzN2MC45MmMwLDAuNTItMC40NiwwLjk4LTAuOTksMC45OEgwLjcyQzAuMzMsNjguMTUsMCw2Ny44MiwwLDY3LjQzdi0xLjQ0ICAgICBDMC4yNiw2NS45OSwwLjMzLDY1Ljk5LDAuNDYsNjUuOTJ6Ii8+JiN4YTsJCTwvZz4mI3hhOwkJPGcgaWQ9Imdyb3VwNDU2LTcyIiB0cmFuc2Zvcm09InRyYW5zbGF0ZSgxNS40Njg4LC0zMi41MTA3KSI+JiN4YTsJCQk8dGl0bGUgaWQ9InRpdGxlMTUxMDI5Ij5TaGVldC40NTY8L3RpdGxlPiYjeGE7CQkJPGcgaWQ9InNoYXBlNDU3LTczIiB0cmFuc2Zvcm09InRyYW5zbGF0ZSg0LjI2MDQ3LC0zLjIxMTc0KSI+JiN4YTsJCQkJPHRpdGxlIGlkPSJ0aXRsZTE1MTAzMSI+U2hlZXQuNDU3PC90aXRsZT4mI3hhOwkJCQk8cGF0aCBpZD0icGF0aDE1MTAzMyIgaW5rc2NhcGU6Y29ubmVjdG9yLWN1cnZhdHVyZT0iMCIgc3R5bGU9ImZpbGw6I0YyRjJGMjsiIGQ9Ik0wLjEzLDY4LjE1QzAuMDcsNjguMTUsMC4wNyw2OC4xNSwwLjEzLDY4LjE1ICAgICAgQzAsNjguMTUsMCw2OC4wMiwwLDY3Ljk1bDIuNTYtNy42YzAtMC4wNiwwLjEzLTAuMTMsMC4xOS0wLjA2YzAuMDcsMCwwLjEzLDAuMTMsMC4wNywwLjE5bC0yLjU2LDcuNiAgICAgIEMwLjIsNjguMTUsMC4xMyw2OC4xNSwwLjEzLDY4LjE1eiIvPiYjeGE7CQkJPC9nPiYjeGE7CQkJPGcgaWQ9InNoYXBlNDU4LTc1IiB0cmFuc2Zvcm09InRyYW5zbGF0ZSgwLC0zLjIxMTc0KSI+JiN4YTsJCQkJPHRpdGxlIGlkPSJ0aXRsZTE1MTAzNiI+U2hlZXQuNDU4PC90aXRsZT4mI3hhOwkJCQk8cGF0aCBpZD0icGF0aDE1MTAzOCIgaW5rc2NhcGU6Y29ubmVjdG9yLWN1cnZhdHVyZT0iMCIgc3R5bGU9ImZpbGw6I0YyRjJGMjsiIGQ9Ik0yLjY5LDY4LjE1Yy0wLjA3LDAtMC4xMy0wLjA3LTAuMTMtMC4wNyAgICAgIEwwLDYwLjQ4YzAtMC4wNiwwLTAuMTMsMC4wNy0wLjE5YzAuMDYsMCwwLjEzLDAsMC4xOSwwLjA2bDIuNTYsNy42QzIuODIsNjguMDIsMi44Miw2OC4xNSwyLjY5LDY4LjE1TDIuNjksNjguMTV6Ii8+JiN4YTsJCQk8L2c+JiN4YTsJCQk8ZyBpZD0ic2hhcGU0NTktNzciIHRyYW5zZm9ybT0idHJhbnNsYXRlKDIuNDI1MTkpIj4mI3hhOwkJCQk8dGl0bGUgaWQ9InRpdGxlMTUxMDQxIj5TaGVldC40NTk8L3RpdGxlPiYjeGE7CQkJCTxwYXRoIGlkPSJwYXRoMTUxMDQzIiBpbmtzY2FwZTpjb25uZWN0b3ItY3VydmF0dXJlPSIwIiBzdHlsZT0iZmlsbDojRTVFNUU1OyIgZD0iTTIuMjMsNjcuODljMCwwLjEzLTAuMTMsMC4yNi0wLjI2LDAuMjZIMC4yNiAgICAgIEMwLjEzLDY4LjE1LDAsNjguMDIsMCw2Ny44OXYtMy40MWMwLTAuMTMsMC4xMy0wLjI2LDAuMjYtMC4yNmgxLjcxYzAuMTMsMCwwLjI2LDAuMTMsMC4yNiwwLjI2VjY3Ljg5eiIvPiYjeGE7CQkJPC9nPiYjeGE7CQkJPGcgaWQ9Imdyb3VwNDYwLTc5IiB0cmFuc2Zvcm09InRyYW5zbGF0ZSgyLjYzODE1LC0xLjExODQ3KSI+JiN4YTsJCQkJPHRpdGxlIGlkPSJ0aXRsZTE1MTA0NiI+U2hlZXQuNDYwPC90aXRsZT4mI3hhOwkJCQk8ZyBpZD0ic2hhcGU0NjEtODAiIHRyYW5zZm9ybT0icm90YXRlKDE4MCwwLjg1MjA2LDY3LjI5ODUpIj4mI3hhOwkJCQkJPHRpdGxlIGlkPSJ0aXRsZTE1MTA0OCI+U2hlZXQuNDYxPC90aXRsZT4mI3hhOwkJCQkJPHJlY3QgaWQ9InJlY3QxNTEwNTAiIHg9IjAiIHk9IjY3LjM2IiBzdHlsZT0iZmlsbDojRTgxMjI0OyIgd2lkdGg9IjAuNzkiIGhlaWdodD0iMC43OSIvPiYjeGE7CQkJCTwvZz4mI3hhOwkJCQk8ZyBpZD0ic2hhcGU0NjItODIiIHRyYW5zZm9ybT0icm90YXRlKDE4MCwwLjM5MzI3NDUsNjcuMjk4NSkiPiYjeGE7CQkJCQk8dGl0bGUgaWQ9InRpdGxlMTUxMDUzIj5TaGVldC40NjI8L3RpdGxlPiYjeGE7CQkJCQk8cmVjdCBpZD0icmVjdDE1MTA1NSIgeD0iMCIgeT0iNjcuMzYiIHN0eWxlPSJmaWxsOiMxM0ExMEU7IiB3aWR0aD0iMC43OSIgaGVpZ2h0PSIwLjc5Ii8+JiN4YTsJCQkJPC9nPiYjeGE7CQkJCTxnIGlkPSJzaGFwZTQ2My04NCIgdHJhbnNmb3JtPSJyb3RhdGUoMTgwLDAuODUyMDYsNjcuNzU3KSI+JiN4YTsJCQkJCTx0aXRsZSBpZD0idGl0bGUxNTEwNTgiPlNoZWV0LjQ2MzwvdGl0bGU+JiN4YTsJCQkJCTxyZWN0IGlkPSJyZWN0MTUxMDYwIiB4PSIwIiB5PSI2Ny4zNiIgc3R5bGU9ImZpbGw6IzNBOTZERDsiIHdpZHRoPSIwLjc5IiBoZWlnaHQ9IjAuNzkiLz4mI3hhOwkJCQk8L2c+JiN4YTsJCQkJPGcgaWQ9InNoYXBlNDY0LTg2IiB0cmFuc2Zvcm09InJvdGF0ZSgxODAsMC4zOTMyNzQ1LDY3Ljc1NykiPiYjeGE7CQkJCQk8dGl0bGUgaWQ9InRpdGxlMTUxMDYzIj5TaGVldC40NjQ8L3RpdGxlPiYjeGE7CQkJCQk8cmVjdCBpZD0icmVjdDE1MTA2NSIgeD0iMCIgeT0iNjcuMzYiIHN0eWxlPSJmaWxsOiNGRkI5MDA7IiB3aWR0aD0iMC43OSIgaGVpZ2h0PSIwLjc5Ii8+JiN4YTsJCQkJPC9nPiYjeGE7CQkJPC9nPiYjeGE7CQk8L2c+JiN4YTsJPC9nPiYjeGE7PC9nPiYjeGE7PC9zdmc+;" parent="dQPvW1LIH_hYdUgcrzJX-79" vertex="1">
          <mxGeometry x="6.410000000000082" y="65.00000000000006" width="115.69" height="209" as="geometry" />
        </mxCell>
        <mxCell id="dQPvW1LIH_hYdUgcrzJX-78" value="&lt;span style=&quot;font-size: 34px&quot;&gt;&lt;b&gt;DAO&lt;br&gt;Member&lt;/b&gt;&lt;/span&gt;" style="text;html=1;align=center;verticalAlign=middle;resizable=0;points=[];autosize=1;" parent="dQPvW1LIH_hYdUgcrzJX-79" vertex="1">
          <mxGeometry width="150" height="50" as="geometry" />
        </mxCell>
        <mxCell id="dQPvW1LIH_hYdUgcrzJX-82" value="" style="verticalLabelPosition=bottom;html=1;verticalAlign=top;strokeWidth=1;dashed=0;shape=mxgraph.aws3d.secureConnection;fillColor=#000000;strokeColor=#ffffff;aspect=fixed;rounded=1;shadow=0;comic=0;fontSize=12" parent="1" vertex="1">
          <mxGeometry x="1768" y="991" width="56.99999999999999" height="34" as="geometry" />
        </mxCell>
        <mxCell id="dQPvW1LIH_hYdUgcrzJX-86" value="" style="group" parent="1" vertex="1" connectable="0">
          <mxGeometry x="1439.8" y="389.99999999999994" width="110" height="210.80000000000013" as="geometry" />
        </mxCell>
        <mxCell id="dQPvW1LIH_hYdUgcrzJX-56" value="" style="verticalLabelPosition=bottom;html=1;verticalAlign=top;strokeWidth=1;dashed=0;shape=mxgraph.aws3d.cloudfront;fillColor=#ECECEC;strokeColor=#5E5E5E;aspect=fixed;rounded=1;shadow=0;comic=0;fontSize=12" parent="dQPvW1LIH_hYdUgcrzJX-86" vertex="1">
          <mxGeometry x="6.2000000000000455" y="41.000000000000114" width="103.8" height="169.79999999999998" as="geometry" />
        </mxCell>
        <mxCell id="dQPvW1LIH_hYdUgcrzJX-81" value="&lt;span style=&quot;font-size: 34px&quot;&gt;&lt;b&gt;DApp&lt;/b&gt;&lt;/span&gt;" style="text;html=1;align=center;verticalAlign=middle;resizable=0;points=[];autosize=1;" parent="dQPvW1LIH_hYdUgcrzJX-86" vertex="1">
          <mxGeometry width="110" height="30" as="geometry" />
        </mxCell>
        <mxCell id="dQPvW1LIH_hYdUgcrzJX-87" value="" style="group" parent="1" vertex="1" connectable="0">
          <mxGeometry x="1205" y="564" width="160" height="160" as="geometry" />
        </mxCell>
        <mxCell id="1a8abee3a6cfdf20-6" value="" style="verticalLabelPosition=bottom;html=1;verticalAlign=top;strokeWidth=1;dashed=0;shape=mxgraph.aws3d.elasticLoadBalancing;fillColor=#ECECEC;strokeColor=#5E5E5E;aspect=fixed;rounded=1;shadow=0;comic=0;fontSize=12;" parent="dQPvW1LIH_hYdUgcrzJX-87" vertex="1">
          <mxGeometry x="36" y="71.83000000000004" width="92" height="88.17" as="geometry" />
        </mxCell>
        <mxCell id="dQPvW1LIH_hYdUgcrzJX-80" value="&lt;span style=&quot;font-size: 34px&quot;&gt;&lt;b&gt;SubDAO&lt;br&gt;Airfone&lt;/b&gt;&lt;/span&gt;" style="text;html=1;align=center;verticalAlign=middle;resizable=0;points=[];autosize=1;" parent="dQPvW1LIH_hYdUgcrzJX-87" vertex="1">
          <mxGeometry width="160" height="50" as="geometry" />
        </mxCell>
        <mxCell id="dQPvW1LIH_hYdUgcrzJX-89" value="" style="group" parent="1" vertex="1" connectable="0">
          <mxGeometry x="1747.1499999999999" y="339.99999999999994" width="124.85000000000014" height="274.00000000000006" as="geometry" />
        </mxCell>
        <mxCell id="dQPvW1LIH_hYdUgcrzJX-55" value="" style="shape=image;verticalLabelPosition=bottom;labelBackgroundColor=#ffffff;verticalAlign=top;aspect=fixed;imageAspect=0;image=data:image/svg+xml,PHN2ZyB4bWxuczpjYz0iaHR0cDovL2NyZWF0aXZlY29tbW9ucy5vcmcvbnMjIiB4bWxuczpkYz0iaHR0cDovL3B1cmwub3JnL2RjL2VsZW1lbnRzLzEuMS8iIHhtbG5zOmlua3NjYXBlPSJodHRwOi8vd3d3Lmlua3NjYXBlLm9yZy9uYW1lc3BhY2VzL2lua3NjYXBlIiB4bWxuczpyZGY9Imh0dHA6Ly93d3cudzMub3JnLzE5OTkvMDIvMjItcmRmLXN5bnRheC1ucyMiIHhtbG5zOnNvZGlwb2RpPSJodHRwOi8vc29kaXBvZGkuc291cmNlZm9yZ2UubmV0L0RURC9zb2RpcG9kaS0wLmR0ZCIgeG1sbnM6c3ZnPSJodHRwOi8vd3d3LnczLm9yZy8yMDAwL3N2ZyIgeG1sbnM9Imh0dHA6Ly93d3cudzMub3JnLzIwMDAvc3ZnIiB4bWxuczp4bGluaz0iaHR0cDovL3d3dy53My5vcmcvMTk5OS94bGluayIgdmVyc2lvbj0iMS4xIiBpZD0ic3ZnMTUxMDczIiBpbmtzY2FwZTp2ZXJzaW9uPSIwLjkyLjMgKDI0MDU1NDYsIDIwMTgtMDMtMTEpIiBzb2RpcG9kaTpkb2NuYW1lPSJkZXZlbG9wZXJfMi5zdmciIHg9IjBweCIgeT0iMHB4IiB2aWV3Qm94PSIwIDAgMzEuMDIgNTUuOTEiIHN0eWxlPSJlbmFibGUtYmFja2dyb3VuZDpuZXcgMCAwIDMxLjAyIDU1LjkxOyIgeG1sOnNwYWNlPSJwcmVzZXJ2ZSI+JiN4YTs8c29kaXBvZGk6bmFtZWR2aWV3IGJvcmRlcmNvbG9yPSIjNjY2NjY2IiBib3JkZXJvcGFjaXR5PSIxIiBmaXQtbWFyZ2luLWJvdHRvbT0iMCIgZml0LW1hcmdpbi1sZWZ0PSIwIiBmaXQtbWFyZ2luLXJpZ2h0PSIwIiBmaXQtbWFyZ2luLXRvcD0iMCIgZ3JpZHRvbGVyYW5jZT0iMTAiIGd1aWRldG9sZXJhbmNlPSIxMCIgaWQ9Im5hbWVkdmlldzE1MTA3NSIgaW5rc2NhcGU6Y3VycmVudC1sYXllcj0ic3ZnMTUxMDczIiBpbmtzY2FwZTpjeD0iMjAuNjgwMTYiIGlua3NjYXBlOmN5PSIzNy4yNzI5NDkiIGlua3NjYXBlOnBhZ2VvcGFjaXR5PSIwIiBpbmtzY2FwZTpwYWdlc2hhZG93PSIyIiBpbmtzY2FwZTp3aW5kb3ctaGVpZ2h0PSIxMDE3IiBpbmtzY2FwZTp3aW5kb3ctbWF4aW1pemVkPSIxIiBpbmtzY2FwZTp3aW5kb3ctd2lkdGg9IjE5MjAiIGlua3NjYXBlOndpbmRvdy14PSItOCIgaW5rc2NhcGU6d2luZG93LXk9Ii04IiBpbmtzY2FwZTp6b29tPSI5LjU0MTM4IiBvYmplY3R0b2xlcmFuY2U9IjEwIiBwYWdlY29sb3I9IiNmZmZmZmYiIHNob3dncmlkPSJmYWxzZSI+JiN4YTsJPC9zb2RpcG9kaTpuYW1lZHZpZXc+JiN4YTs8ZyBpZD0iZzE1MTA3MSIgdHJhbnNmb3JtPSJ0cmFuc2xhdGUoLTYuMTIzMDA5MiwtNi4xMTc2NTMyKSI+JiN4YTsJPHRpdGxlIGlkPSJ0aXRsZTE1MDg1MiI+UGFnZS0xPC90aXRsZT4mI3hhOwk8ZyBpZD0iZ3JvdXA0MjItMSIgdHJhbnNmb3JtPSJ0cmFuc2xhdGUoNi4wNjc0NywtNi4xMikiPiYjeGE7CQk8dGl0bGUgaWQ9InRpdGxlMTUwODU0Ij5EZXZlbG9wZXIgIzI8L3RpdGxlPiYjeGE7CQk8ZyBpZD0ic2hhcGU0MjMtMiIgdHJhbnNmb3JtPSJ0cmFuc2xhdGUoMTIuNzgxNCwtMi4yOTQxKSI+JiN4YTsJCQk8dGl0bGUgaWQ9InRpdGxlMTUwODU2Ij5TaGVldC40MjM8L3RpdGxlPiYjeGE7CQkJPHBhdGggaWQ9InBhdGgxNTA4NTgiIGlua3NjYXBlOmNvbm5lY3Rvci1jdXJ2YXR1cmU9IjAiIHN0eWxlPSJmaWxsOiMzODM4Mzg7IiBkPSJNMi4xLDY1LjMzbC0wLjItMS43TDAsNDQuNDJoMTIuNDVsLTEuOSwxOS4yMSAgICAgbC0wLjE5LDEuN2wtMC4yLDEuNzFsMS4xMSwxLjExSDYuNzV2LTIuODJ2LTEuN3YtMTUuOGMwLTAuMzMtMC4yNi0wLjU5LTAuNTktMC41OXMtMC41OSwwLjI2LTAuNTksMC41OXYxNS44djEuN3YyLjgySDEuMDUgICAgIGwxLjExLTEuMTFMMi4xLDY1LjMzeiIvPiYjeGE7CQk8L2c+JiN4YTsJCTxnIGlkPSJzaGFwZTQyNC00IiB0cmFuc2Zvcm09InRyYW5zbGF0ZSgxOS41OTgyLC0wLjUyNDM2NikiPiYjeGE7CQkJPHRpdGxlIGlkPSJ0aXRsZTE1MDg2MSI+U2hlZXQuNDI0PC90aXRsZT4mI3hhOwkJCTxwYXRoIGlkPSJwYXRoMTUwODYzIiBpbmtzY2FwZTpjb25uZWN0b3ItY3VydmF0dXJlPSIwIiBzdHlsZT0iZmlsbDojMUYxRjFGOyIgZD0iTTUuNTcsNjcuNTZjMC0wLjY1LTAuNTItMS4xMS0xLjExLTEuMTEgICAgIGwtMS4xMi0xLjEybDAuNTktNS42M0gwdjguNDVoNS42NHYtMC41OUw1LjU3LDY3LjU2eiIvPiYjeGE7CQk8L2c+JiN4YTsJCTxnIGlkPSJzaGFwZTQyNS02IiB0cmFuc2Zvcm09InRyYW5zbGF0ZSgxOS41MzI2KSI+JiN4YTsJCQk8dGl0bGUgaWQ9InRpdGxlMTUwODY2Ij5TaGVldC40MjU8L3RpdGxlPiYjeGE7CQkJPHBhdGggaWQ9InBhdGgxNTA4NjgiIGlua3NjYXBlOmNvbm5lY3Rvci1jdXJ2YXR1cmU9IjAiIHN0eWxlPSJmaWxsOiMzODM4Mzg7IiBkPSJNNS42NCw2Ny41NnYwLjU5SDIuMjlMMS43LDY3LjU2djAuNTlIMHYtMC41OSAgICAgSDUuNjR6Ii8+JiN4YTsJCTwvZz4mI3hhOwkJPGcgaWQ9InNoYXBlNDI2LTgiIHRyYW5zZm9ybT0idHJhbnNsYXRlKDEyLjcxNTksLTAuNTI0MzY2KSI+JiN4YTsJCQk8dGl0bGUgaWQ9InRpdGxlMTUwODcxIj5TaGVldC40MjY8L3RpdGxlPiYjeGE7CQkJPHBhdGggaWQ9InBhdGgxNTA4NzMiIGlua3NjYXBlOmNvbm5lY3Rvci1jdXJ2YXR1cmU9IjAiIHN0eWxlPSJmaWxsOiMxRjFGMUY7IiBkPSJNMC4wNyw2Ny41NmMwLTAuNjUsMC41Mi0xLjExLDEuMTEtMS4xMSAgICAgbDEuMTEtMS4xMkwxLjcsNTkuN2gzLjk0djguNDVIMHYtMC41OUwwLjA3LDY3LjU2eiIvPiYjeGE7CQk8L2c+JiN4YTsJCTxnIGlkPSJzaGFwZTQyNy0xMCIgdHJhbnNmb3JtPSJ0cmFuc2xhdGUoMTIuNzgxNCkiPiYjeGE7CQkJPHRpdGxlIGlkPSJ0aXRsZTE1MDg3NiI+U2hlZXQuNDI3PC90aXRsZT4mI3hhOwkJCTxwYXRoIGlkPSJwYXRoMTUwODc4IiBpbmtzY2FwZTpjb25uZWN0b3ItY3VydmF0dXJlPSIwIiBzdHlsZT0iZmlsbDojMzgzODM4OyIgZD0iTTAsNjcuNTZ2MC41OWgzLjQxbDAuNTItMC41OXYwLjU5aDEuNzF2LTAuNTkgICAgIEgweiIvPiYjeGE7CQk8L2c+JiN4YTsJCTxnIGlkPSJzaGFwZTQyOC0xMiIgdHJhbnNmb3JtPSJ0cmFuc2xhdGUoMTMuMzA1OCwtNDMuNTIyNCkiPiYjeGE7CQkJPHRpdGxlIGlkPSJ0aXRsZTE1MDg4MSI+U2hlZXQuNDI4PC90aXRsZT4mI3hhOwkJCTxwYXRoIGlkPSJwYXRoMTUwODgzIiBpbmtzY2FwZTpjb25uZWN0b3ItY3VydmF0dXJlPSIwIiBzdHlsZT0iZmlsbDojMzgzODM4OyIgZD0iTTAsNjEuNGMwLTMuMTUsMi41Ni01LjY0LDUuNjQtNS42NCAgICAgczUuNjMsMi41Niw1LjYzLDUuNjR2Ni43NUgwVjYxLjR6Ii8+JiN4YTsJCTwvZz4mI3hhOwkJPGcgaWQ9InNoYXBlNDI5LTE0IiB0cmFuc2Zvcm09InRyYW5zbGF0ZSgxMy44OTU3LC00NC41NzExKSI+JiN4YTsJCQk8dGl0bGUgaWQ9InRpdGxlMTUwODg2Ij5TaGVldC40Mjk8L3RpdGxlPiYjeGE7CQkJPHBhdGggaWQ9InBhdGgxNTA4ODgiIGlua3NjYXBlOmNvbm5lY3Rvci1jdXJ2YXR1cmU9IjAiIHN0eWxlPSJmaWxsOiNCQjkxNjc7IiBkPSJNMCw2My4wNGMyLjgyLDAsNS4xMS0yLjMsNS4xMS01LjExICAgICBjMCwyLjgxLDIuMyw1LjExLDUuMTIsNS4xMWMwLDIuODItMi4zLDUuMTEtNS4xMiw1LjExUzAsNjUuODYsMCw2My4wNHoiLz4mI3hhOwkJPC9nPiYjeGE7CQk8ZyBpZD0ic2hhcGU0MzAtMTYiIHRyYW5zZm9ybT0idHJhbnNsYXRlKDguNjUyMDMsLTMxLjA2ODcpIj4mI3hhOwkJCTx0aXRsZSBpZD0idGl0bGUxNTA4OTEiPlNoZWV0LjQzMDwvdGl0bGU+JiN4YTsJCQk8cGF0aCBpZD0icGF0aDE1MDg5MyIgaW5rc2NhcGU6Y29ubmVjdG9yLWN1cnZhdHVyZT0iMCIgc3R5bGU9ImZpbGw6I0E4QThBODsiIGQ9Ik0xLjg0LDY4LjE1Yy0wLjE0LDAtMC4yNywwLTAuNC0wLjA3ICAgICBDMC41Miw2Ny44OSwwLDY2Ljk3LDAuMiw2Ni4wNWwyLjIzLTkuMDRjMC4xOS0wLjkyLDEuMTEtMS40NCwyLjAzLTEuMjVjMC45MSwwLjIsMS40NCwxLjEyLDEuMjQsMi4wM2wtMi4yMyw5LjA1ICAgICBDMy4zNCw2Ny42MywyLjYyLDY4LjE1LDEuODQsNjguMTV6Ii8+JiN4YTsJCTwvZz4mI3hhOwkJPGcgaWQ9InNoYXBlNDMxLTE4IiB0cmFuc2Zvcm09InRyYW5zbGF0ZSgyNC42MjEzLC0yOS4yNzM1KSI+JiN4YTsJCQk8dGl0bGUgaWQ9InRpdGxlMTUwODk2Ij5TaGVldC40MzE8L3RpdGxlPiYjeGE7CQkJPHBhdGggaWQ9InBhdGgxNTA4OTgiIGlua3NjYXBlOmNvbm5lY3Rvci1jdXJ2YXR1cmU9IjAiIHN0eWxlPSJmaWxsOiNBOEE4QTg7IiBkPSJNMS45Nyw2OC4xNWMtMC4yNywwLTAuNTMtMC4wNy0wLjc5LTAuMiAgICAgQzAuMzMsNjcuNTYsMCw2Ni41MSwwLjM5LDY1LjY2bDIuODItNS42NGMwLjQtMC44NSwxLjQ0LTEuMTgsMi4zLTAuNzhjMC44NSwwLjM5LDEuMTgsMS40NCwwLjc4LDIuMjlsLTIuODIsNS42NCAgICAgQzMuMTUsNjcuODIsMi41Niw2OC4xNSwxLjk3LDY4LjE1eiIvPiYjeGE7CQk8L2c+JiN4YTsJCTxnIGlkPSJzaGFwZTQzMi0yMCIgdHJhbnNmb3JtPSJ0cmFuc2xhdGUoMjIuOTY1OCwtMzUuNTQ1MSkiPiYjeGE7CQkJPHRpdGxlIGlkPSJ0aXRsZTE1MDkwMSI+U2hlZXQuNDMyPC90aXRsZT4mI3hhOwkJCTxwYXRoIGlkPSJwYXRoMTUwOTAzIiBpbmtzY2FwZTpjb25uZWN0b3ItY3VydmF0dXJlPSIwIiBzdHlsZT0iZmlsbDojQThBOEE4OyIgZD0iTTYuMzYsNjguMTVjLTAuNDYsMC0wLjg1LTAuMi0xLjE4LTAuNTIgICAgIEwwLjY2LDYzLjFDMCw2Mi40NSwwLDYxLjQsMC42Niw2MC42OGMwLjY1LTAuNjYsMS43LTAuNjYsMi40MiwwTDcuNiw2NS4yYzAuNjYsMC42NiwwLjY2LDEuNzEsMCwyLjQzICAgICBDNy4yOCw2OC4wMiw2LjgyLDY4LjE1LDYuMzYsNjguMTV6Ii8+JiN4YTsJCTwvZz4mI3hhOwkJPGcgaWQ9InNoYXBlNDMzLTIyIiB0cmFuc2Zvcm09InRyYW5zbGF0ZSgyMC42NDY5LC00OC41Njk0KSI+JiN4YTsJCQk8dGl0bGUgaWQ9InRpdGxlMTUwOTA2Ij5TaGVldC40MzM8L3RpdGxlPiYjeGE7CQkJPHBhdGggaWQ9InBhdGgxNTA5MDgiIGlua3NjYXBlOmNvbm5lY3Rvci1jdXJ2YXR1cmU9IjAiIHN0eWxlPSJmaWxsOiMxRjFGMUY7IiBkPSJNMCw2Ny4wNGMwLTAuMzMsMC4yNi0wLjU5LDAuNTktMC41OSAgICAgczAuNTksMC4yNiwwLjU5LDAuNTl2MC41MmMwLDAuMzMtMC4yNiwwLjU5LTAuNTksMC41OUMwLjI2LDY4LjE1LDAsNjcuODksMCw2Ny41NlY2Ny4wNHoiLz4mI3hhOwkJPC9nPiYjeGE7CQk8ZyBpZD0ic2hhcGU0MzQtMjQiIHRyYW5zZm9ybT0idHJhbnNsYXRlKDE2LjE4OTgsLTQ4LjU2OTQpIj4mI3hhOwkJCTx0aXRsZSBpZD0idGl0bGUxNTA5MTEiPlNoZWV0LjQzNDwvdGl0bGU+JiN4YTsJCQk8cGF0aCBpZD0icGF0aDE1MDkxMyIgaW5rc2NhcGU6Y29ubmVjdG9yLWN1cnZhdHVyZT0iMCIgc3R5bGU9ImZpbGw6IzFGMUYxRjsiIGQ9Ik0wLDY3LjA0YzAtMC4zMywwLjI2LTAuNTksMC41OS0wLjU5ICAgICBzMC41OSwwLjI2LDAuNTksMC41OXYwLjUyYzAsMC4zMy0wLjI2LDAuNTktMC41OSwwLjU5QzAuMjYsNjguMTUsMCw2Ny44OSwwLDY3LjU2VjY3LjA0eiIvPiYjeGE7CQk8L2c+JiN4YTsJCTxnIGlkPSJzaGFwZTQzNS0yNiIgdHJhbnNmb3JtPSJ0cmFuc2xhdGUoMTguMzUyOCwtNDcuOTc5NSkiPiYjeGE7CQkJPHRpdGxlIGlkPSJ0aXRsZTE1MDkxNiI+U2hlZXQuNDM1PC90aXRsZT4mI3hhOwkJCTxwYXRoIGlkPSJwYXRoMTUwOTE4IiBpbmtzY2FwZTpjb25uZWN0b3ItY3VydmF0dXJlPSIwIiBzdHlsZT0iZmlsbDojOTk3NzU4OyIgZD0iTTEuMTgsNjcuNTZjMCwwLjMzLTAuMjYsMC41OS0wLjU5LDAuNTkgICAgIEMwLjI2LDY4LjE1LDAsNjcuODksMCw2Ny41NkgxLjE4eiIvPiYjeGE7CQkJPHBhdGggaWQ9InBhdGgxNTA5MjAiIGlua3NjYXBlOmNvbm5lY3Rvci1jdXJ2YXR1cmU9IjAiIHN0eWxlPSJmaWxsOm5vbmU7IiBkPSJNMS4xOCw2Ny41NmMwLDAuMzMtMC4yNiwwLjU5LTAuNTksMC41OSAgICAgQzAuMjYsNjguMTUsMCw2Ny44OSwwLDY3LjU2Ii8+JiN4YTsJCTwvZz4mI3hhOwkJPGcgaWQ9InNoYXBlNDM2LTI5IiB0cmFuc2Zvcm09InRyYW5zbGF0ZSgxOC4xNTYyLC00Ni4wMTMxKSI+JiN4YTsJCQk8dGl0bGUgaWQ9InRpdGxlMTUwOTIzIj5TaGVldC40MzY8L3RpdGxlPiYjeGE7CQkJPHBhdGggaWQ9InBhdGgxNTA5MjUiIGlua3NjYXBlOmNvbm5lY3Rvci1jdXJ2YXR1cmU9IjAiIHN0eWxlPSJmaWxsOiNGRkZGRkY7IiBkPSJNMS43LDY3LjNjMCwwLjQ2LTAuMzksMC44NS0wLjg1LDAuODUgICAgIFMwLDY3Ljc2LDAsNjcuM0gxLjd6Ii8+JiN4YTsJCQk8cGF0aCBpZD0icGF0aDE1MDkyNyIgaW5rc2NhcGU6Y29ubmVjdG9yLWN1cnZhdHVyZT0iMCIgc3R5bGU9ImZpbGw6bm9uZTsiIGQ9Ik0xLjcsNjcuM2MwLDAuNDYtMC4zOSwwLjg1LTAuODUsMC44NSAgICAgUzAsNjcuNzYsMCw2Ny4zIi8+JiN4YTsJCTwvZz4mI3hhOwkJPGcgaWQ9InNoYXBlNDM3LTMyIiB0cmFuc2Zvcm09InRyYW5zbGF0ZSgxNS41OTk5LC00MC4zNzYyKSI+JiN4YTsJCQk8dGl0bGUgaWQ9InRpdGxlMTUwOTMwIj5TaGVldC40Mzc8L3RpdGxlPiYjeGE7CQkJPHBhdGggaWQ9InBhdGgxNTA5MzIiIGlua3NjYXBlOmNvbm5lY3Rvci1jdXJ2YXR1cmU9IjAiIHN0eWxlPSJmaWxsOiMwMEIyOTQ7IiBkPSJNNi4yMyw2NS4wN2MwLDEuNy0xLjM4LDMuMDgtMy4wOCwzLjA4ICAgICBDMS40NCw2OC4xNSwwLDY2Ljc3LDAsNjUuMDdINi4yM3oiLz4mI3hhOwkJCTxwYXRoIGlkPSJwYXRoMTUwOTM0IiBpbmtzY2FwZTpjb25uZWN0b3ItY3VydmF0dXJlPSIwIiBzdHlsZT0iZmlsbDpub25lOyIgZD0iTTYuMjMsNjUuMDdjMCwxLjctMS4zOCwzLjA4LTMuMDgsMy4wOCAgICAgQzEuNDQsNjguMTUsMCw2Ni43NywwLDY1LjA3Ii8+JiN4YTsJCTwvZz4mI3hhOwkJPGcgaWQ9InNoYXBlNDM4LTM1IiB0cmFuc2Zvcm09InRyYW5zbGF0ZSgxNi4xMjQyLC00MC45MDA1KSI+JiN4YTsJCQk8dGl0bGUgaWQ9InRpdGxlMTUwOTM3Ij5TaGVldC40Mzg8L3RpdGxlPiYjeGE7CQkJPHBhdGggaWQ9InBhdGgxNTA5MzkiIGlua3NjYXBlOmNvbm5lY3Rvci1jdXJ2YXR1cmU9IjAiIHN0eWxlPSJmaWxsOiNCQjkxNjc7IiBkPSJNNS4xMSw2NS41OWMwLDEuMzgtMS4xMSwyLjU2LTIuNTUsMi41NiAgICAgQzEuMTEsNjguMTUsMCw2Ny4wNCwwLDY1LjU5SDUuMTF6Ii8+JiN4YTsJCQk8cGF0aCBpZD0icGF0aDE1MDk0MSIgaW5rc2NhcGU6Y29ubmVjdG9yLWN1cnZhdHVyZT0iMCIgc3R5bGU9ImZpbGw6bm9uZTsiIGQ9Ik01LjExLDY1LjU5YzAsMS4zOC0xLjExLDIuNTYtMi41NSwyLjU2ICAgICBDMS4xMSw2OC4xNSwwLDY3LjA0LDAsNjUuNTkiLz4mI3hhOwkJPC9nPiYjeGE7CQk8ZyBpZD0ic2hhcGU0MzktMzgiIHRyYW5zZm9ybT0idHJhbnNsYXRlKDE4Ljk0MjcsLTIyLjYxMzMpIj4mI3hhOwkJCTx0aXRsZSBpZD0idGl0bGUxNTA5NDQiPlNoZWV0LjQzOTwvdGl0bGU+JiN4YTsJCQk8cGF0aCBpZD0icGF0aDE1MDk0NiIgaW5rc2NhcGU6Y29ubmVjdG9yLWN1cnZhdHVyZT0iMCIgc3R5bGU9ImZpbGw6I0YyRjJGMjsiIGQ9Ik0wLjA3LDY1LjkyYzAsMS4yNSwwLjk4LDIuMjMsMi4yMiwyLjIzaDMuOTQgICAgIHYtMy40MUgwdjEuMThIMC4wN3oiLz4mI3hhOwkJPC9nPiYjeGE7CQk8ZyBpZD0ic2hhcGU0NDAtNDAiIHRyYW5zZm9ybT0icm90YXRlKDE4MCwxMi41OTI5NSw0Ni4zOTIzKSI+JiN4YTsJCQk8dGl0bGUgaWQ9InRpdGxlMTUwOTQ5Ij5TaGVldC40NDA8L3RpdGxlPiYjeGE7CQkJPHJlY3QgaWQ9InJlY3QxNTA5NTEiIHg9IjAiIHk9IjUxLjc2IiBzdHlsZT0iZmlsbDojQThBOEE4OyIgd2lkdGg9IjEyLjQ1IiBoZWlnaHQ9IjE2LjM5Ii8+JiN4YTsJCTwvZz4mI3hhOwkJPGcgaWQ9InNoYXBlNDQxLTQyIiB0cmFuc2Zvcm09InRyYW5zbGF0ZSgxNi43MTQyLC00MS4yMjgzKSI+JiN4YTsJCQk8dGl0bGUgaWQ9InRpdGxlMTUwOTU0Ij5TaGVldC40NDE8L3RpdGxlPiYjeGE7CQkJPHBhdGggaWQ9InBhdGgxNTA5NTYiIGlua3NjYXBlOmNvbm5lY3Rvci1jdXJ2YXR1cmU9IjAiIHN0eWxlPSJmaWxsOiM4M0JFRUM7IiBkPSJNMi4yOSw2OC4xNWwyLjIzLTIuMjNIMEwyLjI5LDY4LjE1eiIvPiYjeGE7CQkJPHBhdGggaWQ9InBhdGgxNTA5NTgiIGlua3NjYXBlOmNvbm5lY3Rvci1jdXJ2YXR1cmU9IjAiIHN0eWxlPSJmaWxsOm5vbmU7IiBkPSJNMi4yOSw2OC4xNWwyLjIzLTIuMjNIMCIvPiYjeGE7CQk8L2c+JiN4YTsJCTxnIGlkPSJzaGFwZTQ0Mi00NSIgdHJhbnNmb3JtPSJ0cmFuc2xhdGUoMTIuODQ3LC0yMi42MTMzKSI+JiN4YTsJCQk8dGl0bGUgaWQ9InRpdGxlMTUwOTYxIj5TaGVldC40NDI8L3RpdGxlPiYjeGE7CQkJPHBhdGggaWQ9InBhdGgxNTA5NjMiIGlua3NjYXBlOmNvbm5lY3Rvci1jdXJ2YXR1cmU9IjAiIHN0eWxlPSJmaWxsOiNGMkYyRjI7IiBkPSJNNi4xNiw2NS45MmMwLDEuMjUtMC45OCwyLjIzLTIuMjMsMi4yM0gwICAgICB2LTMuNDFoNi4yM3YxLjE4SDYuMTZ6Ii8+JiN4YTsJCTwvZz4mI3hhOwkJPGcgaWQ9InNoYXBlNDQzLTQ3IiB0cmFuc2Zvcm09InRyYW5zbGF0ZSgxNy44Mjg0LC00Mi4zNDI1KSI+JiN4YTsJCQk8dGl0bGUgaWQ9InRpdGxlMTUwOTY2Ij5TaGVldC40NDM8L3RpdGxlPiYjeGE7CQkJPHBhdGggaWQ9InBhdGgxNTA5NjgiIGlua3NjYXBlOmNvbm5lY3Rvci1jdXJ2YXR1cmU9IjAiIHN0eWxlPSJmaWxsOiNFNUU1RTU7IiBkPSJNMi4yOSw2Ny4wNGwtMS4xMSwxLjExTDAsNjcuMDRIMi4yOXoiLz4mI3hhOwkJPC9nPiYjeGE7CQk8ZyBpZD0ic2hhcGU0NDQtNDkiIHRyYW5zZm9ybT0icm90YXRlKDE4MCwxMi41OTI5NSw1NC42MDgpIj4mI3hhOwkJCTx0aXRsZSBpZD0idGl0bGUxNTA5NzEiPlNoZWV0LjQ0NDwvdGl0bGU+JiN4YTsJCQk8cmVjdCBpZD0icmVjdDE1MDk3MyIgeD0iMCIgeT0iNjYuNDUiIHN0eWxlPSJmaWxsOiM4M0JFRUM7IiB3aWR0aD0iMTIuNDUiIGhlaWdodD0iMS43Ii8+JiN4YTsJCTwvZz4mI3hhOwkJPGcgaWQ9InNoYXBlNDQ1LTUxIiB0cmFuc2Zvcm09InJvdGF0ZSgtMjYuNTY1MSwtNzkuOTY4OTI0LDUuNTY2MjkxNikiPiYjeGE7CQkJPHRpdGxlIGlkPSJ0aXRsZTE1MDk3NiI+U2hlZXQuNDQ1PC90aXRsZT4mI3hhOwkJCSYjeGE7CQkJCTxyZWN0IGlkPSJyZWN0MTUwOTc4IiB4PSIwIiB5PSI2Ni45MSIgdHJhbnNmb3JtPSJtYXRyaXgoLTEgMi45NDA5NjBlLTA2IC0yLjk0MDk2MGUtMDYgLTEgMi41NTY0IDEzNS4wNTU4KSIgc3R5bGU9ImZpbGw6I0YyRjJGMjsiIHdpZHRoPSIyLjU2IiBoZWlnaHQ9IjEuMjUiLz4mI3hhOwkJPC9nPiYjeGE7CQk8ZyBpZD0ic2hhcGU0NDYtNTMiIHRyYW5zZm9ybT0icm90YXRlKC02My40MzQ5LC0yNS4wMzM1OTksMzIuMDk0NTA1KSI+JiN4YTsJCQk8dGl0bGUgaWQ9InRpdGxlMTUwOTgxIj5TaGVldC40NDY8L3RpdGxlPiYjeGE7CQkJJiN4YTsJCQkJPHJlY3QgaWQ9InJlY3QxNTA5ODMiIHg9IjAiIHk9IjY1LjU5IiB0cmFuc2Zvcm09Im1hdHJpeCgtMSAyLjEwMjc0N2UtMDYgLTIuMTAyNzQ3ZS0wNiAtMSAxLjI0NTMgMTMzLjc0NDkpIiBzdHlsZT0iZmlsbDojRjJGMkYyOyIgd2lkdGg9IjEuMjUiIGhlaWdodD0iMi41NiIvPiYjeGE7CQk8L2c+JiN4YTsJCTxnIGlkPSJzaGFwZTQ0Ny01NSIgdHJhbnNmb3JtPSJ0cmFuc2xhdGUoMjEuODY4NCwtMjcuMDQ1KSI+JiN4YTsJCQk8dGl0bGUgaWQ9InRpdGxlMTUwOTg2Ij5TaGVldC40NDc8L3RpdGxlPiYjeGE7CQkJPHBhdGggaWQ9InBhdGgxNTA5ODgiIGlua3NjYXBlOmNvbm5lY3Rvci1jdXJ2YXR1cmU9IjAiIHN0eWxlPSJmaWxsOiNCQjkxNjc7IiBkPSJNMS45LDY4LjE1Yy0wLjU5LDAtMS4yNC0wLjMzLTEuNTEtMC45MiAgICAgQzAsNjYuMzgsMC4zMyw2NS40LDEuMTgsNjQuOTRsMi4yMy0xLjEyYzAuODUtMC4zOSwxLjgzLTAuMDYsMi4yOSwwLjc5YzAuNCwwLjg1LDAuMDcsMS44NC0wLjc4LDIuM2wtMi4yMywxLjExICAgICBDMi40Myw2OC4xNSwyLjE2LDY4LjE1LDEuOSw2OC4xNXoiLz4mI3hhOwkJPC9nPiYjeGE7CQk8ZyBpZD0ic2hhcGU0NDgtNTciIHRyYW5zZm9ybT0idHJhbnNsYXRlKDMuNzM2MTEsLTMxLjA2ODcpIj4mI3hhOwkJCTx0aXRsZSBpZD0idGl0bGUxNTA5OTEiPlNoZWV0LjQ0ODwvdGl0bGU+JiN4YTsJCQk8cGF0aCBpZD0icGF0aDE1MDk5MyIgaW5rc2NhcGU6Y29ubmVjdG9yLWN1cnZhdHVyZT0iMCIgc3R5bGU9ImZpbGw6I0E4QThBODsiIGQ9Ik02Ljc1LDY4LjE1SDEuN2MtMC45MSwwLTEuNy0wLjc5LTEuNy0xLjcgICAgIGMwLTAuOTIsMC43OS0xLjcxLDEuNy0xLjcxaDUuMTJjMC45MSwwLDEuNywwLjc5LDEuNywxLjcxQzguNTIsNjcuMzYsNy43Myw2OC4xNSw2Ljc1LDY4LjE1eiIvPiYjeGE7CQk8L2c+JiN4YTsJCTxnIGlkPSJzaGFwZTQ0OS01OSIgdHJhbnNmb3JtPSJ0cmFuc2xhdGUoMi4zNTk2NSwtMzAuODA2NSkiPiYjeGE7CQkJPHRpdGxlIGlkPSJ0aXRsZTE1MDk5NiI+U2hlZXQuNDQ5PC90aXRsZT4mI3hhOwkJCTxwYXRoIGlkPSJwYXRoMTUwOTk4IiBpbmtzY2FwZTpjb25uZWN0b3ItY3VydmF0dXJlPSIwIiBzdHlsZT0iZmlsbDojRjJGMkYyOyIgZD0iTTMuMDgsNjguMTVIMS45N0MwLjg1LDY4LjE1LDAsNjcuMjMsMCw2Ni4xOCAgICAgYzAtMS4xMSwwLjkyLTEuOTYsMS45Ny0xLjk2aDEuMTFjMS4xMSwwLDEuOTcsMC45MiwxLjk3LDEuOTZDNS4wNSw2Ny4zLDQuMTksNjguMTUsMy4wOCw2OC4xNXoiLz4mI3hhOwkJPC9nPiYjeGE7CQk8ZyBpZD0iZ3JvdXA0NTAtNjEiIHRyYW5zZm9ybT0idHJhbnNsYXRlKDAsLTMzLjI5NzIpIj4mI3hhOwkJCTx0aXRsZSBpZD0idGl0bGUxNTEwMDEiPlNoZWV0LjQ1MDwvdGl0bGU+JiN4YTsJCQk8ZyBpZD0ic2hhcGU0NTEtNjIiIHRyYW5zZm9ybT0idHJhbnNsYXRlKDkuMTc2NCkiPiYjeGE7CQkJCTx0aXRsZSBpZD0idGl0bGUxNTEwMDMiPlNoZWV0LjQ1MTwvdGl0bGU+JiN4YTsJCQkJPHBhdGggaWQ9InBhdGgxNTEwMDUiIGlua3NjYXBlOmNvbm5lY3Rvci1jdXJ2YXR1cmU9IjAiIHN0eWxlPSJmaWxsOiMxRjFGMUY7IiBkPSJNMy4zNCw2OC4xNWMwLjMzLDAsMC41OS0wLjI2LDAuNTktMC41OXYtMC41OSAgICAgIEgwdjEuMTFoMy4zNFY2OC4xNXoiLz4mI3hhOwkJCTwvZz4mI3hhOwkJCTxnIGlkPSJzaGFwZTQ1Mi02NCIgdHJhbnNmb3JtPSJ0cmFuc2xhdGUoMC4zMjc3MjkpIj4mI3hhOwkJCQk8dGl0bGUgaWQ9InRpdGxlMTUxMDA4Ij5TaGVldC40NTI8L3RpdGxlPiYjeGE7CQkJCTxwYXRoIGlkPSJwYXRoMTUxMDEwIiBpbmtzY2FwZTpjb25uZWN0b3ItY3VydmF0dXJlPSIwIiBzdHlsZT0iZmlsbDojMUYxRjFGOyIgZD0iTTAsNjEuNzNsMS41Nyw2LjIyYzAsMC4xMywwLjEzLDAuMiwwLjI3LDAuMiAgICAgIGg4LjE5YzAuMiwwLDAuMzMtMC4yLDAuMjYtMC4zM0w4LjcyLDYxLjZjMC0wLjE0LTAuMTMtMC4yLTAuMjYtMC4ySDAuMzNDMC4xMyw2MS4zMywwLDYxLjUzLDAsNjEuNzN6Ii8+JiN4YTsJCQk8L2c+JiN4YTsJCQk8ZyBpZD0ic2hhcGU0NTMtNjYiPiYjeGE7CQkJCTx0aXRsZSBpZD0idGl0bGUxNTEwMTMiPlNoZWV0LjQ1MzwvdGl0bGU+JiN4YTsJCQkJPHBhdGggaWQ9InBhdGgxNTEwMTUiIGlua3NjYXBlOmNvbm5lY3Rvci1jdXJ2YXR1cmU9IjAiIHN0eWxlPSJmaWxsOiMzODM4Mzg7IiBkPSJNMC4wNyw2MS43M2wxLjU3LDYuMjIgICAgICBjMCwwLjEzLDAuMTMsMC4yLDAuMjYsMC4yaDguMTljMC4yLDAsMC4zMy0wLjIsMC4yNy0wLjMzTDguNzgsNjEuNmMwLTAuMTQtMC4xMy0wLjItMC4yNi0wLjJIMC4zMyAgICAgIEMwLjIsNjEuMzMsMCw2MS41MywwLjA3LDYxLjczeiIvPiYjeGE7CQkJPC9nPiYjeGE7CQk8L2c+JiN4YTsJCTxnIGlkPSJzaGFwZTQ1NC02OCIgdHJhbnNmb3JtPSJ0cmFuc2xhdGUoMS44MzUyOCwtMzEuMDY4NykiPiYjeGE7CQkJPHRpdGxlIGlkPSJ0aXRsZTE1MTAxOSI+U2hlZXQuNDU0PC90aXRsZT4mI3hhOwkJCTxwYXRoIGlkPSJwYXRoMTUxMDIxIiBpbmtzY2FwZTpjb25uZWN0b3ItY3VydmF0dXJlPSIwIiBzdHlsZT0iZmlsbDojQkI5MTY3OyIgZD0iTTIuNDksNjguMTVjLTAuNTksMC0xLjI0LTAuMzMtMS41MS0wLjkyICAgICBsLTAuNTktMS4xMWMtMC4zOS0wLjg1LTAuMDYtMS45LDAuNzItMi4zYzAuODYtMC4zOSwxLjg0LTAuMDYsMi4zLDAuNzlMNCw2NS43M2MwLjM5LDAuODUsMC4wNiwxLjgzLTAuNzksMi4yOSAgICAgQzIuOTUsNjguMDgsMi43NSw2OC4xNSwyLjQ5LDY4LjE1eiIvPiYjeGE7CQk8L2c+JiN4YTsJCTxnIGlkPSJzaGFwZTQ1NS03MCIgdHJhbnNmb3JtPSJ0cmFuc2xhdGUoMTUuMDEsLTQ3LjcxNzMpIj4mI3hhOwkJCTx0aXRsZSBpZD0idGl0bGUxNTEwMjQiPlNoZWV0LjQ1NTwvdGl0bGU+JiN4YTsJCQk8cGF0aCBpZD0icGF0aDE1MTAyNiIgaW5rc2NhcGU6Y29ubmVjdG9yLWN1cnZhdHVyZT0iMCIgc3R5bGU9ImZpbGw6I0NBNTAxMDsiIGQ9Ik0wLjQ2LDY1LjkydjEuNTFjMCwwLjI2LDAuMiwwLjM5LDAuMzksMC4zOSAgICAgaDEuNDRjMC40LDAsMC43My0wLjMyLDAuNzMtMC43MnYtMS44M0gxLjdjMC4xNC0wLjA3LDAuMjctMC4yLDAuNC0wLjI3aDEuMTh2MC43OWMwLjE5LTAuMTMsMC40Ni0wLjI2LDAuNzItMC4yNiAgICAgczAuNTIsMC4wNiwwLjcyLDAuMjZWNjVoMS4xMWMwLjEzLDAuMTQsMC4yNywwLjIsMC40LDAuMjdINC45MnYxLjgzYzAsMC40LDAuMzIsMC43MiwwLjcyLDAuNzJoMS40NGMwLjI2LDAsMC4zOS0wLjE5LDAuMzktMC4zOSAgICAgdi0xLjUxYzAuMDcsMCwwLjIsMC4wNywwLjI2LDAuMDd2MS40NGMwLDAuMzktMC4zMiwwLjcyLTAuNzIsMC43Mkg1LjU3Yy0wLjUyLDAtMC45OC0wLjQ2LTAuOTgtMC45OHYtMC45MiAgICAgYy0wLjItMC4yLTAuNDYtMC4zMy0wLjcyLTAuMzNzLTAuNTMsMC4xMy0wLjcyLDAuMzN2MC45MmMwLDAuNTItMC40NiwwLjk4LTAuOTksMC45OEgwLjcyQzAuMzMsNjguMTUsMCw2Ny44MiwwLDY3LjQzdi0xLjQ0ICAgICBDMC4yNiw2NS45OSwwLjMzLDY1Ljk5LDAuNDYsNjUuOTJ6Ii8+JiN4YTsJCTwvZz4mI3hhOwkJPGcgaWQ9Imdyb3VwNDU2LTcyIiB0cmFuc2Zvcm09InRyYW5zbGF0ZSgxNS40Njg4LC0zMi41MTA3KSI+JiN4YTsJCQk8dGl0bGUgaWQ9InRpdGxlMTUxMDI5Ij5TaGVldC40NTY8L3RpdGxlPiYjeGE7CQkJPGcgaWQ9InNoYXBlNDU3LTczIiB0cmFuc2Zvcm09InRyYW5zbGF0ZSg0LjI2MDQ3LC0zLjIxMTc0KSI+JiN4YTsJCQkJPHRpdGxlIGlkPSJ0aXRsZTE1MTAzMSI+U2hlZXQuNDU3PC90aXRsZT4mI3hhOwkJCQk8cGF0aCBpZD0icGF0aDE1MTAzMyIgaW5rc2NhcGU6Y29ubmVjdG9yLWN1cnZhdHVyZT0iMCIgc3R5bGU9ImZpbGw6I0YyRjJGMjsiIGQ9Ik0wLjEzLDY4LjE1QzAuMDcsNjguMTUsMC4wNyw2OC4xNSwwLjEzLDY4LjE1ICAgICAgQzAsNjguMTUsMCw2OC4wMiwwLDY3Ljk1bDIuNTYtNy42YzAtMC4wNiwwLjEzLTAuMTMsMC4xOS0wLjA2YzAuMDcsMCwwLjEzLDAuMTMsMC4wNywwLjE5bC0yLjU2LDcuNiAgICAgIEMwLjIsNjguMTUsMC4xMyw2OC4xNSwwLjEzLDY4LjE1eiIvPiYjeGE7CQkJPC9nPiYjeGE7CQkJPGcgaWQ9InNoYXBlNDU4LTc1IiB0cmFuc2Zvcm09InRyYW5zbGF0ZSgwLC0zLjIxMTc0KSI+JiN4YTsJCQkJPHRpdGxlIGlkPSJ0aXRsZTE1MTAzNiI+U2hlZXQuNDU4PC90aXRsZT4mI3hhOwkJCQk8cGF0aCBpZD0icGF0aDE1MTAzOCIgaW5rc2NhcGU6Y29ubmVjdG9yLWN1cnZhdHVyZT0iMCIgc3R5bGU9ImZpbGw6I0YyRjJGMjsiIGQ9Ik0yLjY5LDY4LjE1Yy0wLjA3LDAtMC4xMy0wLjA3LTAuMTMtMC4wNyAgICAgIEwwLDYwLjQ4YzAtMC4wNiwwLTAuMTMsMC4wNy0wLjE5YzAuMDYsMCwwLjEzLDAsMC4xOSwwLjA2bDIuNTYsNy42QzIuODIsNjguMDIsMi44Miw2OC4xNSwyLjY5LDY4LjE1TDIuNjksNjguMTV6Ii8+JiN4YTsJCQk8L2c+JiN4YTsJCQk8ZyBpZD0ic2hhcGU0NTktNzciIHRyYW5zZm9ybT0idHJhbnNsYXRlKDIuNDI1MTkpIj4mI3hhOwkJCQk8dGl0bGUgaWQ9InRpdGxlMTUxMDQxIj5TaGVldC40NTk8L3RpdGxlPiYjeGE7CQkJCTxwYXRoIGlkPSJwYXRoMTUxMDQzIiBpbmtzY2FwZTpjb25uZWN0b3ItY3VydmF0dXJlPSIwIiBzdHlsZT0iZmlsbDojRTVFNUU1OyIgZD0iTTIuMjMsNjcuODljMCwwLjEzLTAuMTMsMC4yNi0wLjI2LDAuMjZIMC4yNiAgICAgIEMwLjEzLDY4LjE1LDAsNjguMDIsMCw2Ny44OXYtMy40MWMwLTAuMTMsMC4xMy0wLjI2LDAuMjYtMC4yNmgxLjcxYzAuMTMsMCwwLjI2LDAuMTMsMC4yNiwwLjI2VjY3Ljg5eiIvPiYjeGE7CQkJPC9nPiYjeGE7CQkJPGcgaWQ9Imdyb3VwNDYwLTc5IiB0cmFuc2Zvcm09InRyYW5zbGF0ZSgyLjYzODE1LC0xLjExODQ3KSI+JiN4YTsJCQkJPHRpdGxlIGlkPSJ0aXRsZTE1MTA0NiI+U2hlZXQuNDYwPC90aXRsZT4mI3hhOwkJCQk8ZyBpZD0ic2hhcGU0NjEtODAiIHRyYW5zZm9ybT0icm90YXRlKDE4MCwwLjg1MjA2LDY3LjI5ODUpIj4mI3hhOwkJCQkJPHRpdGxlIGlkPSJ0aXRsZTE1MTA0OCI+U2hlZXQuNDYxPC90aXRsZT4mI3hhOwkJCQkJPHJlY3QgaWQ9InJlY3QxNTEwNTAiIHg9IjAiIHk9IjY3LjM2IiBzdHlsZT0iZmlsbDojRTgxMjI0OyIgd2lkdGg9IjAuNzkiIGhlaWdodD0iMC43OSIvPiYjeGE7CQkJCTwvZz4mI3hhOwkJCQk8ZyBpZD0ic2hhcGU0NjItODIiIHRyYW5zZm9ybT0icm90YXRlKDE4MCwwLjM5MzI3NDUsNjcuMjk4NSkiPiYjeGE7CQkJCQk8dGl0bGUgaWQ9InRpdGxlMTUxMDUzIj5TaGVldC40NjI8L3RpdGxlPiYjeGE7CQkJCQk8cmVjdCBpZD0icmVjdDE1MTA1NSIgeD0iMCIgeT0iNjcuMzYiIHN0eWxlPSJmaWxsOiMxM0ExMEU7IiB3aWR0aD0iMC43OSIgaGVpZ2h0PSIwLjc5Ii8+JiN4YTsJCQkJPC9nPiYjeGE7CQkJCTxnIGlkPSJzaGFwZTQ2My04NCIgdHJhbnNmb3JtPSJyb3RhdGUoMTgwLDAuODUyMDYsNjcuNzU3KSI+JiN4YTsJCQkJCTx0aXRsZSBpZD0idGl0bGUxNTEwNTgiPlNoZWV0LjQ2MzwvdGl0bGU+JiN4YTsJCQkJCTxyZWN0IGlkPSJyZWN0MTUxMDYwIiB4PSIwIiB5PSI2Ny4zNiIgc3R5bGU9ImZpbGw6IzNBOTZERDsiIHdpZHRoPSIwLjc5IiBoZWlnaHQ9IjAuNzkiLz4mI3hhOwkJCQk8L2c+JiN4YTsJCQkJPGcgaWQ9InNoYXBlNDY0LTg2IiB0cmFuc2Zvcm09InJvdGF0ZSgxODAsMC4zOTMyNzQ1LDY3Ljc1NykiPiYjeGE7CQkJCQk8dGl0bGUgaWQ9InRpdGxlMTUxMDYzIj5TaGVldC40NjQ8L3RpdGxlPiYjeGE7CQkJCQk8cmVjdCBpZD0icmVjdDE1MTA2NSIgeD0iMCIgeT0iNjcuMzYiIHN0eWxlPSJmaWxsOiNGRkI5MDA7IiB3aWR0aD0iMC43OSIgaGVpZ2h0PSIwLjc5Ii8+JiN4YTsJCQkJPC9nPiYjeGE7CQkJPC9nPiYjeGE7CQk8L2c+JiN4YTsJPC9nPiYjeGE7PC9nPiYjeGE7PC9zdmc+;" parent="dQPvW1LIH_hYdUgcrzJX-89" vertex="1">
          <mxGeometry y="65.00000000000006" width="115.69" height="209" as="geometry" />
        </mxCell>
        <mxCell id="dQPvW1LIH_hYdUgcrzJX-88" value="&lt;span style=&quot;font-size: 34px&quot;&gt;&lt;b&gt;DApp&lt;br&gt;User&lt;/b&gt;&lt;/span&gt;" style="text;html=1;align=center;verticalAlign=middle;resizable=0;points=[];autosize=1;" parent="dQPvW1LIH_hYdUgcrzJX-89" vertex="1">
          <mxGeometry x="14.850000000000136" width="110" height="50" as="geometry" />
        </mxCell>
        <mxCell id="7URtmlx7mKb1edq9orLI-1" value="" style="group" vertex="1" connectable="0" parent="1">
          <mxGeometry x="1010" y="650" width="143" height="207" as="geometry" />
        </mxCell>
        <mxCell id="7URtmlx7mKb1edq9orLI-2" value="" style="verticalLabelPosition=bottom;html=1;verticalAlign=top;strokeWidth=1;dashed=0;shape=mxgraph.aws3d.dataCenter;fillColor=#ffffff;strokeColor=#5E5E5E;aspect=fixed;rounded=1;shadow=0;comic=0;fontSize=12" vertex="1" parent="7URtmlx7mKb1edq9orLI-1">
          <mxGeometry y="65" width="123" height="142" as="geometry" />
        </mxCell>
        <mxCell id="7URtmlx7mKb1edq9orLI-3" value="" style="verticalLabelPosition=bottom;html=1;verticalAlign=top;strokeWidth=1;dashed=0;shape=mxgraph.aws3d.application2;fillColor=#86E83A;strokeColor=#B0F373;aspect=fixed;rounded=1;shadow=0;comic=0;fontSize=12" vertex="1" parent="7URtmlx7mKb1edq9orLI-1">
          <mxGeometry x="30.5" y="70" width="62" height="53" as="geometry" />
        </mxCell>
        <mxCell id="7URtmlx7mKb1edq9orLI-4" value="&lt;span style=&quot;font-size: 34px&quot;&gt;&lt;b&gt;DAO 1&lt;br&gt;Contract&lt;/b&gt;&lt;/span&gt;" style="text;html=1;align=center;verticalAlign=middle;resizable=0;points=[];autosize=1;" vertex="1" parent="7URtmlx7mKb1edq9orLI-1">
          <mxGeometry x="-17" y="-10" width="160" height="50" as="geometry" />
        </mxCell>
      </root>
    </mxGraphModel>
  </diagram>
</mxfile>
